font.ufo
<glyph name="exclam" format="1">
  <advance width="221"/>
  <unicode hex="0021"/>
  <outline>
    <contour>
      <point x="73" y="688" type="line"/>
      <point x="73" y="519" type="line"/>
      <point x="84" y="210" type="line"/>
      <point x="136" y="210" type="line"/>
      <point x="148" y="519" type="line"/>
      <point x="148" y="688" type="line"/>
    </contour>
    <contour>
      <point x="62" y="42" type="curve" smooth="yes"/>
      <point x="62" y="14"/>
      <point x="82" y="-7"/>
      <point x="109" y="-7" type="curve" smooth="yes"/>
      <point x="137" y="-7"/>
      <point x="157" y="14"/>
      <point x="157" y="42" type="curve" smooth="yes"/>
      <point x="157" y="71"/>
      <point x="137" y="92"/>
      <point x="109" y="92" type="curve" smooth="yes"/>
      <point x="82" y="92"/>
      <point x="62" y="71"/>
    </contour>
  </outline>
</glyph>
<glyph name="numbersign" format="1">
  <advance width="718"/>
  <unicode hex="0023"/>
  <outline>
    <contour>
      <point x="446.34571" y="247.0" type="line"/>
      <point x="245.34571" y="247.0" type="line"/>
      <point x="269.91714" y="447.0" type="line"/>
      <point x="470.91714" y="447.0" type="line"/>
    </contour>
    <contour>
      <point x="416.0" y="0" type="line"/>
      <point x="476.0" y="0" type="line"/>
      <point x="498.85143" y="186.0" type="line"/>
      <point x="645" y="186.0" type="line"/>
      <point x="649" y="247.0" type="line"/>
      <point x="506.34571" y="247.0" type="line"/>
      <point x="530.91714" y="447.0" type="line"/>
      <point x="677" y="447.0" type="line"/>
      <point x="681" y="508.0" type="line"/>
      <point x="538.41143" y="508.0" type="line"/>
      <point x="562" y="700.0" type="line"/>
      <point x="502.0" y="700.0" type="line"/>
      <point x="478.41143" y="508.0" type="line"/>
      <point x="277.41143" y="508.0" type="line"/>
      <point x="301" y="700.0" type="line"/>
      <point x="241.0" y="700.0" type="line"/>
      <point x="217.41143" y="508.0" type="line"/>
      <point x="72" y="508.0" type="line"/>
      <point x="67" y="447.0" type="line"/>
      <point x="209.91714" y="447.0" type="line"/>
      <point x="185.34571" y="247.0" type="line"/>
      <point x="40" y="247.0" type="line"/>
      <point x="35" y="186.0" type="line"/>
      <point x="177.85143" y="186.0" type="line"/>
      <point x="155" y="0" type="line"/>
      <point x="215.0" y="0" type="line"/>
      <point x="237.85143" y="186.0" type="line"/>
      <point x="438.85143" y="186.0" type="line"/>
    </contour>
  </outline>
</glyph>
<glyph name="ampersand" format="1">
  <advance width="649"/>
  <unicode hex="0026"/>
  <outline>
    <contour>
      <point x="600.0" y="-12.0" type="curve"/>
      <point x="642" y="30.0" type="line"/>
      <point x="598.403997982" y="72.9776190106"/>
      <point x="557.914976007" y="112.537559974"/>
      <point x="520.61422" y="149.11592" type="curve"/>
      <point x="550.313432145" y="189.348508178"/>
      <point x="577.022475816" y="236.680360547"/>
      <point x="600.0" y="290.0" type="curve"/>
      <point x="547" y="330" type="line"/>
      <point x="526.244056934" y="277.955247237"/>
      <point x="502.129165095" y="232.052572229"/>
      <point x="475.48778" y="193.48261" type="curve"/>
      <point x="404.39689033" y="263.629844911"/>
      <point x="346.893833666" y="321.973413673"/>
      <point x="303.68249" y="372.29" type="curve"/>
      <point x="391.279352694" y="418.495029866"/>
      <point x="478.0" y="467.475024837"/>
      <point x="478.0" y="563.0" type="curve" smooth="yes"/>
      <point x="478" y="645"/>
      <point x="413" y="703"/>
      <point x="316" y="703" type="curve" smooth="yes"/>
      <point x="214" y="703"/>
      <point x="145" y="640"/>
      <point x="145" y="553" type="curve" smooth="yes"/>
      <point x="145.0" y="501.784497749"/>
      <point x="169.212563116" y="449.327325594"/>
      <point x="216.84278" y="386.39831" type="curve"/>
      <point x="134.666248454" y="342.307461747"/>
      <point x="58.0" y="289.165772173"/>
      <point x="58.0" y="188.0" type="curve" smooth="yes"/>
      <point x="58" y="78"/>
      <point x="150" y="-3"/>
      <point x="266" y="-3" type="curve" smooth="yes"/>
      <point x="345.083595379" y="-3.0"/>
      <point x="419.362855459" y="35.4346823866"/>
      <point x="483.00795" y="103.66325" type="curve"/>
      <point x="519.186230021" y="67.9417413065"/>
      <point x="558.19542352" y="29.5249472057"/>
    </contour>
    <contour>
      <point x="208.0" y="553.0" type="curve" smooth="yes"/>
      <point x="208" y="608"/>
      <point x="251" y="651"/>
      <point x="316" y="651" type="curve" smooth="yes"/>
      <point x="376" y="651"/>
      <point x="414" y="615"/>
      <point x="414" y="563" type="curve" smooth="yes"/>
      <point x="414.0" y="492.325504083"/>
      <point x="346.244366833" y="453.435251814"/>
      <point x="269.85156" y="413.94731" type="curve"/>
      <point x="228.993601267" y="467.786450617"/>
      <point x="208.0" y="512.119672781"/>
    </contour>
    <contour>
      <point x="269.0" y="58.0" type="curve" smooth="yes"/>
      <point x="188" y="58"/>
      <point x="124" y="114"/>
      <point x="124" y="193" type="curve" smooth="yes"/>
      <point x="124.0" y="263.391010146"/>
      <point x="181.934753122" y="305.796588699"/>
      <point x="250.92971" y="344.11504" type="curve"/>
      <point x="298.194068858" y="288.504512495"/>
      <point x="361.058052241" y="224.531448083"/>
      <point x="439.08468" y="147.11735" type="curve"/>
      <point x="387.724046583" y="89.9743486627"/>
      <point x="329.438083102" y="58.0"/>
    </contour>
  </outline>
</glyph>
<glyph name="quotesingle" format="1">
  <advance width="182"/>
  <unicode hex="0027"/>
  <outline>
    <contour>
      <point x="60" y="700" type="line"/>
      <point x="60" y="475" type="line"/>
      <point x="122" y="475" type="line"/>
      <point x="122" y="700" type="line"/>
    </contour>
  </outline>
</glyph>
<glyph name="asterisk" format="1">
  <advance width="328"/>
  <unicode hex="002A"/>
  <outline>
    <contour>
      <point x="301" y="521" type="line"/>
      <point x="206" y="574" type="line"/>
      <point x="301" y="627" type="line"/>
      <point x="279" y="668" type="line"/>
      <point x="185" y="613" type="line"/>
      <point x="186" y="721" type="line"/>
      <point x="142" y="721" type="line"/>
      <point x="143" y="613" type="line"/>
      <point x="49" y="669" type="line"/>
      <point x="27" y="627" type="line"/>
      <point x="121" y="574" type="line"/>
      <point x="27" y="521" type="line"/>
      <point x="49" y="480" type="line"/>
      <point x="143" y="535" type="line"/>
      <point x="142" y="427" type="line"/>
      <point x="186" y="427" type="line"/>
      <point x="185" y="535" type="line"/>
      <point x="279" y="480" type="line"/>
    </contour>
  </outline>
</glyph>
<glyph name="plus" format="1">
  <advance width="491"/>
  <unicode hex="002B"/>
  <outline>
    <contour>
      <point x="454.0" y="294" type="line"/>
      <point x="454.0" y="351.0" type="line"/>
      <point x="273" y="351.0" type="line"/>
      <point x="273" y="532" type="line"/>
      <point x="219.0" y="532" type="line"/>
      <point x="219.0" y="351.0" type="line"/>
      <point x="37" y="351.0" type="line"/>
      <point x="37" y="294" type="line"/>
      <point x="219.0" y="294" type="line"/>
      <point x="219.0" y="114.0" type="line"/>
      <point x="273" y="114.0" type="line"/>
      <point x="273" y="294" type="line"/>
    </contour>
  </outline>
</glyph>
<glyph name="comma" format="1">
  <advance width="197"/>
  <unicode hex="002C"/>
  <outline>
    <contour>
      <point x="86" y="-71" type="line"/>
      <point x="132" y="0" type="line" smooth="yes"/>
      <point x="141" y="13"/>
      <point x="147" y="26"/>
      <point x="147" y="42" type="curve" smooth="yes"/>
      <point x="147" y="73"/>
      <point x="125" y="92"/>
      <point x="100" y="92" type="curve" smooth="yes"/>
      <point x="73" y="92"/>
      <point x="52" y="71"/>
      <point x="52" y="42" type="curve" smooth="yes"/>
      <point x="52.0" y="25.4173011756"/>
      <point x="59.4796164882" y="9.71455723212"/>
      <point x="74.73069" y="0.72896" type="curve"/>
      <point x="42" y="-71" type="line"/>
    </contour>
  </outline>
</glyph>
<glyph name="hyphen" format="1">
  <advance width="364"/>
  <unicode hex="002D"/>
  <outline>
    <contour>
      <point x="64" y="331" type="line"/>
      <point x="64" y="274" type="line"/>
      <point x="299" y="274" type="line"/>
      <point x="299" y="331" type="line"/>
    </contour>
  </outline>
</glyph>
<glyph name="period" format="1">
  <advance width="197"/>
  <unicode hex="002E"/>
  <outline>
    <contour>
      <point x="51" y="42" type="curve" smooth="yes"/>
      <point x="51" y="14"/>
      <point x="71" y="-7"/>
      <point x="98" y="-7" type="curve" smooth="yes"/>
      <point x="126" y="-7"/>
      <point x="146" y="14"/>
      <point x="146" y="42" type="curve" smooth="yes"/>
      <point x="146" y="71"/>
      <point x="126" y="92"/>
      <point x="98" y="92" type="curve" smooth="yes"/>
      <point x="71" y="92"/>
      <point x="51" y="71"/>
    </contour>
  </outline>
</glyph>
<glyph name="slash" format="1">
  <advance width="316"/>
  <unicode hex="002F"/>
  <outline>
    <contour>
      <point x="302" y="820" type="line"/>
      <point x="-11" y="-122" type="line"/>
      <point x="57" y="-122" type="line"/>
      <point x="369" y="820" type="line"/>
    </contour>
  </outline>
</glyph>
<glyph name="zero" format="1">
  <advance width="617"/>
  <unicode hex="0030"/>
  <note>
    zero
  </note>
  <outline>
    <contour>
      <point x="49" y="351" type="curve" smooth="yes"/>
      <point x="49" y="124"/>
      <point x="142" y="-2"/>
      <point x="309" y="-2" type="curve" smooth="yes"/>
      <point x="475" y="-2"/>
      <point x="568" y="124"/>
      <point x="568" y="351" type="curve" smooth="yes"/>
      <point x="568" y="577"/>
      <point x="475" y="703"/>
      <point x="309" y="703" type="curve" smooth="yes"/>
      <point x="142" y="703"/>
      <point x="49" y="577"/>
    </contour>
    <contour>
      <point x="488" y="351" type="curve" smooth="yes"/>
      <point x="488" y="160"/>
      <point x="426" y="63"/>
      <point x="309" y="63" type="curve" smooth="yes"/>
      <point x="190" y="63"/>
      <point x="129" y="160"/>
      <point x="129" y="351" type="curve" smooth="yes"/>
      <point x="129" y="542"/>
      <point x="190" y="637"/>
      <point x="309" y="637" type="curve" smooth="yes"/>
      <point x="426" y="637"/>
      <point x="488" y="542"/>
    </contour>
  </outline>
</glyph>
<glyph name="one" format="1">
  <advance width="617"/>
  <unicode hex="0031"/>
  <note>
    one
  </note>
  <outline>
    <contour>
      <point x="359" y="0" type="line"/>
      <point x="359" y="701" type="line"/>
      <point x="114" y="701" type="line"/>
      <point x="114" y="627" type="line"/>
      <point x="279" y="627" type="line"/>
      <point x="279" y="0" type="line"/>
    </contour>
  </outline>
</glyph>
<glyph name="two" format="1">
  <advance width="581"/>
  <unicode hex="0032"/>
  <note>
    two
  </note>
  <outline>
    <contour>
      <point x="40" y="606" type="curve"/>
      <point x="75" y="545" type="line"/>
      <point x="131" y="598"/>
      <point x="202" y="631"/>
      <point x="266" y="631" type="curve" smooth="yes"/>
      <point x="354" y="631"/>
      <point x="406" y="590"/>
      <point x="406" y="521" type="curve" smooth="yes"/>
      <point x="406" y="475"/>
      <point x="369" y="410"/>
      <point x="310" y="350" type="curve"/>
      <point x="48" y="64" type="line"/>
      <point x="48" y="0" type="line"/>
      <point x="529" y="0" type="line"/>
      <point x="529" y="74" type="line"/>
      <point x="150" y="74" type="line"/>
      <point x="365" y="305" type="line" smooth="yes"/>
      <point x="439" y="384"/>
      <point x="489" y="465"/>
      <point x="489" y="531" type="curve" smooth="yes"/>
      <point x="489" y="636"/>
      <point x="405" y="703"/>
      <point x="276" y="703" type="curve" smooth="yes"/>
      <point x="193" y="703"/>
      <point x="108" y="667"/>
    </contour>
  </outline>
</glyph>
<glyph name="three" format="1">
  <advance width="617"/>
  <unicode hex="0033"/>
  <note>
    three
  </note>
  <outline>
    <contour>
      <point x="258" y="404" type="line"/>
      <point x="503" y="647" type="line"/>
      <point x="503" y="700" type="line"/>
      <point x="60" y="700" type="line"/>
      <point x="61" y="626" type="line"/>
      <point x="402" y="626" type="line"/>
      <point x="169" y="396" type="line"/>
      <point x="169" y="347" type="line"/>
      <point x="262" y="347" type="line" smooth="yes"/>
      <point x="386" y="347"/>
      <point x="460" y="301"/>
      <point x="460" y="212" type="curve" smooth="yes"/>
      <point x="460" y="125"/>
      <point x="387" y="66"/>
      <point x="264" y="66" type="curve" smooth="yes"/>
      <point x="191" y="66"/>
      <point x="117" y="91"/>
      <point x="62" y="132" type="curve"/>
      <point x="27" y="66" type="line"/>
      <point x="89" y="25"/>
      <point x="180" y="-3"/>
      <point x="268" y="-3" type="curve" smooth="yes"/>
      <point x="435" y="-3"/>
      <point x="538" y="86"/>
      <point x="538" y="215" type="curve" smooth="yes"/>
      <point x="538" y="328"/>
      <point x="444" y="395"/>
      <point x="301" y="402" type="curve" smooth="yes"/>
    </contour>
  </outline>
</glyph>
<glyph name="four" format="1">
  <advance width="577"/>
  <unicode hex="0034"/>
  <note>
    four
  </note>
  <outline>
    <contour>
      <point x="361" y="700" type="line"/>
      <point x="282" y="700" type="line"/>
      <point x="31" y="250" type="line"/>
      <point x="31" y="186" type="line"/>
      <point x="367" y="186" type="line"/>
      <point x="367" y="0" type="line"/>
      <point x="442" y="0" type="line"/>
      <point x="442" y="186" type="line"/>
      <point x="548" y="186" type="line"/>
      <point x="548" y="260" type="line"/>
      <point x="442" y="260" type="line"/>
      <point x="442" y="446" type="line"/>
      <point x="367" y="446" type="line"/>
      <point x="367" y="260" type="line"/>
      <point x="117" y="260" type="line"/>
    </contour>
  </outline>
</glyph>
<glyph name="five" format="1">
  <advance width="617"/>
  <unicode hex="0035"/>
  <note>
    five
  </note>
  <outline>
    <contour>
      <point x="97" y="701" type="line"/>
      <point x="97" y="343" type="line"/>
      <point x="151" y="355"/>
      <point x="239" y="362"/>
      <point x="288" y="362" type="curve" smooth="yes"/>
      <point x="399" y="362"/>
      <point x="470" y="308"/>
      <point x="470" y="224" type="curve" smooth="yes"/>
      <point x="470" y="129"/>
      <point x="399" y="70"/>
      <point x="286" y="70" type="curve" smooth="yes"/>
      <point x="219" y="70"/>
      <point x="140" y="96"/>
      <point x="79" y="139" type="curve"/>
      <point x="46" y="74" type="line"/>
      <point x="116" y="28"/>
      <point x="212" y="-2"/>
      <point x="294" y="-2" type="curve" smooth="yes"/>
      <point x="452" y="-2"/>
      <point x="554" y="89"/>
      <point x="554" y="229" type="curve" smooth="yes"/>
      <point x="554" y="349"/>
      <point x="455" y="435"/>
      <point x="300" y="435" type="curve" smooth="yes"/>
      <point x="265" y="435"/>
      <point x="212" y="432"/>
      <point x="172" y="425" type="curve"/>
      <point x="172" y="627" type="line"/>
      <point x="525" y="627" type="line"/>
      <point x="525" y="701" type="line"/>
    </contour>
  </outline>
</glyph>
<glyph name="six" format="1">
  <advance width="617"/>
  <unicode hex="0036"/>
  <note>
    six
  </note>
  <outline>
    <contour>
      <point x="56" y="334" type="curve" smooth="yes"/>
      <point x="56" y="119"/>
      <point x="161" y="-3"/>
      <point x="333" y="-3" type="curve" smooth="yes"/>
      <point x="478" y="-3"/>
      <point x="573" y="85"/>
      <point x="573" y="227" type="curve" smooth="yes"/>
      <point x="573" y="363"/>
      <point x="487" y="448"/>
      <point x="348" y="448" type="curve" smooth="yes"/>
      <point x="243" y="448"/>
      <point x="167" y="401"/>
      <point x="136" y="316" type="curve"/>
      <point x="124" y="510"/>
      <point x="200" y="635"/>
      <point x="353" y="635" type="curve" smooth="yes"/>
      <point x="408" y="635"/>
      <point x="469" y="619"/>
      <point x="516" y="592" type="curve"/>
      <point x="548" y="654" type="line"/>
      <point x="490" y="684"/>
      <point x="413" y="704"/>
      <point x="348" y="704" type="curve" smooth="yes"/>
      <point x="168" y="704"/>
      <point x="56" y="558"/>
    </contour>
    <contour>
      <point x="498" y="229" type="curve" smooth="yes"/>
      <point x="498" y="128"/>
      <point x="428" y="67"/>
      <point x="328" y="67" type="curve" smooth="yes"/>
      <point x="206" y="67"/>
      <point x="154" y="155"/>
      <point x="154" y="223" type="curve" smooth="yes"/>
      <point x="154" y="307"/>
      <point x="221" y="383"/>
      <point x="334" y="383" type="curve" smooth="yes"/>
      <point x="434" y="383"/>
      <point x="498" y="324"/>
    </contour>
  </outline>
</glyph>
<glyph name="seven" format="1">
  <advance width="617"/>
  <unicode hex="0037"/>
  <note>
    seven
  </note>
  <outline>
    <contour>
      <point x="55" y="701" type="line"/>
      <point x="55" y="524" type="line"/>
      <point x="127" y="524" type="line"/>
      <point x="127" y="627" type="line"/>
      <point x="485" y="627" type="line"/>
      <point x="174" y="0" type="line"/>
      <point x="259" y="0" type="line"/>
      <point x="572" y="636" type="line"/>
      <point x="572" y="701" type="line"/>
    </contour>
  </outline>
</glyph>
<glyph name="nine" format="1">
  <advance width="617"/>
  <unicode hex="0039"/>
  <note>
    nine
  </note>
  <outline>
    <contour>
      <point x="125" y="472" type="curve" smooth="yes"/>
      <point x="125" y="573"/>
      <point x="194" y="633"/>
      <point x="294" y="633" type="curve" smooth="yes"/>
      <point x="414" y="633"/>
      <point x="466" y="546"/>
      <point x="465" y="478" type="curve" smooth="yes"/>
      <point x="466" y="394"/>
      <point x="400" y="318"/>
      <point x="287" y="318" type="curve" smooth="yes"/>
      <point x="188" y="318"/>
      <point x="125" y="377"/>
    </contour>
    <contour>
      <point x="563" y="366" type="curve" smooth="yes"/>
      <point x="563" y="582"/>
      <point x="459" y="704"/>
      <point x="288" y="704" type="curve" smooth="yes"/>
      <point x="144" y="704"/>
      <point x="50" y="616"/>
      <point x="50" y="473" type="curve" smooth="yes"/>
      <point x="50" y="337"/>
      <point x="135" y="252"/>
      <point x="274" y="252" type="curve" smooth="yes"/>
      <point x="378" y="252"/>
      <point x="452" y="300"/>
      <point x="483" y="384" type="curve"/>
      <point x="495" y="190"/>
      <point x="419" y="65"/>
      <point x="268" y="65" type="curve" smooth="yes"/>
      <point x="213" y="65"/>
      <point x="153" y="81"/>
      <point x="107" y="109" type="curve"/>
      <point x="75" y="47" type="line"/>
      <point x="132" y="16"/>
      <point x="209" y="-3"/>
      <point x="273" y="-3" type="curve" smooth="yes"/>
      <point x="451" y="-3"/>
      <point x="563" y="143"/>
    </contour>
  </outline>
</glyph>
<glyph name="less" format="1">
  <advance width="491"/>
  <unicode hex="003C"/>
  <outline>
    <contour>
      <point x="37" y="363" type="line"/>
      <point x="37" y="290" type="line"/>
      <point x="454" y="104" type="line"/>
      <point x="454" y="168" type="line"/>
      <point x="91" y="326" type="line"/>
      <point x="454" y="485" type="line"/>
      <point x="454" y="549" type="line"/>
    </contour>
  </outline>
</glyph>
<glyph name="equal" format="1">
  <advance width="491"/>
  <unicode hex="003D"/>
  <outline>
    <contour>
      <point x="37" y="454" type="line"/>
      <point x="37" y="397" type="line"/>
      <point x="454" y="397" type="line"/>
      <point x="454" y="454" type="line"/>
    </contour>
    <contour>
      <point x="37" y="248" type="line"/>
      <point x="37" y="191" type="line"/>
      <point x="454" y="191" type="line"/>
      <point x="454" y="248" type="line"/>
    </contour>
  </outline>
</glyph>
<glyph name="greater" format="1">
  <advance width="491"/>
  <unicode hex="003E"/>
  <outline>
    <contour>
      <point x="454" y="293" type="line"/>
      <point x="454" y="366" type="line"/>
      <point x="37" y="552" type="line"/>
      <point x="37" y="488" type="line"/>
      <point x="400" y="330" type="line"/>
      <point x="37" y="171" type="line"/>
      <point x="37" y="107" type="line"/>
    </contour>
  </outline>
</glyph>
<glyph name="question" format="1">
  <advance width="424"/>
  <unicode hex="003F"/>
  <outline>
    <contour>
      <point x="69" y="510" type="line"/>
      <point x="73" y="584"/>
      <point x="120" y="621"/>
      <point x="194" y="621" type="curve" smooth="yes"/>
      <point x="266" y="621"/>
      <point x="317" y="587"/>
      <point x="317" y="518" type="curve" smooth="yes"/>
      <point x="317" y="380"/>
      <point x="168" y="386"/>
      <point x="168" y="220" type="curve"/>
      <point x="230" y="220" type="line"/>
      <point x="230" y="366"/>
      <point x="390" y="365"/>
      <point x="390" y="528" type="curve" smooth="yes"/>
      <point x="390" y="635"/>
      <point x="311" y="689"/>
      <point x="201" y="689" type="curve" smooth="yes"/>
      <point x="86" y="689"/>
      <point x="11" y="625"/>
      <point x="6" y="511" type="curve"/>
    </contour>
    <contour>
      <point x="148" y="42" type="curve" smooth="yes"/>
      <point x="148" y="14"/>
      <point x="168" y="-7"/>
      <point x="195" y="-7" type="curve" smooth="yes"/>
      <point x="223" y="-7"/>
      <point x="243" y="14"/>
      <point x="243" y="42" type="curve" smooth="yes"/>
      <point x="243" y="71"/>
      <point x="223" y="92"/>
      <point x="195" y="92" type="curve" smooth="yes"/>
      <point x="168" y="92"/>
      <point x="148" y="71"/>
    </contour>
  </outline>
</glyph>
<glyph name="at" format="1">
  <advance width="986"/>
  <unicode hex="0040"/>
  <outline>
    <contour>
      <point x="40" y="265" type="curve" smooth="yes"/>
      <point x="40" y="20"/>
      <point x="230" y="-162"/>
      <point x="485" y="-162" type="curve" smooth="yes"/>
      <point x="554" y="-162"/>
      <point x="645" y="-138"/>
      <point x="701" y="-101" type="curve"/>
      <point x="673" y="-47" type="line"/>
      <point x="620" y="-82"/>
      <point x="543" y="-101"/>
      <point x="485" y="-101" type="curve" smooth="yes"/>
      <point x="265" y="-101"/>
      <point x="100" y="54"/>
      <point x="100" y="265" type="curve" smooth="yes"/>
      <point x="100" y="483"/>
      <point x="273" y="649"/>
      <point x="498" y="649" type="curve" smooth="yes"/>
      <point x="730" y="649"/>
      <point x="886" y="484"/>
      <point x="886" y="266" type="curve" smooth="yes"/>
      <point x="886" y="145"/>
      <point x="838" y="63"/>
      <point x="778" y="63" type="curve" smooth="yes"/>
      <point x="746" y="63"/>
      <point x="721" y="86"/>
      <point x="721" y="131" type="curve" smooth="yes"/>
      <point x="721" y="507" type="line"/>
      <point x="647" y="507" type="line"/>
      <point x="647" y="412" type="line"/>
      <point x="626" y="458"/>
      <point x="556" y="514"/>
      <point x="460" y="514" type="curve" smooth="yes"/>
      <point x="322" y="514"/>
      <point x="227" y="406"/>
      <point x="227" y="268" type="curve" smooth="yes"/>
      <point x="227" y="125"/>
      <point x="335" y="25"/>
      <point x="467" y="25" type="curve" smooth="yes"/>
      <point x="551" y="25"/>
      <point x="623" y="65"/>
      <point x="662" y="137" type="curve"/>
      <point x="664" y="101" type="line"/>
      <point x="670" y="41"/>
      <point x="713" y="9"/>
      <point x="771" y="9" type="curve" smooth="yes"/>
      <point x="875" y="9"/>
      <point x="946" y="111"/>
      <point x="946" y="268" type="curve" smooth="yes"/>
      <point x="946" y="523"/>
      <point x="756" y="708"/>
      <point x="498" y="708" type="curve" smooth="yes"/>
      <point x="238" y="708"/>
      <point x="40" y="518"/>
    </contour>
    <contour>
      <point x="642" y="271" type="curve" smooth="yes"/>
      <point x="642" y="172"/>
      <point x="574" y="96"/>
      <point x="474" y="96" type="curve" smooth="yes"/>
      <point x="375" y="96"/>
      <point x="306" y="173"/>
      <point x="306" y="271" type="curve" smooth="yes"/>
      <point x="306" y="368"/>
      <point x="375" y="442"/>
      <point x="472" y="442" type="curve" smooth="yes"/>
      <point x="573" y="442"/>
      <point x="642" y="368"/>
    </contour>
  </outline>
</glyph>
<glyph name="A" format="1">
  <advance width="718"/>
  <unicode hex="0041"/>
  <outline>
    <contour>
      <point x="754" y="10" type="move" name="ogonek"/>
    </contour>
    <contour>
      <point x="359" y="700" type="move" name="abvm"/>
    </contour>
    <contour>
      <point x="357.0" y="613" type="line"/>
      <point x="515.56444" y="253.0" type="line"/>
      <point x="199.02284" y="253.0" type="line"/>
    </contour>
    <contour>
      <point x="627" y="0" type="line"/>
      <point x="713.0" y="0" type="line"/>
      <point x="400.0" y="700.0" type="line"/>
      <point x="317" y="700.0" type="line"/>
      <point x="4" y="0" type="line"/>
      <point x="88.0" y="0" type="line"/>
      <point x="166.54976" y="179.0" type="line"/>
      <point x="548.15824" y="179.0" type="line"/>
    </contour>
  </outline>
</glyph>
<glyph name="B" format="1">
  <advance width="716"/>
  <unicode hex="0042"/>
  <outline>
    <contour>
      <point x="106" y="700" type="line"/>
      <point x="106" y="0" type="line"/>
      <point x="406" y="0" type="line" smooth="yes"/>
      <point x="564" y="0"/>
      <point x="658" y="71"/>
      <point x="658" y="190" type="curve" smooth="yes"/>
      <point x="658" y="286"/>
      <point x="599" y="352"/>
      <point x="498" y="367" type="curve"/>
      <point x="580" y="384"/>
      <point x="627" y="443"/>
      <point x="627" y="525" type="curve" smooth="yes"/>
      <point x="627" y="635"/>
      <point x="542" y="700"/>
      <point x="401" y="700" type="curve" smooth="yes"/>
    </contour>
    <contour>
      <point x="546" y="513" type="curve" smooth="yes"/>
      <point x="546" y="439"/>
      <point x="491" y="397"/>
      <point x="398" y="397" type="curve" smooth="yes"/>
      <point x="186" y="397" type="line"/>
      <point x="186" y="626" type="line"/>
      <point x="398" y="626" type="line" smooth="yes"/>
      <point x="491" y="626"/>
      <point x="546" y="585"/>
    </contour>
    <contour>
      <point x="577" y="200" type="curve" smooth="yes"/>
      <point x="577" y="119"/>
      <point x="511" y="74"/>
      <point x="398" y="74" type="curve" smooth="yes"/>
      <point x="186" y="74" type="line"/>
      <point x="186" y="323" type="line"/>
      <point x="398" y="323" type="line" smooth="yes"/>
      <point x="511" y="323"/>
      <point x="577" y="278"/>
    </contour>
  </outline>
</glyph>
<glyph name="C" format="1">
  <advance width="700"/>
  <unicode hex="0043"/>
  <outline>
    <contour>
      <point x="388" y="0" type="move" name="blwm"/>
    </contour>
    <contour>
      <point x="365" y="700" type="move" name="abvm"/>
    </contour>
    <contour>
      <point x="40" y="351" type="curve" smooth="yes"/>
      <point x="40" y="153"/>
      <point x="200" y="-3"/>
      <point x="402" y="-3" type="curve" smooth="yes"/>
      <point x="498" y="-3"/>
      <point x="593" y="38"/>
      <point x="661" y="103" type="curve"/>
      <point x="613" y="156" type="line"/>
      <point x="557" y="104"/>
      <point x="482" y="72"/>
      <point x="406" y="72" type="curve" smooth="yes"/>
      <point x="247" y="72"/>
      <point x="121" y="197"/>
      <point x="121" y="351" type="curve" smooth="yes"/>
      <point x="121" y="506"/>
      <point x="247" y="629"/>
      <point x="406" y="629" type="curve" smooth="yes"/>
      <point x="483" y="629"/>
      <point x="559" y="596"/>
      <point x="613" y="542" type="curve"/>
      <point x="660" y="600" type="line"/>
      <point x="594" y="663"/>
      <point x="501" y="702"/>
      <point x="405" y="702" type="curve" smooth="yes"/>
      <point x="201" y="702"/>
      <point x="40" y="547"/>
    </contour>
  </outline>
</glyph>
<glyph name="D" format="1">
  <advance width="789"/>
  <unicode hex="0044"/>
  <outline>
    <contour>
      <point x="393" y="350" type="move" name="center"/>
    </contour>
    <contour>
      <point x="373" y="700" type="move" name="abvm"/>
    </contour>
    <contour>
      <point x="106" y="700" type="line"/>
      <point x="106" y="0" type="line"/>
      <point x="386" y="0" type="line" smooth="yes"/>
      <point x="592" y="0"/>
      <point x="749" y="151"/>
      <point x="749" y="350" type="curve" smooth="yes"/>
      <point x="749" y="549"/>
      <point x="593" y="700"/>
      <point x="389" y="700" type="curve" smooth="yes"/>
    </contour>
    <contour>
      <point x="668" y="349" type="curve" smooth="yes"/>
      <point x="668" y="192"/>
      <point x="546" y="74"/>
      <point x="391" y="74" type="curve" smooth="yes"/>
      <point x="186" y="74" type="line"/>
      <point x="186" y="626" type="line"/>
      <point x="388" y="626" type="line" smooth="yes"/>
      <point x="544" y="626"/>
      <point x="668" y="507"/>
    </contour>
  </outline>
</glyph>
<glyph name="E" format="1">
  <advance width="651"/>
  <unicode hex="0045"/>
  <outline>
    <contour>
      <point x="328" y="0" type="move" name="blwm"/>
    </contour>
    <contour>
      <point x="592" y="10" type="move" name="ogonek"/>
    </contour>
    <contour>
      <point x="347" y="700" type="move" name="abvm"/>
    </contour>
    <contour>
      <point x="106" y="700" type="line"/>
      <point x="106" y="0" type="line"/>
      <point x="594" y="0" type="line"/>
      <point x="594" y="74" type="line"/>
      <point x="186" y="74" type="line"/>
      <point x="186" y="318" type="line"/>
      <point x="539" y="318" type="line"/>
      <point x="539" y="391" type="line"/>
      <point x="186" y="391" type="line"/>
      <point x="186" y="626" type="line"/>
      <point x="581" y="626" type="line"/>
      <point x="581" y="700" type="line"/>
    </contour>
  </outline>
</glyph>
<glyph name="F" format="1">
  <advance width="563"/>
  <unicode hex="0046"/>
  <outline>
    <contour>
      <point x="106" y="700" type="line"/>
      <point x="106" y="0" type="line"/>
      <point x="186" y="0" type="line"/>
      <point x="186" y="302" type="line"/>
      <point x="513" y="302" type="line"/>
      <point x="513" y="375" type="line"/>
      <point x="186" y="375" type="line"/>
      <point x="186" y="626" type="line"/>
      <point x="551" y="626" type="line"/>
      <point x="551" y="700" type="line"/>
    </contour>
  </outline>
</glyph>
<glyph name="G" format="1">
  <advance width="753"/>
  <unicode hex="0047"/>
  <outline>
    <contour>
      <point x="384" y="0" type="move" name="blwm"/>
    </contour>
    <contour>
      <point x="384" y="700" type="move" name="abvm"/>
    </contour>
    <contour>
      <point x="664" y="88" type="curve"/>
      <point x="665" y="88.0" type="line"/>
      <point x="665" y="342" type="line"/>
      <point x="594" y="342" type="line"/>
      <point x="594" y="129.41286" type="line"/>
      <point x="540.190608442" y="92.0027932169"/>
      <point x="473.45722871" y="70.0"/>
      <point x="409.0" y="70.0" type="curve" smooth="yes"/>
      <point x="249" y="70"/>
      <point x="121" y="194"/>
      <point x="121" y="350" type="curve" smooth="yes"/>
      <point x="121" y="505"/>
      <point x="249" y="629"/>
      <point x="409" y="629" type="curve" smooth="yes"/>
      <point x="487" y="629"/>
      <point x="564" y="599"/>
      <point x="621" y="548" type="curve"/>
      <point x="667" y="606" type="line"/>
      <point x="599" y="665"/>
      <point x="506" y="702"/>
      <point x="409" y="702" type="curve" smooth="yes"/>
      <point x="203" y="702"/>
      <point x="40" y="547"/>
      <point x="40" y="350" type="curve" smooth="yes"/>
      <point x="40" y="153"/>
      <point x="201" y="-3"/>
      <point x="405" y="-3" type="curve" smooth="yes"/>
      <point x="499" y="-3"/>
      <point x="596" y="33"/>
    </contour>
  </outline>
</glyph>
<glyph name="H" format="1">
  <advance width="794"/>
  <unicode hex="0048"/>
  <outline>
    <contour>
      <point x="397" y="350" type="move" name="center"/>
    </contour>
    <contour>
      <point x="400" y="700" type="move" name="abvm"/>
    </contour>
    <contour>
      <point x="608" y="700" type="line"/>
      <point x="608" y="383" type="line"/>
      <point x="186" y="383" type="line"/>
      <point x="186" y="700" type="line"/>
      <point x="106" y="700" type="line"/>
      <point x="106" y="0" type="line"/>
      <point x="186" y="0" type="line"/>
      <point x="186" y="310" type="line"/>
      <point x="608" y="310" type="line"/>
      <point x="608" y="0" type="line"/>
      <point x="688" y="0" type="line"/>
      <point x="688" y="700" type="line"/>
    </contour>
  </outline>
</glyph>
<glyph name="I" format="1">
  <advance width="292"/>
  <unicode hex="0049"/>
  <outline>
    <contour>
      <point x="232" y="10" type="move" name="ogonek"/>
    </contour>
    <contour>
      <point x="146" y="700" type="move" name="abvm"/>
    </contour>
    <contour>
      <point x="106" y="700" type="line"/>
      <point x="106" y="0" type="line"/>
      <point x="186" y="0" type="line"/>
      <point x="186" y="700" type="line"/>
    </contour>
  </outline>
</glyph>
<glyph name="J" format="1">
  <advance width="483"/>
  <unicode hex="004A"/>
  <outline>
    <contour>
      <point x="225" y="700" type="move" name="abvm"/>
    </contour>
    <contour>
      <point x="63" y="700" type="line"/>
      <point x="63" y="626" type="line"/>
      <point x="313" y="626" type="line"/>
      <point x="313" y="211" type="line"/>
      <point x="313" y="123"/>
      <point x="269" y="76"/>
      <point x="193" y="76" type="curve"/>
      <point x="139" y="76"/>
      <point x="84" y="105"/>
      <point x="40" y="158" type="curve"/>
      <point x="0" y="96" type="line"/>
      <point x="49" y="33"/>
      <point x="116" y="-3"/>
      <point x="193" y="-3" type="curve"/>
      <point x="319" y="-3"/>
      <point x="394" y="73"/>
      <point x="394" y="209" type="curve"/>
      <point x="394" y="700" type="line"/>
    </contour>
  </outline>
</glyph>
<glyph name="K" format="1">
  <advance width="699"/>
  <unicode hex="004B"/>
  <outline>
    <contour>
      <point x="346" y="0" type="move" name="blwm"/>
    </contour>
    <contour>
      <point x="346" y="700" type="move" name="abvm"/>
    </contour>
    <contour>
      <point x="186.0" y="183.0" type="line"/>
      <point x="322.40498" y="332.72691" type="line"/>
      <point x="580" y="0" type="line"/>
      <point x="677" y="0" type="line"/>
      <point x="378.83103" y="394.66378" type="line"/>
      <point x="657" y="700.0" type="line"/>
      <point x="562" y="700.0" type="line"/>
      <point x="186.0" y="293" type="line"/>
      <point x="186.0" y="700.0" type="line"/>
      <point x="106.0" y="700.0" type="line"/>
      <point x="106.0" y="0" type="line"/>
      <point x="186.0" y="0" type="line"/>
    </contour>
  </outline>
</glyph>
<glyph name="L" format="1">
  <advance width="517"/>
  <unicode hex="004C"/>
  <outline>
    <contour>
      <point x="289" y="0" type="move" name="blwm"/>
    </contour>
    <contour>
      <point x="151" y="700" type="move" name="abvm"/>
    </contour>
    <contour>
      <point x="106" y="700" type="line"/>
      <point x="106" y="0" type="line"/>
      <point x="493" y="0" type="line"/>
      <point x="493" y="74" type="line"/>
      <point x="186" y="74" type="line"/>
      <point x="186" y="700" type="line"/>
    </contour>
  </outline>
</glyph>
<glyph name="M" format="1">
  <advance width="921"/>
  <unicode hex="004D"/>
  <outline>
    <contour>
      <point x="716" y="700" type="line"/>
      <point x="461" y="192" type="line" smooth="yes"/>
      <point x="205" y="700" type="line"/>
      <point x="106" y="700" type="line"/>
      <point x="106" y="0" type="line"/>
      <point x="182" y="0" type="line"/>
      <point x="182" y="582" type="line"/>
      <point x="436" y="74" type="line"/>
      <point x="484" y="74" type="line"/>
      <point x="739" y="582" type="line"/>
      <point x="740" y="0" type="line"/>
      <point x="814" y="0" type="line"/>
      <point x="814" y="700" type="line"/>
    </contour>
  </outline>
</glyph>
<glyph name="N" format="1">
  <advance width="795"/>
  <unicode hex="004E"/>
  <outline>
    <contour>
      <point x="398" y="0" type="move" name="blwm"/>
    </contour>
    <contour>
      <point x="398" y="700" type="move" name="abvm"/>
    </contour>
    <contour>
      <point x="609" y="700" type="line"/>
      <point x="609" y="131" type="line"/>
      <point x="189" y="700" type="line"/>
      <point x="106" y="700" type="line"/>
      <point x="106" y="0" type="line"/>
      <point x="186" y="0" type="line"/>
      <point x="186" y="568" type="line"/>
      <point x="606" y="0" type="line"/>
      <point x="688" y="0" type="line"/>
      <point x="688" y="700" type="line"/>
    </contour>
  </outline>
</glyph>
<glyph name="O" format="1">
  <advance width="813"/>
  <unicode hex="004F"/>
  <outline>
    <contour>
      <point x="404" y="700" type="move" name="abvm"/>
    </contour>
    <contour>
      <point x="40" y="350" type="curve" smooth="yes"/>
      <point x="40" y="153"/>
      <point x="202" y="-3"/>
      <point x="406" y="-3" type="curve" smooth="yes"/>
      <point x="611" y="-3"/>
      <point x="773" y="153"/>
      <point x="773" y="350" type="curve" smooth="yes"/>
      <point x="773" y="547"/>
      <point x="611" y="702"/>
      <point x="406" y="702" type="curve" smooth="yes"/>
      <point x="202" y="702"/>
      <point x="40" y="547"/>
    </contour>
    <contour>
      <point x="691" y="350" type="curve" smooth="yes"/>
      <point x="691" y="195"/>
      <point x="563" y="70"/>
      <point x="407" y="70" type="curve" smooth="yes"/>
      <point x="251" y="70"/>
      <point x="121" y="195"/>
      <point x="121" y="350" type="curve" smooth="yes"/>
      <point x="121" y="505"/>
      <point x="250" y="628"/>
      <point x="407" y="628" type="curve" smooth="yes"/>
      <point x="563" y="628"/>
      <point x="691" y="505"/>
    </contour>
  </outline>
</glyph>
<glyph name="P" format="1">
  <advance width="669"/>
  <unicode hex="0050"/>
  <outline>
    <contour>
      <point x="106" y="700" type="line"/>
      <point x="106" y="0" type="line"/>
      <point x="186" y="0" type="line"/>
      <point x="186" y="222" type="line"/>
      <point x="369" y="222" type="line" smooth="yes"/>
      <point x="542" y="222"/>
      <point x="642" y="311"/>
      <point x="642" y="465" type="curve" smooth="yes"/>
      <point x="642" y="614"/>
      <point x="542" y="700"/>
      <point x="369" y="700" type="curve" smooth="yes"/>
    </contour>
    <contour>
      <point x="566" y="463" type="curve" smooth="yes"/>
      <point x="566" y="353"/>
      <point x="493" y="296"/>
      <point x="366" y="296" type="curve" smooth="yes"/>
      <point x="186" y="296" type="line"/>
      <point x="186" y="626" type="line"/>
      <point x="366" y="626" type="line" smooth="yes"/>
      <point x="493" y="626"/>
      <point x="566" y="570"/>
    </contour>
  </outline>
</glyph>
<glyph name="Q" format="1">
  <advance width="830"/>
  <unicode hex="0051"/>
  <outline>
    <contour>
      <point x="635" y="-143" type="curve" smooth="yes"/>
      <point x="696" y="-143"/>
      <point x="760" y="-116"/>
      <point x="814" y="-66" type="curve"/>
      <point x="779.0" y="-9" type="line"/>
      <point x="732" y="-49"/>
      <point x="685" y="-72"/>
      <point x="644" y="-72" type="curve" smooth="yes"/>
      <point x="596.258718442" y="-72.0"/>
      <point x="549.299065815" y="-43.861358459"/>
      <point x="499.66586" y="8.27869" type="curve"/>
      <point x="658.23738382" y="47.4262191181"/>
      <point x="773.0" y="184.190679734"/>
      <point x="773.0" y="350.0" type="curve" smooth="yes"/>
      <point x="773" y="547"/>
      <point x="611" y="702"/>
      <point x="406" y="702" type="curve" smooth="yes"/>
      <point x="202" y="702"/>
      <point x="40" y="547"/>
      <point x="40" y="350" type="curve" smooth="yes"/>
      <point x="40" y="153"/>
      <point x="202" y="-3"/>
      <point x="406" y="-3" type="curve" smooth="yes"/>
      <point x="408.936771342" y="-3.0"/>
      <point x="411.864717962" y="-2.96798473189"/>
      <point x="414.78349" y="-2.89411" type="curve"/>
      <point x="477" y="-91"/>
      <point x="553" y="-143"/>
    </contour>
    <contour>
      <point x="691" y="350" type="curve" smooth="yes"/>
      <point x="691" y="195"/>
      <point x="563" y="70"/>
      <point x="407" y="70" type="curve" smooth="yes"/>
      <point x="251" y="70"/>
      <point x="121" y="195"/>
      <point x="121" y="350" type="curve" smooth="yes"/>
      <point x="121" y="505"/>
      <point x="250" y="628"/>
      <point x="407" y="628" type="curve" smooth="yes"/>
      <point x="563" y="628"/>
      <point x="691" y="505"/>
    </contour>
  </outline>
</glyph>
<glyph name="R" format="1">
  <advance width="723"/>
  <unicode hex="0052"/>
  <outline>
    <contour>
      <point x="360" y="0" type="move" name="blwm"/>
    </contour>
    <contour>
      <point x="350" y="700" type="move" name="abvm"/>
    </contour>
    <contour>
      <point x="572" y="463" type="curve" smooth="yes"/>
      <point x="572" y="353"/>
      <point x="499" y="296"/>
      <point x="372" y="296" type="curve" smooth="yes"/>
      <point x="186" y="296" type="line"/>
      <point x="186" y="626" type="line"/>
      <point x="372" y="626" type="line" smooth="yes"/>
      <point x="499" y="626"/>
      <point x="572" y="570"/>
    </contour>
    <contour>
      <point x="186.0" y="222.0" type="line"/>
      <point x="372.0" y="222.0" type="line" smooth="yes"/>
      <point x="387.764427704" y="222.0"/>
      <point x="402.928356751" y="222.722221358"/>
      <point x="417.47205" y="224.15288" type="curve"/>
      <point x="564" y="0" type="line"/>
      <point x="655" y="0" type="line"/>
      <point x="489.7607" y="238.57584" type="line"/>
      <point x="591.486640224" y="270.978939733"/>
      <point x="648.0" y="349.80447786"/>
      <point x="648.0" y="465.0" type="curve" smooth="yes"/>
      <point x="648" y="614"/>
      <point x="547" y="700"/>
      <point x="372" y="700" type="curve" smooth="yes"/>
      <point x="106.0" y="700.0" type="line"/>
      <point x="106.0" y="0" type="line"/>
      <point x="186.0" y="0" type="line"/>
    </contour>
  </outline>
</glyph>
<glyph name="S" format="1">
  <advance width="611"/>
  <unicode hex="0053"/>
  <outline>
    <contour>
      <point x="309" y="0" type="move" name="blwm"/>
    </contour>
    <contour>
      <point x="307" y="700" type="move" name="abvm"/>
    </contour>
    <contour>
      <point x="72" y="523" type="curve"/>
      <point x="72" y="272"/>
      <point x="466" y="371"/>
      <point x="465" y="184" type="curve"/>
      <point x="465" y="116"/>
      <point x="402" y="75"/>
      <point x="301" y="75" type="curve"/>
      <point x="222" y="75"/>
      <point x="133" y="111"/>
      <point x="69" y="173" type="curve"/>
      <point x="32" y="104" type="line"/>
      <point x="99" y="41"/>
      <point x="198" y="-3"/>
      <point x="300" y="-3" type="curve"/>
      <point x="450" y="-3"/>
      <point x="553" y="72"/>
      <point x="553" y="188" type="curve"/>
      <point x="555" y="442"/>
      <point x="160" y="347"/>
      <point x="160" y="529" type="curve"/>
      <point x="160" y="589"/>
      <point x="219" y="625"/>
      <point x="309" y="625" type="curve"/>
      <point x="365" y="625"/>
      <point x="439" y="608"/>
      <point x="503" y="567" type="curve"/>
      <point x="536" y="638" type="line"/>
      <point x="478" y="677"/>
      <point x="395" y="703"/>
      <point x="314" y="703" type="curve"/>
      <point x="169" y="703"/>
      <point x="72" y="633"/>
    </contour>
  </outline>
</glyph>
<glyph name="T" format="1">
  <advance width="558"/>
  <unicode hex="0054"/>
  <outline>
    <contour>
      <point x="265" y="0" type="move" name="blwm"/>
    </contour>
    <contour>
      <point x="275" y="350" type="move" name="center"/>
    </contour>
    <contour>
      <point x="284" y="700" type="move" name="abvm"/>
    </contour>
    <contour>
      <point x="11" y="700" type="line"/>
      <point x="11" y="626" type="line"/>
      <point x="239" y="626" type="line"/>
      <point x="239" y="0" type="line"/>
      <point x="319" y="0" type="line"/>
      <point x="319" y="626" type="line"/>
      <point x="548" y="626" type="line"/>
      <point x="548" y="700" type="line"/>
    </contour>
  </outline>
</glyph>
<glyph name="U" format="1">
  <advance width="768"/>
  <unicode hex="0055"/>
  <outline>
    <contour>
      <point x="537" y="10" type="move" name="ogonek"/>
    </contour>
    <contour>
      <point x="384" y="700" type="move" name="abvm"/>
    </contour>
    <contour>
      <point x="598" y="700" type="line"/>
      <point x="598" y="288" type="line"/>
      <point x="598" y="150"/>
      <point x="518" y="70"/>
      <point x="385" y="70" type="curve"/>
      <point x="251" y="70"/>
      <point x="170" y="150"/>
      <point x="170" y="288" type="curve"/>
      <point x="170" y="700" type="line"/>
      <point x="90" y="700" type="line"/>
      <point x="90" y="288" type="line"/>
      <point x="90" y="105"/>
      <point x="201" y="-3"/>
      <point x="384" y="-3" type="curve"/>
      <point x="568" y="-3"/>
      <point x="678" y="105"/>
      <point x="678" y="288" type="curve"/>
      <point x="678" y="700" type="line"/>
    </contour>
  </outline>
</glyph>
<glyph name="W" format="1">
  <advance width="1017"/>
  <unicode hex="0057"/>
  <outline>
    <contour>
      <point x="513" y="700" type="move" name="abvm"/>
    </contour>
    <contour>
      <point x="936" y="700" type="line"/>
      <point x="746" y="90" type="line"/>
      <point x="554" y="700" type="line"/>
      <point x="474" y="700" type="line"/>
      <point x="284" y="90" type="line"/>
      <point x="92" y="700" type="line"/>
      <point x="6" y="700" type="line"/>
      <point x="240" y="0" type="line"/>
      <point x="323" y="0" type="line"/>
      <point x="513" y="593" type="line"/>
      <point x="702" y="0" type="line"/>
      <point x="785" y="0" type="line"/>
      <point x="1019" y="700" type="line"/>
    </contour>
  </outline>
</glyph>
<glyph name="X" format="1">
  <advance width="665"/>
  <unicode hex="0058"/>
  <outline>
    <contour>
      <point x="522" y="700" type="line"/>
      <point x="327" y="427" type="line"/>
      <point x="133" y="700" type="line"/>
      <point x="40" y="700" type="line"/>
      <point x="279" y="360" type="line"/>
      <point x="22" y="0" type="line"/>
      <point x="116" y="0" type="line"/>
      <point x="327" y="295" type="line"/>
      <point x="540" y="0" type="line"/>
      <point x="636" y="0" type="line"/>
      <point x="378" y="364" type="line"/>
      <point x="616" y="700" type="line"/>
    </contour>
  </outline>
</glyph>
<glyph name="Y" format="1">
  <advance width="625"/>
  <unicode hex="0059"/>
  <outline>
    <contour>
      <point x="312" y="700" type="move" name="abvm"/>
    </contour>
    <contour>
      <point x="355.0" y="0" type="line"/>
      <point x="355.0" y="245.08333" type="line"/>
      <point x="620" y="700.0" type="line"/>
      <point x="537" y="700.0" type="line"/>
      <point x="314" y="333" type="line"/>
      <point x="86" y="700.0" type="line"/>
      <point x="4" y="700.0" type="line"/>
      <point x="275" y="239.38944" type="line"/>
      <point x="275" y="0" type="line"/>
    </contour>
  </outline>
</glyph>
<glyph name="Z" format="1">
  <advance width="660"/>
  <unicode hex="005A"/>
  <outline>
    <contour>
      <point x="335" y="700" type="move" name="abvm"/>
    </contour>
    <contour>
      <point x="56" y="700" type="line"/>
      <point x="56" y="626" type="line"/>
      <point x="507" y="626" type="line"/>
      <point x="43" y="62" type="line"/>
      <point x="43" y="0" type="line"/>
      <point x="616" y="0" type="line"/>
      <point x="617" y="74" type="line"/>
      <point x="148" y="74" type="line"/>
      <point x="612" y="638" type="line"/>
      <point x="612" y="700" type="line"/>
    </contour>
  </outline>
</glyph>
<glyph name="bracketleft" format="1">
  <advance width="334"/>
  <unicode hex="005B"/>
  <outline>
    <contour>
      <point x="106" y="742" type="line"/>
      <point x="106" y="-124" type="line"/>
      <point x="302" y="-124" type="line"/>
      <point x="302" y="-59" type="line"/>
      <point x="177" y="-59" type="line"/>
      <point x="177" y="677" type="line"/>
      <point x="302" y="677" type="line"/>
      <point x="302" y="742" type="line"/>
    </contour>
  </outline>
</glyph>
<glyph name="backslash" format="1">
  <advance width="316"/>
  <unicode hex="005C"/>
  <outline>
    <contour>
      <point x="-53" y="820" type="line"/>
      <point x="259" y="-122" type="line"/>
      <point x="327" y="-122" type="line"/>
      <point x="14" y="820" type="line"/>
    </contour>
  </outline>
</glyph>
<glyph name="bracketright" format="1">
  <advance width="361"/>
  <unicode hex="005D"/>
  <outline>
    <contour>
      <point x="59" y="742" type="line"/>
      <point x="59" y="677" type="line"/>
      <point x="184" y="677" type="line"/>
      <point x="184" y="-59" type="line"/>
      <point x="59" y="-59" type="line"/>
      <point x="59" y="-124" type="line"/>
      <point x="255" y="-124" type="line"/>
      <point x="255" y="742" type="line"/>
    </contour>
  </outline>
</glyph>
<glyph name="asciicircum" format="1">
  <advance width="519"/>
  <unicode hex="005E"/>
  <outline>
    <contour>
      <point x="296" y="527" type="line"/>
      <point x="223" y="527" type="line"/>
      <point x="37" y="130" type="line"/>
      <point x="101" y="130" type="line"/>
      <point x="259" y="475" type="line"/>
      <point x="418" y="130" type="line"/>
      <point x="482" y="130" type="line"/>
    </contour>
  </outline>
</glyph>
<glyph name="underscore" format="1">
  <advance width="555"/>
  <unicode hex="005F"/>
  <outline>
    <contour>
      <point x="0" y="-153" type="line"/>
      <point x="0" y="-204" type="line"/>
      <point x="555" y="-204" type="line"/>
      <point x="555" y="-153" type="line"/>
    </contour>
  </outline>
</glyph>
<glyph name="grave" format="1">
  <advance width="350"/>
  <unicode hex="0060"/>
  <outline>
    <contour>
      <point x="221" y="526" type="move" name="_abvm"/>
    </contour>
    <contour>
      <point x="71" y="714" type="line"/>
      <point x="196" y="615" type="line"/>
      <point x="271" y="615" type="line"/>
      <point x="151" y="750" type="line"/>
    </contour>
  </outline>
</glyph>
<glyph name="a" format="1">
  <advance width="577"/>
  <unicode hex="0061"/>
  <outline>
    <contour>
      <point x="530" y="10" type="move" name="ogonek"/>
    </contour>
    <contour>
      <point x="284" y="526" type="move" name="abvm"/>
    </contour>
    <contour>
      <point x="245" y="62" type="curve"/>
      <point x="170" y="62"/>
      <point x="124" y="101"/>
      <point x="124" y="159" type="curve"/>
      <point x="124" y="218"/>
      <point x="169" y="245"/>
      <point x="258" y="245" type="curve"/>
      <point x="420.55882" y="245.0" type="line"/>
      <point x="420.93799" y="180.54135" type="line"/>
      <point x="405" y="108"/>
      <point x="336" y="62"/>
    </contour>
    <contour>
      <point x="422.0" y="0" type="line"/>
      <point x="498.0" y="0" type="line"/>
      <point x="497.0" y="348.0" type="line"/>
      <point x="496" y="460"/>
      <point x="424" y="529"/>
      <point x="294" y="529" type="curve"/>
      <point x="204" y="529"/>
      <point x="147" y="503"/>
      <point x="79" y="458" type="curve"/>
      <point x="112.0" y="403.0" type="line"/>
      <point x="167" y="442"/>
      <point x="221" y="464"/>
      <point x="279" y="464" type="curve"/>
      <point x="372" y="464"/>
      <point x="420" y="417"/>
      <point x="420" y="340" type="curve"/>
      <point x="420.19412" y="307" type="line"/>
      <point x="248.0" y="307" type="line"/>
      <point x="123" y="306"/>
      <point x="50" y="248"/>
      <point x="50" y="156" type="curve"/>
      <point x="50" y="66"/>
      <point x="120" y="-3"/>
      <point x="230" y="-3" type="curve"/>
      <point x="313.071902131" y="-3.0"/>
      <point x="380.653476712" y="24.460126112"/>
      <point x="421.5191" y="81.75287" type="curve"/>
    </contour>
  </outline>
</glyph>
<glyph name="b" format="1">
  <advance width="676"/>
  <unicode hex="0062"/>
  <outline>
    <contour>
      <point x="383.0" y="-3.0" type="curve" smooth="yes"/>
      <point x="532" y="-3"/>
      <point x="634" y="106"/>
      <point x="634" y="262" type="curve" smooth="yes"/>
      <point x="634" y="419"/>
      <point x="530" y="529"/>
      <point x="382" y="529" type="curve" smooth="yes"/>
      <point x="289.247101825" y="529.0"/>
      <point x="217.238561578" y="486.266622669"/>
      <point x="178.0" y="412.01726" type="curve"/>
      <point x="178.0" y="742.0" type="line"/>
      <point x="100.0" y="742.0" type="line"/>
      <point x="100.0" y="0" type="line"/>
      <point x="178.0" y="0" type="line"/>
      <point x="178.0" y="113.51571" type="line"/>
      <point x="217.15171525" y="40.0017323795"/>
      <point x="289.118685432" y="-3.0"/>
    </contour>
    <contour>
      <point x="556" y="264" type="curve" smooth="yes"/>
      <point x="556" y="149"/>
      <point x="477" y="66"/>
      <point x="367" y="66" type="curve" smooth="yes"/>
      <point x="257" y="66"/>
      <point x="178" y="148"/>
      <point x="178" y="264" type="curve" smooth="yes"/>
      <point x="178" y="379"/>
      <point x="257" y="462"/>
      <point x="367" y="462" type="curve" smooth="yes"/>
      <point x="477" y="462"/>
      <point x="556" y="378"/>
    </contour>
  </outline>
</glyph>
<glyph name="c" format="1">
  <advance width="561"/>
  <unicode hex="0063"/>
  <outline>
    <contour>
      <point x="289" y="0" type="move" name="blwm"/>
    </contour>
    <contour>
      <point x="284" y="526" type="move" name="abvm"/>
    </contour>
    <contour>
      <point x="42" y="263" type="curve" smooth="yes"/>
      <point x="42" y="106"/>
      <point x="151" y="-3"/>
      <point x="303" y="-3" type="curve" smooth="yes"/>
      <point x="394" y="-3"/>
      <point x="467" y="31"/>
      <point x="514" y="88" type="curve"/>
      <point x="470" y="134" type="line"/>
      <point x="432" y="90"/>
      <point x="375" y="66"/>
      <point x="307" y="66" type="curve" smooth="yes"/>
      <point x="198" y="66"/>
      <point x="120" y="146"/>
      <point x="120" y="263" type="curve" smooth="yes"/>
      <point x="120" y="379"/>
      <point x="198" y="459"/>
      <point x="307" y="459" type="curve" smooth="yes"/>
      <point x="371" y="459"/>
      <point x="423" y="436"/>
      <point x="463" y="397" type="curve"/>
      <point x="506" y="451" type="line"/>
      <point x="459" y="500"/>
      <point x="389" y="529"/>
      <point x="304" y="529" type="curve" smooth="yes"/>
      <point x="151" y="529"/>
      <point x="42" y="419"/>
    </contour>
  </outline>
</glyph>
<glyph name="e" format="1">
  <advance width="588"/>
  <unicode hex="0065"/>
  <outline>
    <contour>
      <point x="298" y="0" type="move" name="blwm"/>
    </contour>
    <contour>
      <point x="521" y="10" type="move" name="ogonek"/>
    </contour>
    <contour>
      <point x="297" y="526" type="move" name="abvm"/>
    </contour>
    <contour>
      <point x="304.0" y="464.0" type="curve" smooth="yes"/>
      <point x="407" y="464"/>
      <point x="474" y="398"/>
      <point x="480" y="296" type="curve"/>
      <point x="119.60597" y="296" type="line"/>
      <point x="131.10073592" y="397.799727149"/>
      <point x="203.304739625" y="464.0"/>
    </contour>
    <contour>
      <point x="516" y="84" type="curve"/>
      <point x="473.0" y="129" type="line"/>
      <point x="433" y="86"/>
      <point x="375" y="62"/>
      <point x="310" y="62" type="curve" smooth="yes"/>
      <point x="208.352368731" y="62.0"/>
      <point x="133.062494968" y="129.541753611"/>
      <point x="120.01257" y="234.0" type="curve"/>
      <point x="549" y="234.0" type="line"/>
      <point x="557" y="412"/>
      <point x="474" y="529"/>
      <point x="303" y="529" type="curve" smooth="yes"/>
      <point x="151" y="528"/>
      <point x="42" y="420"/>
      <point x="42" y="263" type="curve" smooth="yes"/>
      <point x="42" y="106"/>
      <point x="149" y="-3"/>
      <point x="305" y="-3" type="curve" smooth="yes"/>
      <point x="392" y="-3"/>
      <point x="466" y="29"/>
    </contour>
  </outline>
</glyph>
<glyph name="f" format="1">
  <advance width="324"/>
  <unicode hex="0066"/>
  <outline>
    <contour>
      <point x="339" y="449.0" type="line"/>
      <point x="339" y="510.0" type="line"/>
      <point x="188.0" y="510.0" type="line"/>
      <point x="188.0" y="579" type="line"/>
      <point x="188" y="641"/>
      <point x="230" y="676"/>
      <point x="281" y="675" type="curve"/>
      <point x="309" y="675"/>
      <point x="338" y="665"/>
      <point x="361" y="648" type="curve"/>
      <point x="393.0" y="708.0" type="line"/>
      <point x="361" y="732"/>
      <point x="320" y="745"/>
      <point x="280" y="745" type="curve"/>
      <point x="192" y="746"/>
      <point x="111" y="683"/>
      <point x="111" y="569" type="curve"/>
      <point x="111.0" y="510.0" type="line"/>
      <point x="43" y="510.0" type="line"/>
      <point x="43" y="449.0" type="line"/>
      <point x="111.0" y="449.0" type="line"/>
      <point x="111.0" y="0" type="line"/>
      <point x="188.0" y="0" type="line"/>
      <point x="188.0" y="449.0" type="line"/>
    </contour>
  </outline>
</glyph>
<glyph name="g" format="1">
  <advance width="636"/>
  <unicode hex="0067"/>
  <outline>
    <contour>
      <point x="318" y="526" type="move" name="abvm"/>
    </contour>
    <contour>
      <point x="476" y="275" type="curve" smooth="yes"/>
      <point x="476" y="166"/>
      <point x="401" y="87"/>
      <point x="296" y="87" type="curve" smooth="yes"/>
      <point x="190" y="87"/>
      <point x="116" y="166"/>
      <point x="115" y="275" type="curve" smooth="yes"/>
      <point x="116" y="385"/>
      <point x="190" y="464"/>
      <point x="296" y="464" type="curve" smooth="yes"/>
      <point x="401" y="464"/>
      <point x="476" y="385"/>
    </contour>
    <contour>
      <point x="289" y="-196" type="curve" smooth="yes"/>
      <point x="449" y="-196"/>
      <point x="553" y="-99"/>
      <point x="553" y="55" type="curve"/>
      <point x="553" y="526" type="line"/>
      <point x="476.0" y="526" type="line"/>
      <point x="476.0" y="419.86541" type="line"/>
      <point x="438.105244803" y="489.440268715"/>
      <point x="369.466266708" y="529.639044762"/>
      <point x="280.0" y="529.0" type="curve" smooth="yes"/>
      <point x="140" y="528"/>
      <point x="42" y="425"/>
      <point x="42" y="277" type="curve" smooth="yes"/>
      <point x="42" y="128"/>
      <point x="140" y="23"/>
      <point x="282" y="23" type="curve" smooth="yes"/>
      <point x="370.55652699" y="23.0"/>
      <point x="438.412511457" y="63.1834060757"/>
      <point x="476.0" y="132.17841" type="curve"/>
      <point x="476.0" y="53.0" type="line"/>
      <point x="476" y="-58"/>
      <point x="401" y="-129"/>
      <point x="286" y="-129" type="curve" smooth="yes"/>
      <point x="216" y="-128"/>
      <point x="160" y="-105"/>
      <point x="108" y="-62" type="curve"/>
      <point x="73" y="-119.0" type="line"/>
      <point x="136" y="-168"/>
      <point x="206" y="-195"/>
    </contour>
  </outline>
</glyph>
<glyph name="h" format="1">
  <advance width="662"/>
  <unicode hex="0068"/>
  <outline>
    <contour>
      <point x="601" y="0" type="move" name="blwm"/>
    </contour>
    <contour>
      <point x="332" y="264" type="move" name="center"/>
    </contour>
    <contour>
      <point x="138" y="742" type="move" name="abvm"/>
    </contour>
    <contour>
      <point x="246" y="528" type="move" name="topright"/>
    </contour>
    <contour>
      <point x="178.0" y="258" type="line"/>
      <point x="178" y="373"/>
      <point x="244" y="453"/>
      <point x="356" y="454" type="curve"/>
      <point x="449" y="454"/>
      <point x="505" y="398"/>
      <point x="505" y="304" type="curve"/>
      <point x="505.0" y="0" type="line" smooth="yes"/>
      <point x="583" y="0" type="line"/>
      <point x="583" y="324" type="line"/>
      <point x="583" y="452"/>
      <point x="509" y="529"/>
      <point x="383" y="529" type="curve"/>
      <point x="285.990050896" y="527.652639596"/>
      <point x="214.395422616" y="489.543832999"/>
      <point x="178.0" y="407.91505" type="curve"/>
      <point x="178.0" y="742.0" type="line"/>
      <point x="100.0" y="742.0" type="line"/>
      <point x="100.0" y="0" type="line"/>
      <point x="178.0" y="0" type="line"/>
    </contour>
  </outline>
</glyph>
<glyph name="i" format="1">
  <advance width="267"/>
  <unicode hex="0069"/>
  <outline>
    <contour>
      <point x="133" y="526" type="move" name="_abvm"/>
    </contour>
    <contour>
      <point x="226" y="10" type="move" name="ogonek"/>
    </contour>
    <contour>
      <point x="133" y="526" type="move" name="abvm"/>
    </contour>
    <contour>
      <point x="82" y="677" type="curve" smooth="yes"/>
      <point x="82" y="647"/>
      <point x="104" y="624"/>
      <point x="133" y="624" type="curve" smooth="yes"/>
      <point x="162" y="624"/>
      <point x="184" y="647"/>
      <point x="184" y="677" type="curve" smooth="yes"/>
      <point x="184" y="708"/>
      <point x="162" y="730"/>
      <point x="133" y="730" type="curve" smooth="yes"/>
      <point x="104" y="730"/>
      <point x="82" y="708"/>
    </contour>
    <contour>
      <point x="95" y="526" type="line"/>
      <point x="95" y="0" type="line"/>
      <point x="172" y="0" type="line"/>
      <point x="172" y="526" type="line"/>
    </contour>
  </outline>
</glyph>
<glyph name="j" format="1">
  <advance width="267"/>
  <unicode hex="006A"/>
  <outline>
    <contour>
      <point x="78" y="677" type="curve" smooth="yes"/>
      <point x="78" y="647"/>
      <point x="101" y="624"/>
      <point x="131" y="624" type="curve" smooth="yes"/>
      <point x="162" y="624"/>
      <point x="184" y="647"/>
      <point x="184" y="677" type="curve" smooth="yes"/>
      <point x="184" y="708"/>
      <point x="162" y="731"/>
      <point x="131" y="731" type="curve" smooth="yes"/>
      <point x="101" y="731"/>
      <point x="78" y="708"/>
    </contour>
    <contour>
      <point x="92" y="526" type="line"/>
      <point x="92" y="-30" type="line"/>
      <point x="92" y="-96"/>
      <point x="62" y="-127"/>
      <point x="16" y="-126" type="curve"/>
      <point x="-10" y="-126"/>
      <point x="-37" y="-116"/>
      <point x="-60" y="-99" type="curve"/>
      <point x="-88" y="-161" type="line"/>
      <point x="-58" y="-184"/>
      <point x="-20" y="-197"/>
      <point x="19" y="-197" type="curve"/>
      <point x="101" y="-197"/>
      <point x="170" y="-141"/>
      <point x="170" y="-20" type="curve"/>
      <point x="170" y="526" type="line"/>
    </contour>
  </outline>
</glyph>
<glyph name="k" format="1">
  <advance width="573"/>
  <unicode hex="006B"/>
  <outline>
    <contour>
      <point x="116" y="0" type="move" name="blwm"/>
    </contour>
    <contour>
      <point x="139" y="742" type="move" name="abvm"/>
    </contour>
    <contour>
      <point x="249" y="526" type="move" name="topright"/>
    </contour>
    <contour>
      <point x="469.0" y="0" type="line"/>
      <point x="562" y="0" type="line"/>
      <point x="343.23636" y="322.38852" type="line"/>
      <point x="541" y="526" type="line"/>
      <point x="449.0" y="526" type="line"/>
      <point x="178.0" y="253.06429" type="line"/>
      <point x="178.0" y="742.0" type="line"/>
      <point x="100.0" y="742.0" type="line"/>
      <point x="100.0" y="0" type="line"/>
      <point x="178.0" y="0" type="line"/>
      <point x="178.0" y="152.26613" type="line"/>
      <point x="289.0746" y="266.6252" type="line"/>
    </contour>
  </outline>
</glyph>
<glyph name="l" format="1">
  <advance width="278"/>
  <unicode hex="006C"/>
  <outline>
    <contour>
      <point x="139" y="0" type="move" name="blwm"/>
    </contour>
    <contour>
      <point x="139" y="742" type="move" name="abvm"/>
    </contour>
    <contour>
      <point x="249" y="526" type="move" name="topright"/>
    </contour>
    <contour>
      <point x="100" y="742" type="line"/>
      <point x="100" y="0" type="line"/>
      <point x="178" y="0" type="line"/>
      <point x="178" y="742" type="line"/>
    </contour>
  </outline>
</glyph>
<glyph name="m" format="1">
  <advance width="1044"/>
  <unicode hex="006D"/>
  <outline>
    <contour>
      <point x="173" y="259" type="line"/>
      <point x="173" y="373"/>
      <point x="238" y="452"/>
      <point x="346" y="455" type="curve"/>
      <point x="437" y="455"/>
      <point x="492" y="399"/>
      <point x="492" y="304" type="curve"/>
      <point x="492.0" y="0" type="line" smooth="yes"/>
      <point x="570" y="0" type="line"/>
      <point x="570" y="283.20625" type="line"/>
      <point x="578.503565924" y="384.047092682"/>
      <point x="640.823804168" y="452.217327894"/>
      <point x="741.0" y="455.0" type="curve"/>
      <point x="832" y="455"/>
      <point x="887" y="399"/>
      <point x="887" y="304" type="curve"/>
      <point x="887.0" y="0" type="line" smooth="yes"/>
      <point x="966.0" y="0" type="line"/>
      <point x="966.0" y="324" type="line"/>
      <point x="966" y="452"/>
      <point x="893" y="529"/>
      <point x="769" y="529" type="curve"/>
      <point x="668.571054077" y="527.565300773"/>
      <point x="595.415402975" y="484.44877361"/>
      <point x="562.08385" y="391.86448" type="curve"/>
      <point x="540.113203862" y="478.738205882"/>
      <point x="473.375366255" y="529.0"/>
      <point x="374.0" y="529.0" type="curve"/>
      <point x="278.437922297" y="527.644509536"/>
      <point x="207.680128962" y="489.08259252"/>
      <point x="172" y="406.74237" type="curve"/>
      <point x="172" y="526" type="line"/>
      <point x="95.0" y="526" type="line"/>
      <point x="95.0" y="0" type="line"/>
      <point x="172" y="0" type="line"/>
      <point x="172" y="259" type="line"/>
    </contour>
  </outline>
</glyph>
<glyph name="n" format="1">
  <advance width="656"/>
  <unicode hex="006E"/>
  <outline>
    <contour>
      <point x="332" y="0" type="move" name="blwm"/>
    </contour>
    <contour>
      <point x="341" y="526" type="move" name="abvm"/>
    </contour>
    <contour>
      <point x="350.0" y="454.0" type="curve"/>
      <point x="443" y="454"/>
      <point x="499" y="398"/>
      <point x="499" y="304" type="curve"/>
      <point x="499.0" y="0" type="line" smooth="yes"/>
      <point x="577" y="0" type="line"/>
      <point x="577" y="324" type="line"/>
      <point x="577" y="452"/>
      <point x="503" y="529"/>
      <point x="377" y="529" type="curve"/>
      <point x="280.870805071" y="527.664872293"/>
      <point x="209.697534071" y="490.232783188"/>
      <point x="173" y="410.14075" type="curve"/>
      <point x="173" y="526" type="line"/>
      <point x="95.0" y="526" type="line"/>
      <point x="95.0" y="0" type="line"/>
      <point x="173" y="0" type="line"/>
      <point x="173" y="282.05008" type="line"/>
      <point x="181.648816339" y="384.010002236"/>
      <point x="245.988321255" y="453.071324297"/>
    </contour>
  </outline>
</glyph>
<glyph name="o" format="1">
  <advance width="618"/>
  <unicode hex="006F"/>
  <outline>
    <contour>
      <point x="309" y="526" type="move" name="abvm"/>
    </contour>
    <contour>
      <point x="42" y="264" type="curve" smooth="yes"/>
      <point x="42" y="106"/>
      <point x="153" y="-3"/>
      <point x="309" y="-3" type="curve" smooth="yes"/>
      <point x="466" y="-3"/>
      <point x="577" y="106"/>
      <point x="577" y="264" type="curve" smooth="yes"/>
      <point x="577" y="420"/>
      <point x="466" y="529"/>
      <point x="309" y="529" type="curve" smooth="yes"/>
      <point x="153" y="529"/>
      <point x="42" y="420"/>
    </contour>
    <contour>
      <point x="498" y="263" type="curve" smooth="yes"/>
      <point x="498" y="145"/>
      <point x="419" y="65"/>
      <point x="309" y="65" type="curve" smooth="yes"/>
      <point x="199" y="65"/>
      <point x="120" y="145"/>
      <point x="120" y="263" type="curve" smooth="yes"/>
      <point x="120" y="379"/>
      <point x="199" y="460"/>
      <point x="309" y="460" type="curve" smooth="yes"/>
      <point x="419" y="460"/>
      <point x="498" y="379"/>
    </contour>
  </outline>
</glyph>
<glyph name="q" format="1">
  <advance width="679"/>
  <unicode hex="0071"/>
  <outline>
    <contour>
      <point x="579" y="-194.0" type="line"/>
      <point x="579" y="526" type="line"/>
      <point x="501.0" y="526" type="line"/>
      <point x="501.0" y="413.34528" type="line"/>
      <point x="461.452642992" y="487.157824269"/>
      <point x="389.348809426" y="530.0"/>
      <point x="295.0" y="530.0" type="curve" smooth="yes"/>
      <point x="147" y="530"/>
      <point x="42" y="421"/>
      <point x="42" y="264" type="curve" smooth="yes"/>
      <point x="42" y="107"/>
      <point x="146" y="-4"/>
      <point x="296" y="-4" type="curve" smooth="yes"/>
      <point x="389.670625082" y="-4.0"/>
      <point x="461.525156236" y="39.2205634424"/>
      <point x="501.0" y="112.99825" type="curve"/>
      <point x="501.0" y="-194.0" type="line"/>
    </contour>
    <contour>
      <point x="501" y="262" type="curve" smooth="yes"/>
      <point x="501" y="146"/>
      <point x="422" y="63"/>
      <point x="311" y="63" type="curve" smooth="yes"/>
      <point x="199" y="63"/>
      <point x="121" y="146"/>
      <point x="120" y="262" type="curve" smooth="yes"/>
      <point x="121" y="378"/>
      <point x="200" y="462"/>
      <point x="311" y="462" type="curve" smooth="yes"/>
      <point x="422" y="462"/>
      <point x="501" y="378"/>
    </contour>
  </outline>
</glyph>
<glyph name="r" format="1">
  <advance width="372"/>
  <unicode hex="0072"/>
  <outline>
    <contour>
      <point x="132" y="0" type="move" name="blwm"/>
    </contour>
    <contour>
      <point x="189" y="526" type="move" name="abvm"/>
    </contour>
    <contour>
      <point x="173" y="0" type="line"/>
      <point x="173" y="279.97216" type="line"/>
      <point x="181.993048484" y="385.616098369"/>
      <point x="251.18419173" y="454.862450559"/>
      <point x="362.0" y="453.0" type="curve"/>
      <point x="362.0" y="529" type="line"/>
      <point x="273.043990424" y="527.691823389"/>
      <point x="207.61871399" y="486.167484681"/>
      <point x="173" y="409.15235" type="curve"/>
      <point x="173" y="526" type="line"/>
      <point x="95.0" y="526" type="line"/>
      <point x="95.0" y="0" type="line"/>
    </contour>
  </outline>
</glyph>
<glyph name="s" format="1">
  <advance width="453"/>
  <unicode hex="0073"/>
  <outline>
    <contour>
      <point x="225" y="0" type="move" name="blwm"/>
    </contour>
    <contour>
      <point x="230" y="526" type="move" name="abvm"/>
    </contour>
    <contour>
      <point x="51" y="387" type="curve" smooth="yes"/>
      <point x="51" y="201"/>
      <point x="345" y="266"/>
      <point x="343" y="138" type="curve" smooth="yes"/>
      <point x="342" y="85"/>
      <point x="291" y="61"/>
      <point x="230" y="61" type="curve" smooth="yes"/>
      <point x="168" y="61"/>
      <point x="99" y="86"/>
      <point x="54" y="128" type="curve"/>
      <point x="24" y="71" type="line"/>
      <point x="74" y="23"/>
      <point x="151" y="-3"/>
      <point x="227" y="-3" type="curve" smooth="yes"/>
      <point x="327" y="-3"/>
      <point x="419" y="43"/>
      <point x="419" y="146" type="curve" smooth="yes"/>
      <point x="420" y="335"/>
      <point x="126" y="274"/>
      <point x="126" y="393" type="curve" smooth="yes"/>
      <point x="126" y="443"/>
      <point x="171" y="464"/>
      <point x="230" y="464" type="curve" smooth="yes"/>
      <point x="278" y="464"/>
      <point x="331" y="448"/>
      <point x="373" y="422" type="curve"/>
      <point x="402" y="482" type="line"/>
      <point x="358" y="511"/>
      <point x="297" y="530"/>
      <point x="235" y="530" type="curve" smooth="yes"/>
      <point x="138" y="530"/>
      <point x="51" y="487"/>
    </contour>
  </outline>
</glyph>
<glyph name="u" format="1">
  <advance width="647"/>
  <unicode hex="0075"/>
  <outline>
    <contour>
      <point x="584" y="10" type="move" name="ogonek"/>
    </contour>
    <contour>
      <point x="320" y="526" type="move" name="abvm"/>
    </contour>
    <contour>
      <point x="474.0" y="0" type="line"/>
      <point x="552" y="0" type="line"/>
      <point x="552" y="526" type="line"/>
      <point x="474.0" y="526" type="line"/>
      <point x="474.0" y="268" type="line"/>
      <point x="474" y="154"/>
      <point x="410" y="74"/>
      <point x="301" y="72" type="curve"/>
      <point x="210" y="72"/>
      <point x="155" y="128"/>
      <point x="155" y="222" type="curve"/>
      <point x="155" y="526" type="line" smooth="yes"/>
      <point x="77" y="526" type="line"/>
      <point x="77" y="202.0" type="line"/>
      <point x="77" y="75"/>
      <point x="150" y="-3"/>
      <point x="274" y="-3" type="curve"/>
      <point x="369.317393163" y="-1.63832295481"/>
      <point x="439.140026165" y="37.7337237862"/>
      <point x="474.0" y="121.14843" type="curve"/>
    </contour>
  </outline>
</glyph>
<glyph name="v" format="1">
  <advance width="498"/>
  <unicode hex="0076"/>
  <outline>
    <contour>
      <point x="421" y="526" type="line"/>
      <point x="255" y="79" type="line"/>
      <point x="86" y="526" type="line"/>
      <point x="4" y="526" type="line"/>
      <point x="212" y="0" type="line"/>
      <point x="293" y="0" type="line"/>
      <point x="501" y="526" type="line"/>
    </contour>
  </outline>
</glyph>
<glyph name="w" format="1">
  <advance width="864"/>
  <unicode hex="0077"/>
  <outline>
    <contour>
      <point x="432" y="526" type="move" name="abvm"/>
    </contour>
    <contour>
      <point x="786" y="526" type="line"/>
      <point x="632" y="79" type="line"/>
      <point x="477" y="526" type="line"/>
      <point x="395" y="526" type="line"/>
      <point x="242" y="79" type="line"/>
      <point x="86" y="526" type="line"/>
      <point x="4" y="526" type="line"/>
      <point x="200" y="0" type="line"/>
      <point x="281" y="0" type="line"/>
      <point x="436" y="431" type="line"/>
      <point x="590" y="0" type="line"/>
      <point x="671" y="0" type="line"/>
      <point x="866" y="526" type="line"/>
    </contour>
  </outline>
</glyph>
<glyph name="x" format="1">
  <advance width="529"/>
  <unicode hex="0078"/>
  <outline>
    <contour>
      <point x="35" y="526" type="line"/>
      <point x="213" y="271" type="line"/>
      <point x="21" y="0" type="line"/>
      <point x="109" y="0" type="line"/>
      <point x="264" y="216" type="line"/>
      <point x="415" y="0" type="line"/>
      <point x="505" y="0" type="line"/>
      <point x="316" y="271" type="line"/>
      <point x="492" y="526" type="line"/>
      <point x="406" y="526" type="line"/>
      <point x="265" y="325" type="line"/>
      <point x="125" y="526" type="line"/>
    </contour>
  </outline>
</glyph>
<glyph name="y" format="1">
  <advance width="502"/>
  <unicode hex="0079"/>
  <outline>
    <contour>
      <point x="254" y="526" type="move" name="abvm"/>
    </contour>
    <contour>
      <point x="425" y="526" type="line"/>
      <point x="258" y="88" type="line"/>
      <point x="82" y="526" type="line"/>
      <point x="1" y="526" type="line"/>
      <point x="218" y="4" type="line"/>
      <point x="197" y="-46" type="line" smooth="yes"/>
      <point x="176" y="-96"/>
      <point x="142" y="-122"/>
      <point x="101" y="-122" type="curve" smooth="yes"/>
      <point x="74" y="-122"/>
      <point x="51" y="-114"/>
      <point x="27" y="-97" type="curve"/>
      <point x="-7" y="-159" type="line"/>
      <point x="25" y="-185"/>
      <point x="61" y="-197"/>
      <point x="104" y="-197" type="curve" smooth="yes"/>
      <point x="175" y="-197"/>
      <point x="230" y="-155"/>
      <point x="263" y="-75" type="curve" smooth="yes"/>
      <point x="505" y="526" type="line"/>
    </contour>
  </outline>
</glyph>
<glyph name="z" format="1">
  <advance width="526"/>
  <unicode hex="007A"/>
  <outline>
    <contour>
      <point x="263" y="526" type="move" name="abvm"/>
    </contour>
    <contour>
      <point x="61" y="526" type="line"/>
      <point x="61" y="461" type="line"/>
      <point x="382" y="460" type="line"/>
      <point x="52" y="58" type="line"/>
      <point x="52" y="0" type="line"/>
      <point x="484" y="-1" type="line"/>
      <point x="484" y="65" type="line"/>
      <point x="146" y="66" type="line"/>
      <point x="476" y="468" type="line"/>
      <point x="476" y="526" type="line"/>
    </contour>
  </outline>
</glyph>
<glyph name="braceleft" format="1">
  <advance width="312"/>
  <unicode hex="007B"/>
  <outline>
    <contour>
      <point x="289" y="-126.0" type="line"/>
      <point x="289" y="-61.0" type="line"/>
      <point x="217" y="-61"/>
      <point x="188" y="-39"/>
      <point x="188" y="14" type="curve" smooth="yes"/>
      <point x="188.0" y="210.0" type="line" smooth="yes"/>
      <point x="188.0" y="267.604680684"/>
      <point x="173.077470888" y="296.149699413"/>
      <point x="130.70372" y="308.14483" type="curve"/>
      <point x="173.077470888" y="320.837356031"/>
      <point x="188.0" y="349.281545173"/>
      <point x="188.0" y="406.0" type="curve" smooth="yes"/>
      <point x="188.0" y="603" type="line" smooth="yes"/>
      <point x="188" y="655"/>
      <point x="217" y="678"/>
      <point x="289" y="678" type="curve"/>
      <point x="289" y="743.0" type="line"/>
      <point x="260" y="743.0" type="line" smooth="yes"/>
      <point x="159" y="743"/>
      <point x="118" y="709"/>
      <point x="118" y="625" type="curve" smooth="yes"/>
      <point x="118.0" y="402.0" type="line" smooth="yes"/>
      <point x="118" y="360"/>
      <point x="102" y="341"/>
      <point x="69" y="341" type="curve" smooth="yes"/>
      <point x="43" y="341" type="line"/>
      <point x="43" y="275" type="line"/>
      <point x="69" y="275" type="line" smooth="yes"/>
      <point x="102" y="275"/>
      <point x="118" y="257"/>
      <point x="118" y="215" type="curve" smooth="yes"/>
      <point x="118.0" y="-8" type="line" smooth="yes"/>
      <point x="118" y="-92"/>
      <point x="159" y="-126"/>
      <point x="260" y="-126" type="curve" smooth="yes"/>
    </contour>
  </outline>
</glyph>
<glyph name="bar" format="1">
  <advance width="250"/>
  <unicode hex="007C"/>
  <outline>
    <contour>
      <point x="94" y="815" type="line"/>
      <point x="94" y="-121" type="line"/>
      <point x="155" y="-121" type="line"/>
      <point x="155" y="815" type="line"/>
    </contour>
  </outline>
</glyph>
<glyph name="braceright" format="1">
  <advance width="317"/>
  <unicode hex="007D"/>
  <outline>
    <contour>
      <point x="38" y="-126.0" type="line"/>
      <point x="67" y="-126.0" type="line" smooth="yes"/>
      <point x="168" y="-126"/>
      <point x="209" y="-92"/>
      <point x="209" y="-8" type="curve" smooth="yes"/>
      <point x="209.0" y="215.0" type="line" smooth="yes"/>
      <point x="209" y="257"/>
      <point x="225" y="275"/>
      <point x="258" y="275" type="curve" smooth="yes"/>
      <point x="284" y="275" type="line"/>
      <point x="284" y="341" type="line"/>
      <point x="258" y="341" type="line"/>
      <point x="225" y="341"/>
      <point x="209" y="360"/>
      <point x="209" y="402" type="curve" smooth="yes"/>
      <point x="209.0" y="625" type="line" smooth="yes"/>
      <point x="209" y="709"/>
      <point x="168" y="743"/>
      <point x="67" y="743" type="curve" smooth="yes"/>
      <point x="38" y="743.0" type="line"/>
      <point x="38" y="678" type="line"/>
      <point x="110" y="678"/>
      <point x="139" y="655"/>
      <point x="139" y="603" type="curve" smooth="yes"/>
      <point x="139" y="406.0" type="line" smooth="yes"/>
      <point x="139.0" y="349.281545173"/>
      <point x="153.922529112" y="320.837356031"/>
      <point x="196.29628" y="308.14483" type="curve"/>
      <point x="153.922529112" y="296.149699413"/>
      <point x="139.0" y="267.604680684"/>
      <point x="139.0" y="210.0" type="curve" smooth="yes"/>
      <point x="139" y="14.0" type="line" smooth="yes"/>
      <point x="139" y="-39"/>
      <point x="110" y="-61"/>
      <point x="38" y="-61" type="curve"/>
    </contour>
  </outline>
</glyph>
<glyph name="asciitilde" format="1">
  <advance width="491"/>
  <unicode hex="007E"/>
  <outline>
    <contour>
      <point x="73" y="264" type="curve"/>
      <point x="129" y="264" type="line"/>
      <point x="129" y="299"/>
      <point x="145" y="318"/>
      <point x="173" y="318" type="curve" smooth="yes"/>
      <point x="219" y="318"/>
      <point x="266" y="256"/>
      <point x="333" y="256" type="curve" smooth="yes"/>
      <point x="389" y="256"/>
      <point x="419" y="297"/>
      <point x="419" y="374" type="curve"/>
      <point x="363" y="374" type="line"/>
      <point x="363" y="339"/>
      <point x="348" y="320"/>
      <point x="320" y="320" type="curve" smooth="yes"/>
      <point x="275" y="320"/>
      <point x="221" y="382"/>
      <point x="159" y="382" type="curve" smooth="yes"/>
      <point x="103" y="382"/>
      <point x="73" y="341"/>
    </contour>
  </outline>
</glyph>
<glyph name="exclamdown" format="1">
  <advance width="221"/>
  <unicode hex="00A1"/>
  <outline>
    <contour>
      <point x="157" y="483" type="curve" smooth="yes"/>
      <point x="157" y="511"/>
      <point x="137" y="532"/>
      <point x="110" y="532" type="curve" smooth="yes"/>
      <point x="82" y="532"/>
      <point x="62" y="511"/>
      <point x="62" y="483" type="curve" smooth="yes"/>
      <point x="62" y="454"/>
      <point x="82" y="433"/>
      <point x="110" y="433" type="curve" smooth="yes"/>
      <point x="137" y="433"/>
      <point x="157" y="454"/>
    </contour>
    <contour>
      <point x="146" y="-163" type="line"/>
      <point x="146" y="6" type="line"/>
      <point x="135" y="315" type="line"/>
      <point x="83" y="315" type="line"/>
      <point x="71" y="6" type="line"/>
      <point x="71" y="-163" type="line"/>
    </contour>
  </outline>
</glyph>
<glyph name="cent" format="1">
  <advance width="561"/>
  <unicode hex="00A2"/>
  <note>
    cent
  </note>
  <outline>
    <contour>
      <point x="330" y="-2" type="line"/>
      <point x="409" y="4"/>
      <point x="472" y="36"/>
      <point x="514" y="88" type="curve"/>
      <point x="469.0" y="134" type="line"/>
      <point x="436" y="95"/>
      <point x="388" y="72"/>
      <point x="330" y="67" type="curve"/>
      <point x="330" y="458.0" type="line"/>
      <point x="383" y="453"/>
      <point x="428" y="431"/>
      <point x="463" y="397" type="curve"/>
      <point x="506.0" y="451.0" type="line"/>
      <point x="463" y="495"/>
      <point x="403" y="523"/>
      <point x="330" y="528" type="curve"/>
      <point x="330" y="672" type="line"/>
      <point x="269" y="672" type="line"/>
      <point x="269" y="527" type="line"/>
      <point x="134" y="512"/>
      <point x="42" y="407"/>
      <point x="42" y="263" type="curve" smooth="yes"/>
      <point x="42" y="118"/>
      <point x="134" y="14"/>
      <point x="269" y="-1" type="curve"/>
      <point x="269" y="-133" type="line"/>
      <point x="330" y="-133" type="line"/>
    </contour>
    <contour>
      <point x="269" y="69" type="line"/>
      <point x="180" y="86"/>
      <point x="119" y="160"/>
      <point x="119" y="263" type="curve" smooth="yes"/>
      <point x="119" y="365"/>
      <point x="180" y="439"/>
      <point x="269" y="456" type="curve"/>
    </contour>
  </outline>
</glyph>
<glyph name="currency" format="1">
  <advance width="717"/>
  <unicode hex="00A4"/>
  <note>
    currency
  </note>
  <outline>
    <contour>
      <point x="573" y="485" type="curve"/>
      <point x="675" y="587" type="line"/>
      <point x="630" y="635" type="line"/>
      <point x="525" y="530" type="line"/>
      <point x="479" y="565"/>
      <point x="421" y="585"/>
      <point x="358" y="585" type="curve" smooth="yes"/>
      <point x="296" y="585"/>
      <point x="238" y="565"/>
      <point x="192" y="530" type="curve"/>
      <point x="87" y="635" type="line"/>
      <point x="42" y="587" type="line"/>
      <point x="145" y="484" type="line"/>
      <point x="108" y="438"/>
      <point x="86" y="381"/>
      <point x="86" y="318" type="curve" smooth="yes"/>
      <point x="86" y="256"/>
      <point x="108" y="198"/>
      <point x="146" y="153" type="curve"/>
      <point x="42" y="48" type="line"/>
      <point x="87" y="0" type="line"/>
      <point x="194" y="107" type="line"/>
      <point x="240" y="73"/>
      <point x="297" y="53"/>
      <point x="358" y="53" type="curve" smooth="yes"/>
      <point x="420" y="53"/>
      <point x="477" y="73"/>
      <point x="523" y="106" type="curve"/>
      <point x="630" y="0" type="line"/>
      <point x="675" y="48" type="line"/>
      <point x="572" y="152" type="line"/>
      <point x="610" y="197"/>
      <point x="633" y="255"/>
      <point x="633" y="318" type="curve" smooth="yes"/>
      <point x="633" y="381"/>
      <point x="611" y="439"/>
    </contour>
    <contour>
      <point x="149" y="318" type="curve" smooth="yes"/>
      <point x="149" y="428"/>
      <point x="243" y="518"/>
      <point x="358" y="518" type="curve" smooth="yes"/>
      <point x="475" y="518"/>
      <point x="570" y="428"/>
      <point x="570" y="318" type="curve" smooth="yes"/>
      <point x="570" y="210"/>
      <point x="475" y="121"/>
      <point x="358" y="121" type="curve" smooth="yes"/>
      <point x="243" y="121"/>
      <point x="149" y="210"/>
    </contour>
  </outline>
</glyph>
<glyph name="brokenbar" format="1">
  <advance width="250"/>
  <unicode hex="00A6"/>
  <outline>
    <contour>
      <point x="94" y="815" type="line"/>
      <point x="94" y="467" type="line"/>
      <point x="155" y="467" type="line"/>
      <point x="155" y="815" type="line"/>
    </contour>
    <contour>
      <point x="94" y="228" type="line"/>
      <point x="94" y="-121" type="line"/>
      <point x="155" y="-121" type="line"/>
      <point x="155" y="228" type="line"/>
    </contour>
  </outline>
</glyph>
<glyph name="section" format="1">
  <advance width="472"/>
  <unicode hex="00A7"/>
  <outline>
    <contour>
      <point x="369" y="303" type="curve" smooth="yes"/>
      <point x="369" y="254"/>
      <point x="325" y="220"/>
      <point x="258" y="220" type="curve" smooth="yes"/>
      <point x="182" y="220"/>
      <point x="117" y="263"/>
      <point x="117" y="317" type="curve" smooth="yes"/>
      <point x="117" y="362"/>
      <point x="162" y="392"/>
      <point x="235" y="392" type="curve" smooth="yes"/>
      <point x="316" y="392"/>
      <point x="369" y="356"/>
    </contour>
    <contour>
      <point x="62" y="558" type="curve" smooth="yes"/>
      <point x="62" y="502"/>
      <point x="93" y="466"/>
      <point x="180" y="435" type="curve"/>
      <point x="99" y="421"/>
      <point x="48" y="376"/>
      <point x="48" y="310" type="curve" smooth="yes"/>
      <point x="48" y="130"/>
      <point x="354" y="186"/>
      <point x="354" y="57" type="curve" smooth="yes"/>
      <point x="354" y="8"/>
      <point x="300" y="-25"/>
      <point x="229" y="-25" type="curve" smooth="yes"/>
      <point x="166" y="-25"/>
      <point x="103" y="-1"/>
      <point x="51" y="42" type="curve"/>
      <point x="24" y="-8" type="line"/>
      <point x="77" y="-55"/>
      <point x="152" y="-83"/>
      <point x="231" y="-83" type="curve" smooth="yes"/>
      <point x="345" y="-83"/>
      <point x="425" y="-25"/>
      <point x="425" y="59" type="curve" smooth="yes"/>
      <point x="425" y="117"/>
      <point x="394" y="152"/>
      <point x="325" y="179" type="curve"/>
      <point x="383" y="192"/>
      <point x="438" y="243"/>
      <point x="438" y="309" type="curve" smooth="yes"/>
      <point x="438" y="491"/>
      <point x="130" y="432"/>
      <point x="130" y="561" type="curve" smooth="yes"/>
      <point x="130" y="608"/>
      <point x="176" y="637"/>
      <point x="246" y="637" type="curve" smooth="yes"/>
      <point x="294" y="637"/>
      <point x="343" y="623"/>
      <point x="389" y="595" type="curve"/>
      <point x="415" y="646" type="line"/>
      <point x="363" y="678"/>
      <point x="306" y="694"/>
      <point x="246" y="694" type="curve" smooth="yes"/>
      <point x="135" y="694"/>
      <point x="62" y="640"/>
    </contour>
  </outline>
</glyph>
<glyph name="dieresis" format="1">
  <advance width="373"/>
  <unicode hex="00A8"/>
  <outline>
    <contour>
      <point x="175" y="526" type="move" name="_abvm"/>
    </contour>
    <contour>
      <point x="44.056" y="681.088" type="curve" smooth="yes"/>
      <point x="44.056" y="652.768"/>
      <point x="64.824" y="631.056"/>
      <point x="92.2" y="631.056" type="curve" smooth="yes"/>
      <point x="119.576" y="631.056"/>
      <point x="140.344" y="652.768"/>
      <point x="140.344" y="681.088" type="curve" smooth="yes"/>
      <point x="140.344" y="710.352"/>
      <point x="119.576" y="731.12"/>
      <point x="92.2" y="731.12" type="curve" smooth="yes"/>
      <point x="64.824" y="731.12"/>
      <point x="44.056" y="710.352"/>
    </contour>
    <contour>
      <point x="210.056" y="681.088" type="curve" smooth="yes"/>
      <point x="210.056" y="652.768"/>
      <point x="230.824" y="631.056"/>
      <point x="258.2" y="631.056" type="curve" smooth="yes"/>
      <point x="285.576" y="631.056"/>
      <point x="306.344" y="652.768"/>
      <point x="306.344" y="681.088" type="curve" smooth="yes"/>
      <point x="306.344" y="710.352"/>
      <point x="285.576" y="731.12"/>
      <point x="258.2" y="731.12" type="curve" smooth="yes"/>
      <point x="230.824" y="731.12"/>
      <point x="210.056" y="710.352"/>
    </contour>
  </outline>
</glyph>
<glyph name="copyright" format="1">
  <advance width="757"/>
  <unicode hex="00A9"/>
  <outline>
    <contour>
      <point x="40" y="348" type="curve" smooth="yes"/>
      <point x="40" y="163"/>
      <point x="187" y="9"/>
      <point x="377" y="9" type="curve" smooth="yes"/>
      <point x="568" y="9"/>
      <point x="717" y="165"/>
      <point x="717" y="350" type="curve" smooth="yes"/>
      <point x="717" y="536"/>
      <point x="569" y="689"/>
      <point x="379" y="689" type="curve" smooth="yes"/>
      <point x="188" y="689"/>
      <point x="40" y="533"/>
    </contour>
    <contour>
      <point x="675" y="350" type="curve" smooth="yes"/>
      <point x="675" y="188"/>
      <point x="546" y="54"/>
      <point x="377" y="54" type="curve" smooth="yes"/>
      <point x="210" y="54"/>
      <point x="83" y="186"/>
      <point x="83" y="348" type="curve" smooth="yes"/>
      <point x="83" y="510"/>
      <point x="211" y="644"/>
      <point x="379" y="644" type="curve" smooth="yes"/>
      <point x="547" y="644"/>
      <point x="675" y="512"/>
    </contour>
    <contour>
      <point x="201" y="349" type="curve" smooth="yes"/>
      <point x="201" y="250"/>
      <point x="281" y="172"/>
      <point x="383" y="172" type="curve" smooth="yes"/>
      <point x="432" y="172"/>
      <point x="479" y="193"/>
      <point x="514" y="226" type="curve"/>
      <point x="488" y="255" type="line"/>
      <point x="460" y="229"/>
      <point x="422" y="214"/>
      <point x="385" y="214" type="curve" smooth="yes"/>
      <point x="307" y="214"/>
      <point x="245" y="274"/>
      <point x="245" y="350" type="curve" smooth="yes"/>
      <point x="245" y="424"/>
      <point x="307" y="484"/>
      <point x="385" y="484" type="curve" smooth="yes"/>
      <point x="423" y="484"/>
      <point x="460" y="468"/>
      <point x="488" y="441" type="curve"/>
      <point x="514" y="473" type="line"/>
      <point x="480" y="505"/>
      <point x="432" y="524"/>
      <point x="384" y="524" type="curve" smooth="yes"/>
      <point x="282" y="524"/>
      <point x="201" y="447"/>
    </contour>
  </outline>
</glyph>
<glyph name="ordfeminine" format="1">
  <advance width="380"/>
  <unicode hex="00AA"/>
  <outline>
    <contour>
      <point x="164" y="496" type="curve"/>
      <point x="122" y="496"/>
      <point x="95" y="519"/>
      <point x="95" y="553" type="curve"/>
      <point x="95" y="585"/>
      <point x="123" y="603"/>
      <point x="173" y="603" type="curve"/>
      <point x="266.26768" y="603" type="line"/>
      <point x="266.50485" y="556.03914" type="line"/>
      <point x="246" y="514"/>
      <point x="210" y="496"/>
    </contour>
    <contour>
      <point x="267" y="458.0" type="line"/>
      <point x="323" y="458.0" type="line"/>
      <point x="322" y="662" type="line"/>
      <point x="323" y="729"/>
      <point x="276" y="770"/>
      <point x="194" y="770" type="curve"/>
      <point x="148" y="770"/>
      <point x="102" y="755"/>
      <point x="58" y="731" type="curve"/>
      <point x="74" y="691" type="line"/>
      <point x="110" y="712"/>
      <point x="146" y="724"/>
      <point x="182" y="724" type="curve"/>
      <point x="237" y="724"/>
      <point x="265" y="699"/>
      <point x="266" y="656" type="curve"/>
      <point x="266.11111" y="634" type="line"/>
      <point x="162" y="634" type="line"/>
      <point x="86" y="634"/>
      <point x="40" y="603"/>
      <point x="40" y="548" type="curve"/>
      <point x="40" y="494"/>
      <point x="82" y="456"/>
      <point x="146" y="456" type="curve"/>
      <point x="200.114459737" y="456.0"/>
      <point x="241.360085111" y="475.303251543"/>
      <point x="266.71435" y="514.55889" type="curve"/>
    </contour>
  </outline>
</glyph>
<glyph name="logicalnot" format="1">
  <advance width="551"/>
  <unicode hex="00AC"/>
  <outline>
    <contour>
      <point x="468.0" y="150" type="line"/>
      <point x="468.0" y="387.0" type="line"/>
      <point x="37" y="387.0" type="line"/>
      <point x="37" y="330" type="line"/>
      <point x="409.0" y="330" type="line"/>
      <point x="409.0" y="150" type="line"/>
    </contour>
  </outline>
</glyph>
<glyph name="registered" format="1">
  <advance width="757"/>
  <unicode hex="00AE"/>
  <outline>
    <contour>
      <point x="40" y="348" type="curve" smooth="yes"/>
      <point x="40" y="163"/>
      <point x="187" y="9"/>
      <point x="377" y="9" type="curve" smooth="yes"/>
      <point x="568" y="9"/>
      <point x="717" y="165"/>
      <point x="717" y="350" type="curve" smooth="yes"/>
      <point x="717" y="536"/>
      <point x="569" y="689"/>
      <point x="379" y="689" type="curve" smooth="yes"/>
      <point x="188" y="689"/>
      <point x="40" y="533"/>
    </contour>
    <contour>
      <point x="675" y="350" type="curve" smooth="yes"/>
      <point x="675" y="188"/>
      <point x="546" y="54"/>
      <point x="377" y="54" type="curve" smooth="yes"/>
      <point x="210" y="54"/>
      <point x="83" y="186"/>
      <point x="83" y="348" type="curve" smooth="yes"/>
      <point x="83" y="510"/>
      <point x="211" y="644"/>
      <point x="379" y="644" type="curve" smooth="yes"/>
      <point x="547" y="644"/>
      <point x="675" y="512"/>
    </contour>
    <contour>
      <point x="484" y="415" type="curve" smooth="yes"/>
      <point x="484" y="361"/>
      <point x="447" y="330"/>
      <point x="384" y="330" type="curve" smooth="yes"/>
      <point x="293" y="330" type="line"/>
      <point x="293" y="496" type="line"/>
      <point x="384" y="496" type="line" smooth="yes"/>
      <point x="447" y="496"/>
      <point x="484" y="468"/>
    </contour>
    <contour>
      <point x="294" y="293" type="line"/>
      <point x="385.0" y="293" type="line" smooth="yes"/>
      <point x="392.326017525" y="293.0"/>
      <point x="399.386995381" y="293.298169627"/>
      <point x="406.17754" y="293.90494" type="curve"/>
      <point x="480.0" y="181.0" type="line"/>
      <point x="530" y="181.0" type="line"/>
      <point x="445.63982" y="301.51455" type="line"/>
      <point x="497.161812683" y="317.971302739"/>
      <point x="525.0" y="357.799049555"/>
      <point x="525.0" y="416.0" type="curve" smooth="yes"/>
      <point x="525" y="491"/>
      <point x="475" y="534"/>
      <point x="385" y="534" type="curve" smooth="yes"/>
      <point x="251.0" y="534" type="line"/>
      <point x="251.0" y="181.0" type="line"/>
      <point x="294" y="181.0" type="line"/>
    </contour>
  </outline>
</glyph>
<glyph name="macron" format="1">
  <advance width="350"/>
  <unicode hex="00AF"/>
  <outline>
    <contour>
      <point x="175" y="526" type="move" name="_abvm"/>
    </contour>
    <contour>
      <point x="55" y="706" type="line"/>
      <point x="55" y="647" type="line"/>
      <point x="295" y="647" type="line"/>
      <point x="295" y="706" type="line"/>
    </contour>
  </outline>
</glyph>
<glyph name="twosuperior" format="1">
  <advance width="380"/>
  <unicode hex="00B2"/>
  <outline>
    <contour>
      <point x="34" y="643" type="curve"/>
      <point x="59" y="600" type="line"/>
      <point x="93" y="631"/>
      <point x="137" y="651"/>
      <point x="175" y="651" type="curve"/>
      <point x="225" y="651"/>
      <point x="254" y="629"/>
      <point x="254" y="592" type="curve"/>
      <point x="254" y="567"/>
      <point x="232" y="530"/>
      <point x="199" y="497" type="curve" smooth="yes"/>
      <point x="40" y="332" type="line"/>
      <point x="40" y="289" type="line"/>
      <point x="338" y="289" type="line"/>
      <point x="338" y="338" type="line"/>
      <point x="114" y="338" type="line"/>
      <point x="238" y="466" type="line" smooth="yes"/>
      <point x="286" y="512"/>
      <point x="315" y="559"/>
      <point x="315" y="600" type="curve"/>
      <point x="315" y="662"/>
      <point x="263" y="701"/>
      <point x="184" y="701" type="curve"/>
      <point x="131" y="701"/>
      <point x="77" y="680"/>
    </contour>
  </outline>
</glyph>
<glyph name="acute" format="1">
  <advance width="350"/>
  <unicode hex="00B4"/>
  <outline>
    <contour>
      <point x="128" y="526" type="move" name="_abvm"/>
    </contour>
    <contour>
      <point x="75" y="614" type="line"/>
      <point x="150" y="614" type="line"/>
      <point x="275" y="713" type="line"/>
      <point x="195" y="749" type="line"/>
    </contour>
  </outline>
</glyph>
<glyph name="mu" format="1">
  <advance width="670"/>
  <unicode hex="00B5"/>
  <outline>
    <contour>
      <point x="297.0" y="-3.0" type="curve"/>
      <point x="392.317393163" y="-1.63832295481"/>
      <point x="462.140026165" y="37.7337237862"/>
      <point x="497.0" y="121.14843" type="curve"/>
      <point x="497.0" y="0" type="line"/>
      <point x="575" y="0" type="line"/>
      <point x="575" y="526" type="line"/>
      <point x="497.0" y="526" type="line"/>
      <point x="497.0" y="268" type="line"/>
      <point x="497" y="154"/>
      <point x="433" y="74"/>
      <point x="324" y="72" type="curve"/>
      <point x="240.116455306" y="72.0"/>
      <point x="186.822473048" y="119.58376379"/>
      <point x="179.0" y="200.82702" type="curve"/>
      <point x="179.0" y="526" type="line"/>
      <point x="100.0" y="526" type="line"/>
      <point x="100.0" y="202.0" type="line"/>
      <point x="100.0" y="193.388757586"/>
      <point x="100.335619394" y="185.002793942"/>
      <point x="101.0" y="176.92372" type="curve"/>
      <point x="101.0" y="-194.0" type="line"/>
      <point x="179.0" y="-194.0" type="line"/>
      <point x="179.0" y="29.17727" type="line"/>
      <point x="210.175062594" y="8.24885214757"/>
      <point x="249.910021941" y="-3.0"/>
    </contour>
  </outline>
</glyph>
<glyph name="paragraph" format="1">
  <advance width="592"/>
  <unicode hex="00B6"/>
  <outline>
    <contour>
      <point x="216" y="742" type="line"/>
      <point x="62" y="742"/>
      <point x="2" y="651"/>
      <point x="2" y="557" type="curve" smooth="yes"/>
      <point x="2" y="487"/>
      <point x="38" y="379"/>
      <point x="179" y="379" type="curve" smooth="yes"/>
      <point x="190" y="379"/>
      <point x="201" y="379"/>
      <point x="213" y="380" type="curve"/>
      <point x="213" y="-110" type="line"/>
      <point x="274" y="-110" type="line"/>
      <point x="274" y="690" type="line"/>
      <point x="425" y="690" type="line"/>
      <point x="425" y="-110" type="line"/>
      <point x="486" y="-110" type="line"/>
      <point x="486" y="742" type="line"/>
    </contour>
  </outline>
</glyph>
<glyph name="periodcentered" format="1">
  <advance width="197"/>
  <unicode hex="00B7"/>
  <outline>
    <contour>
      <point x="51" y="274" type="curve" smooth="yes"/>
      <point x="51" y="246"/>
      <point x="71" y="225"/>
      <point x="98" y="225" type="curve" smooth="yes"/>
      <point x="126" y="225"/>
      <point x="146" y="246"/>
      <point x="146" y="274" type="curve" smooth="yes"/>
      <point x="146" y="303"/>
      <point x="126" y="324"/>
      <point x="98" y="324" type="curve" smooth="yes"/>
      <point x="71" y="324"/>
      <point x="51" y="303"/>
    </contour>
  </outline>
</glyph>
<glyph name="onesuperior" format="1">
  <advance width="254"/>
  <unicode hex="00B9"/>
  <outline>
    <contour>
      <point x="165" y="700" type="line"/>
      <point x="21" y="700" type="line"/>
      <point x="21" y="650" type="line"/>
      <point x="106" y="650" type="line"/>
      <point x="106" y="289" type="line"/>
      <point x="165" y="289" type="line"/>
    </contour>
  </outline>
</glyph>
<glyph name="ordmasculine" format="1">
  <advance width="402"/>
  <unicode hex="00BA"/>
  <outline>
    <contour>
      <point x="36" y="613" type="curve" smooth="yes"/>
      <point x="36" y="520"/>
      <point x="104" y="456"/>
      <point x="201" y="456" type="curve" smooth="yes"/>
      <point x="299" y="456"/>
      <point x="367" y="520"/>
      <point x="367" y="613" type="curve" smooth="yes"/>
      <point x="367" y="706"/>
      <point x="299" y="770"/>
      <point x="201" y="770" type="curve" smooth="yes"/>
      <point x="104" y="770"/>
      <point x="36" y="706"/>
    </contour>
    <contour>
      <point x="308" y="613" type="curve" smooth="yes"/>
      <point x="308" y="548"/>
      <point x="264" y="503"/>
      <point x="201" y="503" type="curve" smooth="yes"/>
      <point x="138" y="503"/>
      <point x="93" y="548"/>
      <point x="93" y="613" type="curve" smooth="yes"/>
      <point x="93" y="677"/>
      <point x="138" y="722"/>
      <point x="201" y="722" type="curve" smooth="yes"/>
      <point x="264" y="722"/>
      <point x="308" y="677"/>
    </contour>
  </outline>
</glyph>
<glyph name="questiondown" format="1">
  <advance width="424"/>
  <unicode hex="00BF"/>
  <outline>
    <contour>
      <point x="276" y="483" type="curve" smooth="yes"/>
      <point x="276" y="511"/>
      <point x="256" y="532"/>
      <point x="229" y="532" type="curve" smooth="yes"/>
      <point x="201" y="532"/>
      <point x="181" y="511"/>
      <point x="181" y="483" type="curve" smooth="yes"/>
      <point x="181" y="454"/>
      <point x="201" y="433"/>
      <point x="229" y="433" type="curve" smooth="yes"/>
      <point x="256" y="433"/>
      <point x="276" y="454"/>
    </contour>
    <contour>
      <point x="355" y="15" type="line"/>
      <point x="351" y="-59"/>
      <point x="304" y="-96"/>
      <point x="230" y="-96" type="curve" smooth="yes"/>
      <point x="158" y="-96"/>
      <point x="107" y="-62"/>
      <point x="107" y="7" type="curve" smooth="yes"/>
      <point x="107" y="145"/>
      <point x="256" y="139"/>
      <point x="256" y="305" type="curve"/>
      <point x="194" y="305" type="line"/>
      <point x="194" y="159"/>
      <point x="34" y="160"/>
      <point x="34" y="-3" type="curve" smooth="yes"/>
      <point x="34" y="-110"/>
      <point x="113" y="-164"/>
      <point x="223" y="-164" type="curve" smooth="yes"/>
      <point x="338" y="-164"/>
      <point x="413" y="-100"/>
      <point x="418" y="14" type="curve"/>
    </contour>
  </outline>
</glyph>
<glyph name="Aring" format="1">
  <advance width="718"/>
  <unicode hex="00C5"/>
  <outline>
    <contour>
      <point x="439" y="779" type="curve" smooth="yes"/>
      <point x="439" y="738"/>
      <point x="403" y="705"/>
      <point x="360" y="705" type="curve" smooth="yes"/>
      <point x="317" y="705"/>
      <point x="282" y="738"/>
      <point x="282" y="779" type="curve" smooth="yes"/>
      <point x="282" y="820"/>
      <point x="317" y="854"/>
      <point x="360" y="854" type="curve" smooth="yes"/>
      <point x="403" y="854"/>
      <point x="439" y="820"/>
    </contour>
    <contour>
      <point x="357.0" y="613" type="line"/>
      <point x="515.56444" y="253.0" type="line"/>
      <point x="199.02284" y="253.0" type="line"/>
    </contour>
    <contour>
      <point x="627" y="0" type="line"/>
      <point x="713.0" y="0" type="line"/>
      <point x="411.32745" y="674.66704" type="line"/>
      <point x="451.127182185" y="693.637556366"/>
      <point x="479.0" y="733.737961719"/>
      <point x="479.0" y="779.0" type="curve" smooth="yes"/>
      <point x="479" y="842"/>
      <point x="425" y="896"/>
      <point x="360" y="896" type="curve" smooth="yes"/>
      <point x="295" y="896"/>
      <point x="242" y="842"/>
      <point x="242" y="779" type="curve" smooth="yes"/>
      <point x="242.0" y="734.742186338"/>
      <point x="268.156201995" y="695.419505128"/>
      <point x="306.25409" y="675.96761" type="curve"/>
      <point x="4" y="0" type="line"/>
      <point x="88.0" y="0" type="line"/>
      <point x="166.54976" y="179.0" type="line"/>
      <point x="548.15824" y="179.0" type="line"/>
    </contour>
  </outline>
</glyph>
<glyph name="AE" format="1">
  <advance width="1026"/>
  <unicode hex="00C6"/>
  <outline>
    <contour>
      <point x="703" y="0" type="move" name="blwm"/>
    </contour>
    <contour>
      <point x="967" y="10" type="move" name="ogonek"/>
    </contour>
    <contour>
      <point x="615" y="700" type="move" name="abvm"/>
    </contour>
    <contour>
      <point x="455.0" y="632" type="line"/>
      <point x="481.0" y="632" type="line"/>
      <point x="481.0" y="257" type="line"/>
      <point x="237.83228" y="257" type="line"/>
    </contour>
    <contour>
      <point x="481.0" y="0" type="line"/>
      <point x="969.0" y="0" type="line"/>
      <point x="969.0" y="74" type="line"/>
      <point x="560" y="74" type="line"/>
      <point x="560" y="318" type="line"/>
      <point x="914.0" y="318" type="line"/>
      <point x="914.0" y="391.0" type="line"/>
      <point x="560" y="391.0" type="line"/>
      <point x="560" y="626" type="line"/>
      <point x="956.0" y="626" type="line"/>
      <point x="956.0" y="700.0" type="line"/>
      <point x="416.0" y="700.0" type="line"/>
      <point x="4" y="0" type="line"/>
      <point x="89.0" y="0" type="line"/>
      <point x="200.18987" y="192.0" type="line"/>
      <point x="481.0" y="192.0" type="line"/>
    </contour>
  </outline>
</glyph>
<glyph name="Eth" format="1">
  <advance width="801"/>
  <unicode hex="00D0"/>
  <outline>
    <contour>
      <point x="398.0" y="0" type="line" smooth="yes"/>
      <point x="604" y="0"/>
      <point x="761" y="151"/>
      <point x="761" y="350" type="curve" smooth="yes"/>
      <point x="761" y="549"/>
      <point x="605" y="700"/>
      <point x="401" y="700" type="curve" smooth="yes"/>
      <point x="118.0" y="700.0" type="line"/>
      <point x="118.0" y="377.0" type="line"/>
      <point x="0" y="377.0" type="line"/>
      <point x="0" y="326" type="line"/>
      <point x="118.0" y="326" type="line"/>
      <point x="118.0" y="0" type="line"/>
    </contour>
    <contour>
      <point x="198.0" y="74" type="line"/>
      <point x="198.0" y="326" type="line"/>
      <point x="421.0" y="326" type="line"/>
      <point x="421.0" y="377.0" type="line"/>
      <point x="198.0" y="377.0" type="line"/>
      <point x="198.0" y="626" type="line"/>
      <point x="400.0" y="626" type="line" smooth="yes"/>
      <point x="556" y="626"/>
      <point x="680" y="507"/>
      <point x="680" y="349" type="curve" smooth="yes"/>
      <point x="680" y="192"/>
      <point x="558" y="74"/>
      <point x="403" y="74" type="curve" smooth="yes"/>
    </contour>
  </outline>
</glyph>
<glyph name="multiply" format="1">
  <advance width="491"/>
  <unicode hex="00D7"/>
  <outline>
    <contour>
      <point x="374.0" y="155" type="line"/>
      <point x="412.0" y="195.0" type="line"/>
      <point x="284.9322" y="322.5" type="line"/>
      <point x="412.0" y="450.0" type="line"/>
      <point x="374.0" y="490.0" type="line"/>
      <point x="246.0" y="361.56463" type="line"/>
      <point x="118.0" y="490.0" type="line"/>
      <point x="80" y="450.0" type="line"/>
      <point x="207.0678" y="322.5" type="line"/>
      <point x="80" y="195.0" type="line"/>
      <point x="118.0" y="155" type="line"/>
      <point x="246.0" y="283.43537" type="line"/>
    </contour>
  </outline>
</glyph>
<glyph name="Oslash" format="1">
  <advance width="813"/>
  <unicode hex="00D8"/>
  <outline>
    <contour>
      <point x="401" y="700" type="move" name="abvm"/>
    </contour>
    <contour>
      <point x="121.0" y="350.0" type="curve" smooth="yes"/>
      <point x="121" y="505"/>
      <point x="250" y="628"/>
      <point x="407" y="628" type="curve" smooth="yes"/>
      <point x="425.799453053" y="628.0"/>
      <point x="444.19227625" y="626.213733131"/>
      <point x="462.00346" y="622.79891" type="curve"/>
      <point x="287.48242" y="95.87962" type="line"/>
      <point x="189.857858721" y="140.275896404"/>
      <point x="121.0" y="237.192810657"/>
    </contour>
    <contour>
      <point x="407" y="70" type="curve" smooth="yes"/>
      <point x="381.261459779" y="70.0"/>
      <point x="356.230689273" y="73.4027390117"/>
      <point x="332.37479" y="79.78929" type="curve"/>
      <point x="508.47387" y="609.77439" type="line"/>
      <point x="614.867577029" y="570.04595165"/>
      <point x="691.0" y="469.539528696"/>
      <point x="691.0" y="350.0" type="curve" smooth="yes"/>
      <point x="691" y="195"/>
      <point x="563" y="70"/>
    </contour>
    <contour>
      <point x="406.0" y="-3.0" type="curve" smooth="yes"/>
      <point x="611" y="-3"/>
      <point x="773" y="153"/>
      <point x="773" y="350" type="curve" smooth="yes"/>
      <point x="773.0" y="504.232069599"/>
      <point x="673.703958632" y="632.720721066"/>
      <point x="532.21664" y="681.23027" type="curve"/>
      <point x="576" y="813.0" type="line"/>
      <point x="525" y="813.0" type="line"/>
      <point x="485.57304" y="693.96092" type="line"/>
      <point x="460.005250435" y="699.233748358"/>
      <point x="433.38633109" y="702.0"/>
      <point x="406.0" y="702.0" type="curve" smooth="yes"/>
      <point x="202" y="702"/>
      <point x="40" y="547"/>
      <point x="40" y="350" type="curve" smooth="yes"/>
      <point x="40.0" y="201.894603874"/>
      <point x="131.563909263" y="76.9627897213"/>
      <point x="263.70053" y="24.07661" type="curve"/>
      <point x="213.0" y="-129" type="line"/>
      <point x="263" y="-129" type="line"/>
      <point x="308.93324" y="9.23998" type="line"/>
      <point x="339.783962629" y="1.25225920411"/>
      <point x="372.319561806" y="-3.0"/>
    </contour>
  </outline>
</glyph>
<glyph name="Thorn" format="1">
  <advance width="672"/>
  <unicode hex="00DE"/>
  <outline>
    <contour>
      <point x="346" y="528" type="line" smooth="yes"/>
      <point x="491" y="528"/>
      <point x="564" y="472"/>
      <point x="564" y="365" type="curve" smooth="yes"/>
      <point x="564" y="254"/>
      <point x="491" y="198"/>
      <point x="346" y="198" type="curve" smooth="yes"/>
      <point x="186.0" y="198.0" type="line"/>
      <point x="186.0" y="528" type="line"/>
    </contour>
    <contour>
      <point x="348.0" y="130" type="line" smooth="yes"/>
      <point x="542" y="130"/>
      <point x="645" y="213"/>
      <point x="645" y="367" type="curve" smooth="yes"/>
      <point x="645" y="516"/>
      <point x="542" y="596"/>
      <point x="348" y="596" type="curve" smooth="yes"/>
      <point x="186.0" y="596" type="line"/>
      <point x="186.0" y="700.0" type="line"/>
      <point x="106.0" y="700.0" type="line"/>
      <point x="106.0" y="0" type="line"/>
      <point x="186.0" y="0" type="line"/>
      <point x="186.0" y="130" type="line"/>
    </contour>
  </outline>
</glyph>
<glyph name="germandbls" format="1">
  <advance width="649"/>
  <unicode hex="00DF"/>
  <outline>
    <contour>
      <point x="90" y="490" type="curve" smooth="yes"/>
      <point x="90" y="0" type="line"/>
      <point x="167" y="0" type="line"/>
      <point x="167" y="495" type="line" smooth="yes"/>
      <point x="167" y="608"/>
      <point x="231" y="680"/>
      <point x="331" y="680" type="curve" smooth="yes"/>
      <point x="419" y="680"/>
      <point x="477" y="627"/>
      <point x="477" y="545" type="curve" smooth="yes"/>
      <point x="477" y="459"/>
      <point x="413" y="402"/>
      <point x="314" y="402" type="curve"/>
      <point x="314" y="340" type="line"/>
      <point x="324" y="340" type="line"/>
      <point x="440" y="340"/>
      <point x="515" y="288"/>
      <point x="515" y="203" type="curve" smooth="yes"/>
      <point x="515" y="120"/>
      <point x="447" y="63"/>
      <point x="343" y="63" type="curve" smooth="yes"/>
      <point x="285" y="63" type="line"/>
      <point x="285" y="0" type="line"/>
      <point x="338" y="0" type="line" smooth="yes"/>
      <point x="492" y="0"/>
      <point x="591" y="84"/>
      <point x="591" y="206" type="curve" smooth="yes"/>
      <point x="591" y="302"/>
      <point x="522" y="363"/>
      <point x="424" y="380" type="curve"/>
      <point x="502" y="403"/>
      <point x="552" y="472"/>
      <point x="552" y="556" type="curve" smooth="yes"/>
      <point x="552" y="671"/>
      <point x="463" y="745"/>
      <point x="332" y="745" type="curve" smooth="yes"/>
      <point x="183" y="745"/>
      <point x="90" y="645"/>
    </contour>
  </outline>
</glyph>
<glyph name="ae" format="1">
  <advance width="980"/>
  <unicode hex="00E6"/>
  <outline>
    <contour>
      <point x="490" y="526" type="move" name="abvm"/>
    </contour>
    <contour>
      <point x="687.0" y="469.0" type="curve" smooth="yes"/>
      <point x="789" y="469"/>
      <point x="857" y="397"/>
      <point x="863" y="294" type="curve"/>
      <point x="501.42575" y="294" type="line"/>
      <point x="512.397691785" y="396.924823283"/>
      <point x="585.707782177" y="469.0"/>
    </contour>
    <contour>
      <point x="900" y="84" type="curve"/>
      <point x="856.0" y="130" type="line"/>
      <point x="815" y="86"/>
      <point x="758" y="63"/>
      <point x="693" y="63" type="curve" smooth="yes"/>
      <point x="586.940934989" y="63.0"/>
      <point x="508.680361958" y="135.634769368"/>
      <point x="500.67626" y="248.0" type="curve"/>
      <point x="941.0" y="248.0" type="line"/>
      <point x="944" y="414"/>
      <point x="843" y="529"/>
      <point x="686" y="529" type="curve" smooth="yes"/>
      <point x="598.82626665" y="529.0"/>
      <point x="527.055744433" y="491.689999698"/>
      <point x="482.50388" y="429.26336" type="curve"/>
      <point x="454.025205765" y="492.415101049"/>
      <point x="389.38886476" y="529.0"/>
      <point x="294.0" y="529.0" type="curve"/>
      <point x="219" y="529"/>
      <point x="148" y="503"/>
      <point x="79" y="460" type="curve"/>
      <point x="101.0" y="403.0" type="line"/>
      <point x="160" y="441"/>
      <point x="218" y="464"/>
      <point x="280" y="464" type="curve"/>
      <point x="373" y="464"/>
      <point x="422" y="417"/>
      <point x="422" y="340" type="curve"/>
      <point x="422.72881" y="297" type="line"/>
      <point x="249.0" y="297" type="line"/>
      <point x="125" y="296"/>
      <point x="50" y="244"/>
      <point x="50" y="153" type="curve"/>
      <point x="50" y="62"/>
      <point x="121" y="-3"/>
      <point x="229" y="-3" type="curve"/>
      <point x="335.26561" y="-3.0"/>
      <point x="416.325014936" y="41.1108588618"/>
      <point x="460.22039" y="134.47451" type="curve"/>
      <point x="500.398816112" y="49.6429227082"/>
      <point x="582.366824512" y="-3.0"/>
      <point x="688.0" y="-3.0" type="curve" smooth="yes"/>
      <point x="775" y="-3"/>
      <point x="849" y="29"/>
    </contour>
    <contour>
      <point x="245" y="55" type="curve"/>
      <point x="172" y="55"/>
      <point x="124" y="97"/>
      <point x="124" y="159" type="curve"/>
      <point x="124" y="218"/>
      <point x="174" y="251"/>
      <point x="262" y="251" type="curve"/>
      <point x="423.50847" y="251.0" type="line"/>
      <point x="424.0" y="222.0" type="line"/>
      <point x="435.76596" y="219.52296" type="line"/>
      <point x="437.551506223" y="205.702002225"/>
      <point x="440.186564173" y="192.445650387"/>
      <point x="443.62745" y="179.74688" type="curve"/>
      <point x="434.0" y="192.0" type="line"/>
      <point x="397" y="90"/>
      <point x="331" y="55"/>
    </contour>
  </outline>
</glyph>
<glyph name="eth" format="1">
  <advance width="581"/>
  <unicode hex="00F0"/>
  <outline>
    <contour>
      <point x="282" y="-3" type="curve" smooth="yes"/>
      <point x="439" y="-3"/>
      <point x="541" y="96"/>
      <point x="541" y="250" type="curve" smooth="yes"/>
      <point x="541.0" y="378.91606909"/>
      <point x="478.982494862" y="508.278307282"/>
      <point x="373.72291" y="612.15099" type="curve"/>
      <point x="474.0" y="644" type="line"/>
      <point x="461.0" y="689" type="line"/>
      <point x="334.11678" y="648.30161" type="line"/>
      <point x="290.581995288" y="685.074674712"/>
      <point x="241.206511875" y="717.770682407"/>
      <point x="187.0" y="745.0" type="curve"/>
      <point x="136" y="705.0" type="line"/>
      <point x="180.020890919" y="682.56897278"/>
      <point x="221.76187895" y="655.263670421"/>
      <point x="259.94445" y="624.51049" type="curve"/>
      <point x="143" y="587" type="line"/>
      <point x="156" y="543" type="line"/>
      <point x="300.84334" y="589.0037" type="line"/>
      <point x="378.521384104" y="516.317782711"/>
      <point x="436.753982407" y="429.590157205"/>
      <point x="462.0" y="344.0" type="curve"/>
      <point x="430" y="403"/>
      <point x="356" y="441"/>
      <point x="273" y="441" type="curve" smooth="yes"/>
      <point x="135" y="441"/>
      <point x="46" y="355"/>
      <point x="46" y="224" type="curve" smooth="yes"/>
      <point x="46" y="86"/>
      <point x="139" y="-3"/>
    </contour>
    <contour>
      <point x="458" y="222" type="curve"/>
      <point x="458" y="128"/>
      <point x="392" y="67"/>
      <point x="288" y="67" type="curve" smooth="yes"/>
      <point x="187" y="67"/>
      <point x="121" y="130"/>
      <point x="121" y="228" type="curve" smooth="yes"/>
      <point x="121" y="322"/>
      <point x="186" y="382"/>
      <point x="289" y="382" type="curve" smooth="yes"/>
      <point x="392" y="382"/>
      <point x="458" y="319"/>
    </contour>
  </outline>
</glyph>
<glyph name="divide" format="1">
  <advance width="491"/>
  <unicode hex="00F7"/>
  <outline>
    <contour>
      <point x="196.056" y="504.088" type="curve" smooth="yes"/>
      <point x="196.056" y="475.768"/>
      <point x="216.824" y="454.056"/>
      <point x="244.2" y="454.056" type="curve" smooth="yes"/>
      <point x="271.576" y="454.056"/>
      <point x="292.344" y="475.768"/>
      <point x="292.344" y="504.088" type="curve" smooth="yes"/>
      <point x="292.344" y="533.352"/>
      <point x="271.576" y="554.12"/>
      <point x="244.2" y="554.12" type="curve" smooth="yes"/>
      <point x="216.824" y="554.12"/>
      <point x="196.056" y="533.352"/>
    </contour>
    <contour>
      <point x="37" y="351" type="line"/>
      <point x="37" y="294" type="line"/>
      <point x="454" y="294" type="line"/>
      <point x="454" y="351" type="line"/>
    </contour>
    <contour>
      <point x="196.056" y="151.088" type="curve" smooth="yes"/>
      <point x="196.056" y="122.768"/>
      <point x="216.824" y="101.056"/>
      <point x="244.2" y="101.056" type="curve" smooth="yes"/>
      <point x="271.576" y="101.056"/>
      <point x="292.344" y="122.768"/>
      <point x="292.344" y="151.088" type="curve" smooth="yes"/>
      <point x="292.344" y="180.352"/>
      <point x="271.576" y="201.12"/>
      <point x="244.2" y="201.12" type="curve" smooth="yes"/>
      <point x="216.824" y="201.12"/>
      <point x="196.056" y="180.352"/>
    </contour>
  </outline>
</glyph>
<glyph name="oslash" format="1">
  <advance width="618"/>
  <unicode hex="00F8"/>
  <outline>
    <contour>
      <point x="309" y="526" type="move" name="abvm"/>
    </contour>
    <contour>
      <point x="116.0" y="263.0" type="curve" smooth="yes"/>
      <point x="116" y="383"/>
      <point x="196" y="466"/>
      <point x="309" y="466" type="curve" smooth="yes"/>
      <point x="324.359010502" y="466.0"/>
      <point x="339.108366863" y="464.466627465"/>
      <point x="353.13005" y="461.51186" type="curve"/>
      <point x="228.72801" y="74.9086" type="line"/>
      <point x="159.956909322" y="104.495431548"/>
      <point x="116.0" y="173.30794981"/>
    </contour>
    <contour>
      <point x="309" y="59" type="curve" smooth="yes"/>
      <point x="293.703817865" y="59.0"/>
      <point x="279.012312307" y="60.5208532066"/>
      <point x="265.04206" y="63.45379" type="curve"/>
      <point x="389.4378" y="450.03748" type="line"/>
      <point x="458.113737406" y="420.461173154"/>
      <point x="502.0" y="351.879284802"/>
      <point x="502.0" y="263.0" type="curve" smooth="yes"/>
      <point x="502" y="142"/>
      <point x="422" y="59"/>
    </contour>
    <contour>
      <point x="309.0" y="-3.0" type="curve" smooth="yes"/>
      <point x="466" y="-3"/>
      <point x="577" y="106"/>
      <point x="577" y="264" type="curve" smooth="yes"/>
      <point x="577.0" y="384.021170327"/>
      <point x="511.296349965" y="476.221876224"/>
      <point x="409.49051" y="512.35513" type="curve"/>
      <point x="457.0" y="660" type="line"/>
      <point x="417.0" y="660" type="line"/>
      <point x="372.78638" y="522.59766" type="line"/>
      <point x="352.571228317" y="526.811292473"/>
      <point x="331.247451527" y="529.0"/>
      <point x="309.0" y="529.0" type="curve" smooth="yes"/>
      <point x="153" y="529"/>
      <point x="42" y="420"/>
      <point x="42" y="264" type="curve" smooth="yes"/>
      <point x="42.0" y="142.451284672"/>
      <point x="107.691556319" y="49.901544657"/>
      <point x="209.0261" y="13.68113" type="curve"/>
      <point x="157" y="-148" type="line"/>
      <point x="197.0" y="-148" type="line"/>
      <point x="245.71174" y="3.38109" type="line"/>
      <point x="265.783746034" y="-0.820742595943"/>
      <point x="286.942026305" y="-3.0"/>
    </contour>
  </outline>
</glyph>
<glyph name="thorn" format="1">
  <advance width="675"/>
  <unicode hex="00FE"/>
  <outline>
    <contour>
      <point x="139" y="0" type="move" name="blwm"/>
    </contour>
    <contour>
      <point x="139" y="742" type="move" name="abvm"/>
    </contour>
    <contour>
      <point x="249" y="526" type="move" name="topright"/>
    </contour>
    <contour>
      <point x="556" y="264" type="curve" smooth="yes"/>
      <point x="556" y="149"/>
      <point x="477" y="66"/>
      <point x="367" y="66" type="curve" smooth="yes"/>
      <point x="257" y="66"/>
      <point x="178" y="148"/>
      <point x="178" y="264" type="curve" smooth="yes"/>
      <point x="178" y="379"/>
      <point x="257" y="462"/>
      <point x="367" y="462" type="curve" smooth="yes"/>
      <point x="477" y="462"/>
      <point x="556" y="378"/>
    </contour>
    <contour>
      <point x="178.0" y="-194.0" type="line"/>
      <point x="178.0" y="113.51571" type="line"/>
      <point x="217.15171525" y="40.0017323795"/>
      <point x="289.118685432" y="-3.0"/>
      <point x="383.0" y="-3.0" type="curve" smooth="yes"/>
      <point x="532" y="-3"/>
      <point x="634" y="106"/>
      <point x="634" y="262" type="curve" smooth="yes"/>
      <point x="634" y="419"/>
      <point x="530" y="529"/>
      <point x="382" y="529" type="curve" smooth="yes"/>
      <point x="289.247101825" y="529.0"/>
      <point x="217.238561578" y="486.266622669"/>
      <point x="178.0" y="412.01726" type="curve"/>
      <point x="178.0" y="742.0" type="line"/>
      <point x="100.0" y="742.0" type="line"/>
      <point x="100.0" y="-194.0" type="line"/>
    </contour>
  </outline>
</glyph>
<glyph name="Aogonek" format="1">
  <advance width="718"/>
  <unicode hex="0104"/>
  <outline>
    <contour>
      <point x="317" y="700" type="line"/>
      <point x="4" y="0" type="line"/>
      <point x="89" y="0" type="line"/>
      <point x="168" y="179" type="line"/>
      <point x="548" y="179" type="line"/>
      <point x="627" y="0" type="line"/>
      <point x="649" y="0" type="line"/>
      <point x="612" y="-53"/>
      <point x="594" y="-91"/>
      <point x="594" y="-126" type="curve" smooth="yes"/>
      <point x="594" y="-176"/>
      <point x="630" y="-200"/>
      <point x="667" y="-200" type="curve" smooth="yes"/>
      <point x="700" y="-200"/>
      <point x="733" y="-180"/>
      <point x="754" y="-150" type="curve"/>
      <point x="728" y="-120" type="line"/>
      <point x="712" y="-140"/>
      <point x="695" y="-153"/>
      <point x="675" y="-153" type="curve" smooth="yes"/>
      <point x="654" y="-153"/>
      <point x="640" y="-139"/>
      <point x="640" y="-115" type="curve" smooth="yes"/>
      <point x="640" y="-89"/>
      <point x="652" y="-56"/>
      <point x="693" y="0" type="curve"/>
      <point x="713" y="0" type="line"/>
      <point x="400" y="700" type="line"/>
    </contour>
    <contour>
      <point x="519" y="252" type="line"/>
      <point x="197" y="252" type="line"/>
      <point x="357" y="613" type="line"/>
    </contour>
  </outline>
</glyph>
<glyph name="aogonek" format="1">
  <advance width="581"/>
  <unicode hex="0105"/>
  <outline>
    <contour>
      <point x="79" y="458" type="curve"/>
      <point x="113" y="403" type="line"/>
      <point x="167" y="442"/>
      <point x="221" y="464"/>
      <point x="281" y="464" type="curve" smooth="yes"/>
      <point x="374" y="464"/>
      <point x="421" y="417"/>
      <point x="422" y="339" type="curve" smooth="yes"/>
      <point x="422" y="307" type="line"/>
      <point x="248" y="307" type="line" smooth="yes"/>
      <point x="124" y="306"/>
      <point x="50" y="249"/>
      <point x="50" y="156" type="curve" smooth="yes"/>
      <point x="50" y="67"/>
      <point x="118" y="-3"/>
      <point x="233" y="-3" type="curve" smooth="yes"/>
      <point x="311" y="-3"/>
      <point x="381" y="23"/>
      <point x="423" y="82" type="curve"/>
      <point x="423" y="2" type="line"/>
      <point x="436" y="2" type="line"/>
      <point x="388" y="-50"/>
      <point x="368" y="-90"/>
      <point x="368" y="-127" type="curve" smooth="yes"/>
      <point x="368" y="-176"/>
      <point x="403" y="-200"/>
      <point x="440" y="-200" type="curve" smooth="yes"/>
      <point x="473" y="-200"/>
      <point x="505" y="-181"/>
      <point x="528" y="-150" type="curve"/>
      <point x="502" y="-120" type="line"/>
      <point x="486" y="-140"/>
      <point x="468" y="-153"/>
      <point x="449" y="-153" type="curve" smooth="yes"/>
      <point x="428" y="-153"/>
      <point x="413" y="-139"/>
      <point x="413" y="-115" type="curve" smooth="yes"/>
      <point x="413" y="-89"/>
      <point x="429" y="-55"/>
      <point x="478" y="0" type="curve"/>
      <point x="500" y="0" type="line"/>
      <point x="500" y="348" type="line"/>
      <point x="498" y="460"/>
      <point x="425" y="529"/>
      <point x="296" y="529" type="curve" smooth="yes"/>
      <point x="204" y="529"/>
      <point x="148" y="503"/>
    </contour>
    <contour>
      <point x="422" y="178" type="line"/>
      <point x="403" y="107"/>
      <point x="329" y="62"/>
      <point x="247" y="62" type="curve" smooth="yes"/>
      <point x="167" y="62"/>
      <point x="123" y="103"/>
      <point x="123" y="158" type="curve" smooth="yes"/>
      <point x="123" y="218"/>
      <point x="168" y="245"/>
      <point x="258" y="245" type="curve" smooth="yes"/>
      <point x="422" y="245" type="line"/>
    </contour>
  </outline>
</glyph>
<glyph name="dcroat" format="1">
  <advance width="678"/>
  <unicode hex="0111"/>
  <outline>
    <contour>
      <point x="501" y="262" type="curve" smooth="yes"/>
      <point x="501" y="146"/>
      <point x="422" y="63"/>
      <point x="311" y="63" type="curve" smooth="yes"/>
      <point x="199" y="63"/>
      <point x="121" y="146"/>
      <point x="120" y="262" type="curve" smooth="yes"/>
      <point x="121" y="378"/>
      <point x="200" y="462"/>
      <point x="311" y="462" type="curve" smooth="yes"/>
      <point x="422" y="462"/>
      <point x="501" y="378"/>
    </contour>
    <contour>
      <point x="501.0" y="0" type="line"/>
      <point x="579" y="0" type="line"/>
      <point x="579" y="631" type="line"/>
      <point x="650" y="631" type="line"/>
      <point x="650" y="680" type="line"/>
      <point x="579" y="680" type="line"/>
      <point x="579" y="742.0" type="line"/>
      <point x="501.0" y="742.0" type="line"/>
      <point x="501.0" y="680" type="line"/>
      <point x="393.0" y="680" type="line"/>
      <point x="393.0" y="631" type="line"/>
      <point x="501.0" y="631" type="line"/>
      <point x="501.0" y="413.34528" type="line"/>
      <point x="461.452642992" y="487.157824269"/>
      <point x="389.348809426" y="530.0"/>
      <point x="295.0" y="530.0" type="curve" smooth="yes"/>
      <point x="147" y="530"/>
      <point x="42" y="421"/>
      <point x="42" y="264" type="curve" smooth="yes"/>
      <point x="42" y="107"/>
      <point x="146" y="-4"/>
      <point x="296" y="-4" type="curve" smooth="yes"/>
      <point x="389.670625082" y="-4.0"/>
      <point x="461.525156236" y="39.2205634424"/>
      <point x="501.0" y="112.99825" type="curve"/>
    </contour>
  </outline>
</glyph>
<glyph name="Eogonek" format="1">
  <advance width="657"/>
  <unicode hex="0118"/>
  <outline>
    <contour>
      <point x="106" y="700" type="line"/>
      <point x="106" y="0" type="line"/>
      <point x="493" y="0" type="line"/>
      <point x="455" y="-54"/>
      <point x="438" y="-92"/>
      <point x="438" y="-126" type="curve" smooth="yes"/>
      <point x="438" y="-176"/>
      <point x="473" y="-200"/>
      <point x="511" y="-200" type="curve" smooth="yes"/>
      <point x="544" y="-200"/>
      <point x="577" y="-180"/>
      <point x="598" y="-150" type="curve"/>
      <point x="572" y="-120" type="line"/>
      <point x="556" y="-140"/>
      <point x="538" y="-153"/>
      <point x="519" y="-153" type="curve" smooth="yes"/>
      <point x="499" y="-153"/>
      <point x="483" y="-139"/>
      <point x="483" y="-115" type="curve" smooth="yes"/>
      <point x="483" y="-89"/>
      <point x="496" y="-56"/>
      <point x="537" y="0" type="curve"/>
      <point x="600" y="0" type="line"/>
      <point x="600" y="68" type="line"/>
      <point x="186" y="68" type="line"/>
      <point x="186" y="323" type="line"/>
      <point x="545" y="323" type="line"/>
      <point x="545" y="391" type="line"/>
      <point x="186" y="391" type="line"/>
      <point x="186" y="632" type="line"/>
      <point x="587" y="632" type="line"/>
      <point x="587" y="700" type="line"/>
    </contour>
  </outline>
</glyph>
<glyph name="eogonek" format="1">
  <advance width="588"/>
  <unicode hex="0119"/>
  <outline>
    <contour>
      <point x="42" y="264" type="curve" smooth="yes"/>
      <point x="42" y="106"/>
      <point x="150" y="-3"/>
      <point x="302" y="-3" type="curve" smooth="yes"/>
      <point x="353" y="-3"/>
      <point x="396" y="10"/>
      <point x="437" y="37" type="curve"/>
      <point x="390" y="-27"/>
      <point x="370" y="-81"/>
      <point x="370" y="-125" type="curve" smooth="yes"/>
      <point x="370" y="-177"/>
      <point x="405" y="-200"/>
      <point x="443" y="-200" type="curve" smooth="yes"/>
      <point x="477" y="-200"/>
      <point x="508" y="-179"/>
      <point x="529" y="-150" type="curve"/>
      <point x="503" y="-120" type="line"/>
      <point x="488" y="-138"/>
      <point x="470" y="-153"/>
      <point x="451" y="-153" type="curve" smooth="yes"/>
      <point x="430" y="-153"/>
      <point x="415" y="-140"/>
      <point x="415" y="-114" type="curve" smooth="yes"/>
      <point x="415" y="-67"/>
      <point x="448" y="0"/>
      <point x="516" y="84" type="curve"/>
      <point x="473" y="130" type="line"/>
      <point x="433" y="86"/>
      <point x="374" y="62"/>
      <point x="311" y="62" type="curve" smooth="yes"/>
      <point x="204" y="62"/>
      <point x="132" y="132"/>
      <point x="121" y="234" type="curve"/>
      <point x="549" y="234" type="line"/>
      <point x="557" y="415"/>
      <point x="467" y="532"/>
      <point x="303" y="528" type="curve" smooth="yes"/>
      <point x="141" y="525"/>
      <point x="42" y="414"/>
    </contour>
    <contour>
      <point x="479" y="296" type="curve"/>
      <point x="119" y="296" type="line"/>
      <point x="127" y="395"/>
      <point x="202" y="464"/>
      <point x="304" y="464" type="curve" smooth="yes"/>
      <point x="406" y="464"/>
      <point x="473" y="395"/>
    </contour>
  </outline>
</glyph>
<glyph name="gcommaaccent" format="1">
  <advance width="636"/>
  <unicode hex="0123"/>
  <outline>
    <contour>
      <point x="313" y="581" type="curve" smooth="yes"/>
      <point x="340" y="581"/>
      <point x="361" y="602"/>
      <point x="361" y="630" type="curve" smooth="yes"/>
      <point x="361.0" y="647.255683711"/>
      <point x="353.511987359" y="663.189953426"/>
      <point x="338.24363" y="672.21477" type="curve"/>
      <point x="371.0" y="744.0" type="line"/>
      <point x="327" y="744.0" type="line"/>
      <point x="281" y="673" type="line" smooth="yes"/>
      <point x="272" y="659"/>
      <point x="266" y="646"/>
      <point x="266" y="631" type="curve" smooth="yes"/>
      <point x="266" y="600"/>
      <point x="288" y="581"/>
    </contour>
    <contour>
      <point x="476" y="275" type="curve" smooth="yes"/>
      <point x="476" y="166"/>
      <point x="401" y="87"/>
      <point x="296" y="87" type="curve" smooth="yes"/>
      <point x="190" y="87"/>
      <point x="116" y="166"/>
      <point x="115" y="275" type="curve" smooth="yes"/>
      <point x="116" y="385"/>
      <point x="190" y="464"/>
      <point x="296" y="464" type="curve" smooth="yes"/>
      <point x="401" y="464"/>
      <point x="476" y="385"/>
    </contour>
    <contour>
      <point x="289" y="-196" type="curve" smooth="yes"/>
      <point x="449" y="-196"/>
      <point x="553" y="-99"/>
      <point x="553" y="55" type="curve"/>
      <point x="553" y="526" type="line"/>
      <point x="476.0" y="526" type="line"/>
      <point x="476.0" y="419.86541" type="line"/>
      <point x="438.105244803" y="489.440268715"/>
      <point x="369.466266708" y="529.639044762"/>
      <point x="280.0" y="529.0" type="curve" smooth="yes"/>
      <point x="140" y="528"/>
      <point x="42" y="425"/>
      <point x="42" y="277" type="curve" smooth="yes"/>
      <point x="42" y="128"/>
      <point x="140" y="23"/>
      <point x="282" y="23" type="curve" smooth="yes"/>
      <point x="370.55652699" y="23.0"/>
      <point x="438.412511457" y="63.1834060757"/>
      <point x="476.0" y="132.17841" type="curve"/>
      <point x="476.0" y="53.0" type="line"/>
      <point x="476" y="-58"/>
      <point x="401" y="-129"/>
      <point x="286" y="-129" type="curve" smooth="yes"/>
      <point x="216" y="-128"/>
      <point x="160" y="-105"/>
      <point x="108" y="-62" type="curve"/>
      <point x="73" y="-119.0" type="line"/>
      <point x="136" y="-168"/>
      <point x="206" y="-195"/>
    </contour>
  </outline>
</glyph>
<glyph name="Hbar" format="1">
  <advance width="839"/>
  <unicode hex="0126"/>
  <outline>
    <contour>
      <point x="208.0" y="383.0" type="line"/>
      <point x="208.0" y="520" type="line"/>
      <point x="630" y="520" type="line"/>
      <point x="630" y="383.0" type="line"/>
    </contour>
    <contour>
      <point x="208.0" y="310" type="line"/>
      <point x="630" y="310" type="line"/>
      <point x="630" y="0" type="line"/>
      <point x="710.0" y="0" type="line"/>
      <point x="710.0" y="520" type="line"/>
      <point x="796.0" y="520" type="line"/>
      <point x="796.0" y="580" type="line"/>
      <point x="710.0" y="580" type="line"/>
      <point x="710.0" y="700.0" type="line"/>
      <point x="630" y="700.0" type="line"/>
      <point x="630" y="580" type="line"/>
      <point x="208.0" y="580" type="line"/>
      <point x="208.0" y="700.0" type="line"/>
      <point x="128" y="700.0" type="line"/>
      <point x="128" y="580" type="line"/>
      <point x="42" y="580" type="line"/>
      <point x="42" y="520" type="line"/>
      <point x="128" y="520" type="line"/>
      <point x="128" y="0" type="line"/>
      <point x="208.0" y="0" type="line"/>
    </contour>
  </outline>
</glyph>
<glyph name="hbar" format="1">
  <advance width="748"/>
  <unicode hex="0127"/>
  <outline>
    <contour>
      <point x="178.0" y="258" type="line"/>
      <point x="178" y="373"/>
      <point x="244" y="453"/>
      <point x="356" y="454" type="curve"/>
      <point x="449" y="454"/>
      <point x="505" y="398"/>
      <point x="505" y="304" type="curve"/>
      <point x="505.0" y="0" type="line" smooth="yes"/>
      <point x="583" y="0" type="line"/>
      <point x="583" y="324" type="line"/>
      <point x="583" y="452"/>
      <point x="509" y="529"/>
      <point x="383" y="529" type="curve"/>
      <point x="285.990050896" y="527.652639596"/>
      <point x="214.395422616" y="489.543832999"/>
      <point x="178.0" y="407.91505" type="curve"/>
      <point x="178.0" y="599" type="line"/>
      <point x="333" y="599" type="line"/>
      <point x="333" y="649" type="line"/>
      <point x="178.0" y="649" type="line"/>
      <point x="178.0" y="742.0" type="line"/>
      <point x="100.0" y="742.0" type="line"/>
      <point x="100.0" y="649" type="line"/>
      <point x="13.0" y="649" type="line"/>
      <point x="13.0" y="599" type="line"/>
      <point x="100.0" y="599" type="line"/>
      <point x="100.0" y="0" type="line"/>
      <point x="178.0" y="0" type="line"/>
    </contour>
  </outline>
</glyph>
<glyph name="Iogonek" format="1">
  <advance width="292"/>
  <unicode hex="012E"/>
  <outline>
    <contour>
      <point x="206" y="-120" type="line"/>
      <point x="190" y="-140"/>
      <point x="173" y="-153"/>
      <point x="153" y="-153" type="curve" smooth="yes"/>
      <point x="132" y="-153"/>
      <point x="118" y="-139"/>
      <point x="118" y="-115" type="curve" smooth="yes"/>
      <point x="118" y="-89"/>
      <point x="131" y="-55"/>
      <point x="171" y="0" type="curve"/>
      <point x="186" y="0" type="line"/>
      <point x="186" y="700" type="line"/>
      <point x="106" y="700" type="line"/>
      <point x="106" y="1" type="line"/>
      <point x="127" y="1" type="line"/>
      <point x="90" y="-51"/>
      <point x="72" y="-91"/>
      <point x="72" y="-126" type="curve" smooth="yes"/>
      <point x="72" y="-176"/>
      <point x="107" y="-200"/>
      <point x="145" y="-200" type="curve" smooth="yes"/>
      <point x="178" y="-200"/>
      <point x="211" y="-180"/>
      <point x="232" y="-150" type="curve"/>
    </contour>
  </outline>
</glyph>
<glyph name="iogonek" format="1">
  <advance width="253"/>
  <unicode hex="012F"/>
  <outline>
    <contour>
      <point x="76" y="677" type="curve" smooth="yes"/>
      <point x="76" y="647"/>
      <point x="98" y="624"/>
      <point x="127" y="624" type="curve" smooth="yes"/>
      <point x="156" y="624"/>
      <point x="178" y="647"/>
      <point x="178" y="677" type="curve" smooth="yes"/>
      <point x="178" y="708"/>
      <point x="156" y="731"/>
      <point x="127" y="731" type="curve" smooth="yes"/>
      <point x="98" y="731"/>
      <point x="76" y="708"/>
    </contour>
    <contour>
      <point x="88" y="526" type="line"/>
      <point x="88" y="0" type="line"/>
      <point x="108" y="0" type="line"/>
      <point x="73" y="-53"/>
      <point x="56" y="-91"/>
      <point x="56" y="-126" type="curve" smooth="yes"/>
      <point x="56" y="-176"/>
      <point x="91" y="-200"/>
      <point x="129" y="-200" type="curve" smooth="yes"/>
      <point x="162" y="-200"/>
      <point x="195" y="-180"/>
      <point x="216" y="-150" type="curve"/>
      <point x="190" y="-120" type="line"/>
      <point x="174" y="-140"/>
      <point x="157" y="-153"/>
      <point x="137" y="-153" type="curve" smooth="yes"/>
      <point x="116" y="-153"/>
      <point x="102" y="-139"/>
      <point x="102" y="-115" type="curve" smooth="yes"/>
      <point x="102" y="-89"/>
      <point x="114" y="-55"/>
      <point x="151" y="0" type="curve"/>
      <point x="167" y="0" type="line"/>
      <point x="167" y="526" type="line"/>
    </contour>
  </outline>
</glyph>
<glyph name="idotless" format="1">
  <advance width="267"/>
  <unicode hex="0131"/>
  <outline>
    <contour>
      <point x="226" y="10" type="move" name="ogonek"/>
    </contour>
    <contour>
      <point x="133" y="526" type="move" name="abvm"/>
    </contour>
    <contour>
      <point x="95" y="526" type="line"/>
      <point x="95" y="0" type="line"/>
      <point x="172" y="0" type="line"/>
      <point x="172" y="526" type="line"/>
    </contour>
  </outline>
</glyph>
<glyph name="kgreenlandic" format="1">
  <advance width="568"/>
  <unicode hex="0138"/>
  <outline>
    <contour>
      <point x="282" y="0" type="move" name="blwm"/>
    </contour>
    <contour>
      <point x="226" y="10" type="move" name="ogonek"/>
    </contour>
    <contour>
      <point x="133" y="526" type="move" name="abvm"/>
    </contour>
    <contour>
      <point x="465.0" y="0" type="line"/>
      <point x="557" y="0" type="line"/>
      <point x="339.40157" y="323.0426" type="line"/>
      <point x="536" y="526" type="line"/>
      <point x="445.0" y="526" type="line"/>
      <point x="172" y="252.025" type="line"/>
      <point x="172" y="526" type="line"/>
      <point x="95.0" y="526" type="line"/>
      <point x="95.0" y="0" type="line"/>
      <point x="172" y="0" type="line"/>
      <point x="172" y="150.22642" type="line"/>
      <point x="285.31237" y="267.20388" type="line"/>
    </contour>
  </outline>
</glyph>
<glyph name="ldot" format="1">
  <advance width="293"/>
  <unicode hex="0140"/>
  <outline>
    <contour>
      <point x="100" y="742" type="line"/>
      <point x="100" y="0" type="line"/>
      <point x="178" y="0" type="line"/>
      <point x="178" y="742" type="line"/>
    </contour>
    <contour>
      <point x="225" y="308" type="curve" smooth="yes"/>
      <point x="225" y="280"/>
      <point x="246" y="258"/>
      <point x="273" y="258" type="curve" smooth="yes"/>
      <point x="300" y="258"/>
      <point x="320" y="280"/>
      <point x="320" y="308" type="curve" smooth="yes"/>
      <point x="320" y="336"/>
      <point x="300" y="358"/>
      <point x="273" y="358" type="curve" smooth="yes"/>
      <point x="246" y="358"/>
      <point x="225" y="336"/>
    </contour>
  </outline>
</glyph>
<glyph name="Lslash" format="1">
  <advance width="532"/>
  <unicode hex="0141"/>
  <outline>
    <contour>
      <point x="508.0" y="0" type="line"/>
      <point x="508.0" y="74" type="line"/>
      <point x="201.0" y="74" type="line"/>
      <point x="201.0" y="418.26136" type="line"/>
      <point x="383.0" y="471.0" type="line"/>
      <point x="369.0" y="526" type="line"/>
      <point x="201.0" y="476.84091" type="line"/>
      <point x="201.0" y="700.0" type="line"/>
      <point x="121.0" y="700.0" type="line"/>
      <point x="121.0" y="453.43182" type="line"/>
      <point x="17" y="423.0" type="line"/>
      <point x="31.0" y="369.0" type="line"/>
      <point x="121.0" y="395.07955" type="line"/>
      <point x="121.0" y="0" type="line"/>
    </contour>
  </outline>
</glyph>
<glyph name="lslash" format="1">
  <advance width="341"/>
  <unicode hex="0142"/>
  <outline>
    <contour>
      <point x="218.0" y="0" type="line"/>
      <point x="218.0" y="436.63107" type="line"/>
      <point x="336" y="471.0" type="line"/>
      <point x="321" y="526" type="line"/>
      <point x="218.0" y="495.9026" type="line"/>
      <point x="218.0" y="742.0" type="line"/>
      <point x="140" y="742.0" type="line"/>
      <point x="140" y="473.11039" type="line"/>
      <point x="13.0" y="436.0" type="line"/>
      <point x="27.0" y="381.0" type="line"/>
      <point x="140" y="413.91262" type="line"/>
      <point x="140" y="0" type="line"/>
    </contour>
  </outline>
</glyph>
<glyph name="Eng" format="1">
  <advance width="795"/>
  <unicode hex="014A"/>
  <outline>
    <contour>
      <point x="398" y="0" type="move" name="blwm"/>
    </contour>
    <contour>
      <point x="398" y="700" type="move" name="abvm"/>
    </contour>
    <contour>
      <point x="488" y="-201" type="curve" smooth="yes"/>
      <point x="613" y="-201"/>
      <point x="689" y="-124"/>
      <point x="689" y="1" type="curve"/>
      <point x="688" y="1.16049" type="line"/>
      <point x="688" y="700.0" type="line"/>
      <point x="609" y="700.0" type="line"/>
      <point x="609" y="131" type="line"/>
      <point x="189.0" y="700.0" type="line"/>
      <point x="106.0" y="700.0" type="line"/>
      <point x="106.0" y="0" type="line"/>
      <point x="186.0" y="0" type="line"/>
      <point x="186.0" y="568" type="line"/>
      <point x="606" y="0" type="line"/>
      <point x="607.593" y="0" type="line"/>
      <point x="602.950174147" y="-79.0335788515"/>
      <point x="558.815077027" y="-121.0"/>
      <point x="487.0" y="-121.0" type="curve" smooth="yes"/>
      <point x="437" y="-121"/>
      <point x="384" y="-98"/>
      <point x="341" y="-53" type="curve"/>
      <point x="301" y="-115.0" type="line"/>
      <point x="348" y="-170"/>
      <point x="413" y="-201"/>
    </contour>
  </outline>
</glyph>
<glyph name="eng" format="1">
  <advance width="656"/>
  <unicode hex="014B"/>
  <outline>
    <contour>
      <point x="332" y="0" type="move" name="blwm"/>
    </contour>
    <contour>
      <point x="341" y="526" type="move" name="abvm"/>
    </contour>
    <contour>
      <point x="426" y="-197" type="curve" smooth="yes"/>
      <point x="508" y="-197"/>
      <point x="577" y="-141"/>
      <point x="577" y="-21" type="curve" smooth="yes"/>
      <point x="577" y="324" type="line" smooth="yes"/>
      <point x="577" y="452"/>
      <point x="503" y="529"/>
      <point x="377" y="529" type="curve" smooth="yes"/>
      <point x="280.870805071" y="527.664872293"/>
      <point x="209.697534071" y="490.232783188"/>
      <point x="173" y="410.14075" type="curve"/>
      <point x="173" y="526" type="line"/>
      <point x="95.0" y="526" type="line"/>
      <point x="95.0" y="0" type="line"/>
      <point x="173" y="0" type="line"/>
      <point x="173" y="282.05008" type="line"/>
      <point x="181.648816339" y="384.010002236"/>
      <point x="245.988321255" y="453.071324297"/>
      <point x="350.0" y="454.0" type="curve" smooth="yes"/>
      <point x="443" y="454"/>
      <point x="499" y="398"/>
      <point x="499" y="304" type="curve" smooth="yes"/>
      <point x="499.0" y="-30.0" type="line" smooth="yes"/>
      <point x="499" y="-96"/>
      <point x="469" y="-127"/>
      <point x="423" y="-126" type="curve" smooth="yes"/>
      <point x="397" y="-126"/>
      <point x="370" y="-116"/>
      <point x="347" y="-99" type="curve"/>
      <point x="319" y="-161" type="line"/>
      <point x="349" y="-184"/>
      <point x="387" y="-197"/>
    </contour>
  </outline>
</glyph>
<glyph name="OE" format="1">
  <advance width="1094"/>
  <unicode hex="0152"/>
  <outline>
    <contour>
      <point x="770" y="0" type="move" name="blwm"/>
    </contour>
    <contour>
      <point x="1035" y="10" type="move" name="ogonek"/>
    </contour>
    <contour>
      <point x="549" y="700" type="move" name="abvm"/>
    </contour>
    <contour>
      <point x="406.0" y="73" type="line"/>
      <point x="247" y="73"/>
      <point x="121" y="194"/>
      <point x="121" y="349" type="curve" smooth="yes"/>
      <point x="121" y="505"/>
      <point x="247" y="626"/>
      <point x="406" y="626" type="curve"/>
      <point x="549" y="626" type="line"/>
      <point x="549" y="72.13855" type="line"/>
    </contour>
    <contour>
      <point x="406" y="0" type="curve"/>
      <point x="1037" y="0" type="line"/>
      <point x="1037" y="74" type="line"/>
      <point x="629" y="74" type="line"/>
      <point x="629" y="318" type="line"/>
      <point x="982.0" y="318" type="line"/>
      <point x="982.0" y="391.0" type="line"/>
      <point x="629" y="391.0" type="line"/>
      <point x="629" y="626" type="line"/>
      <point x="1025" y="626" type="line"/>
      <point x="1025" y="700.0" type="line"/>
      <point x="406.0" y="700.0" type="line"/>
      <point x="201" y="700"/>
      <point x="40" y="545"/>
      <point x="40" y="350" type="curve" smooth="yes"/>
      <point x="40" y="154"/>
      <point x="202" y="0"/>
    </contour>
  </outline>
</glyph>
<glyph name="oe" format="1">
  <advance width="1054"/>
  <unicode hex="0153"/>
  <outline>
    <contour>
      <point x="529" y="526" type="move" name="abvm"/>
    </contour>
    <contour>
      <point x="760.0" y="469.0" type="curve" smooth="yes"/>
      <point x="863" y="469"/>
      <point x="931" y="397"/>
      <point x="937" y="294" type="curve"/>
      <point x="573.40527" y="294" type="line"/>
      <point x="584.310149642" y="397.681673079"/>
      <point x="657.721603897" y="469.0"/>
    </contour>
    <contour>
      <point x="498" y="263" type="curve" smooth="yes"/>
      <point x="498" y="145"/>
      <point x="419" y="65"/>
      <point x="309" y="65" type="curve" smooth="yes"/>
      <point x="199" y="65"/>
      <point x="120" y="145"/>
      <point x="120" y="263" type="curve" smooth="yes"/>
      <point x="120" y="379"/>
      <point x="199" y="460"/>
      <point x="309" y="460" type="curve" smooth="yes"/>
      <point x="419" y="460"/>
      <point x="498" y="379"/>
    </contour>
    <contour>
      <point x="973" y="84" type="curve"/>
      <point x="930.0" y="129" type="line"/>
      <point x="889" y="86"/>
      <point x="831" y="62"/>
      <point x="766" y="62" type="curve" smooth="yes"/>
      <point x="658.997322594" y="62.0"/>
      <point x="580.688069505" y="135.526899813"/>
      <point x="572.67716" y="248.0" type="curve"/>
      <point x="1015.0" y="248.0" type="line"/>
      <point x="1018" y="414"/>
      <point x="917" y="529"/>
      <point x="759" y="529" type="curve" smooth="yes"/>
      <point x="655.927838823" y="529.0"/>
      <point x="575.651601188" y="476.132858169"/>
      <point x="536.41162" y="390.97789" type="curve"/>
      <point x="496.677867637" y="475.994715551"/>
      <point x="414.996109151" y="529.0"/>
      <point x="309.0" y="529.0" type="curve" smooth="yes"/>
      <point x="153" y="529"/>
      <point x="42" y="420"/>
      <point x="42" y="264" type="curve" smooth="yes"/>
      <point x="42" y="106"/>
      <point x="153" y="-3"/>
      <point x="309" y="-3" type="curve" smooth="yes"/>
      <point x="414.712272032" y="-3.0"/>
      <point x="496.240237325" y="49.7217886924"/>
      <point x="536.09152" y="135.00818" type="curve"/>
      <point x="575.002637953" y="49.8589719151"/>
      <point x="655.15028452" y="-3.0"/>
      <point x="761.0" y="-3.0" type="curve" smooth="yes"/>
      <point x="848" y="-3"/>
      <point x="922" y="29"/>
    </contour>
  </outline>
</glyph>
<glyph name="tbar" format="1">
  <advance width="390"/>
  <unicode hex="0167"/>
  <outline>
    <contour>
      <point x="235" y="0" type="move" name="blwm"/>
    </contour>
    <contour>
      <point x="195" y="264" type="move" name="center"/>
    </contour>
    <contour>
      <point x="368" y="36" type="curve"/>
      <point x="345" y="96.0" type="line"/>
      <point x="316" y="79"/>
      <point x="288" y="70"/>
      <point x="261" y="69" type="curve"/>
      <point x="216" y="69"/>
      <point x="191" y="95"/>
      <point x="191" y="159" type="curve"/>
      <point x="191.0" y="266" type="line"/>
      <point x="358.0" y="266" type="line"/>
      <point x="358.0" y="327" type="line"/>
      <point x="191.0" y="327" type="line"/>
      <point x="191.0" y="449.0" type="line"/>
      <point x="358.0" y="449.0" type="line"/>
      <point x="358.0" y="510.0" type="line"/>
      <point x="191.0" y="510.0" type="line"/>
      <point x="191.0" y="648" type="line"/>
      <point x="114.0" y="648" type="line"/>
      <point x="114.0" y="510.0" type="line"/>
      <point x="38" y="510.0" type="line"/>
      <point x="38" y="449.0" type="line"/>
      <point x="114.0" y="449.0" type="line"/>
      <point x="114.0" y="327" type="line"/>
      <point x="38" y="327" type="line"/>
      <point x="38" y="266" type="line"/>
      <point x="114.0" y="266" type="line"/>
      <point x="114.0" y="146" type="line"/>
      <point x="114" y="42"/>
      <point x="171" y="-4"/>
      <point x="248" y="-3" type="curve"/>
      <point x="290" y="-3"/>
      <point x="330" y="11"/>
    </contour>
  </outline>
</glyph>
<glyph name="Uogonek" format="1">
  <advance width="769"/>
  <unicode hex="0172"/>
  <outline>
    <contour>
      <point x="450" y="-200" type="curve" smooth="yes"/>
      <point x="483" y="-200"/>
      <point x="516" y="-180"/>
      <point x="537" y="-150" type="curve"/>
      <point x="511.0" y="-120.0" type="line"/>
      <point x="495" y="-140"/>
      <point x="478" y="-153"/>
      <point x="458" y="-153" type="curve" smooth="yes"/>
      <point x="437" y="-153"/>
      <point x="423" y="-139"/>
      <point x="423" y="-115" type="curve" smooth="yes"/>
      <point x="423.0" y="-87.072130732"/>
      <point x="438.766254449" y="-50.7974208735"/>
      <point x="481.90958" y="9.00031" type="curve"/>
      <point x="605.819614836" y="41.9420125056"/>
      <point x="678.0" y="141.236014735"/>
      <point x="678.0" y="288.0" type="curve"/>
      <point x="678" y="700.0" type="line"/>
      <point x="598" y="700.0" type="line"/>
      <point x="598" y="288" type="line"/>
      <point x="598" y="150"/>
      <point x="518" y="70"/>
      <point x="385" y="70" type="curve"/>
      <point x="251" y="70"/>
      <point x="169" y="151"/>
      <point x="169" y="288" type="curve"/>
      <point x="169" y="700.0" type="line"/>
      <point x="90.0" y="700.0" type="line"/>
      <point x="90.0" y="288" type="line"/>
      <point x="90" y="106"/>
      <point x="200" y="-3"/>
      <point x="384" y="-3" type="curve"/>
      <point x="400.233721838" y="-3.0"/>
      <point x="415.900856791" y="-2.14225041081"/>
      <point x="430.97418" y="-0.44601" type="curve"/>
      <point x="394.247098308" y="-52.027281047"/>
      <point x="377.0" y="-90.6562213147"/>
      <point x="377.0" y="-126.0" type="curve" smooth="yes"/>
      <point x="377" y="-176"/>
      <point x="412" y="-200"/>
    </contour>
  </outline>
</glyph>
<glyph name="uogonek" format="1">
  <advance width="644"/>
  <unicode hex="0173"/>
  <outline>
    <contour>
      <point x="475" y="526" type="line"/>
      <point x="475" y="243" type="line"/>
      <point x="467" y="142"/>
      <point x="402" y="74"/>
      <point x="302" y="72" type="curve" smooth="yes"/>
      <point x="211" y="72"/>
      <point x="154" y="127"/>
      <point x="154" y="222" type="curve" smooth="yes"/>
      <point x="154" y="526" type="line"/>
      <point x="77" y="526" type="line"/>
      <point x="77" y="202" type="line" smooth="yes"/>
      <point x="77" y="75"/>
      <point x="149" y="-2"/>
      <point x="274" y="-2" type="curve" smooth="yes"/>
      <point x="371" y="-2"/>
      <point x="440" y="38"/>
      <point x="475" y="116" type="curve"/>
      <point x="475" y="2" type="line"/>
      <point x="494" y="2" type="line"/>
      <point x="452" y="-54"/>
      <point x="435" y="-92"/>
      <point x="435" y="-127" type="curve" smooth="yes"/>
      <point x="435" y="-178"/>
      <point x="473" y="-200"/>
      <point x="508" y="-200" type="curve" smooth="yes"/>
      <point x="541" y="-200"/>
      <point x="573" y="-181"/>
      <point x="595" y="-150" type="curve"/>
      <point x="570" y="-120" type="line"/>
      <point x="553" y="-140"/>
      <point x="536" y="-153"/>
      <point x="516" y="-153" type="curve" smooth="yes"/>
      <point x="496" y="-153"/>
      <point x="481" y="-141"/>
      <point x="481" y="-115" type="curve" smooth="yes"/>
      <point x="481" y="-91"/>
      <point x="493" y="-55"/>
      <point x="537" y="0" type="curve"/>
      <point x="553" y="0" type="line"/>
      <point x="553" y="526" type="line"/>
    </contour>
  </outline>
</glyph>
<glyph name="florin" format="1">
  <advance width="348"/>
  <unicode hex="0192"/>
  <note>
    florin
  </note>
  <outline>
    <contour>
      <point x="391" y="656" type="curve"/>
      <point x="422" y="714" type="line"/>
      <point x="392" y="736"/>
      <point x="347" y="751"/>
      <point x="306" y="752" type="curve" smooth="yes"/>
      <point x="214" y="753"/>
      <point x="146" y="689"/>
      <point x="134" y="589" type="curve" smooth="yes"/>
      <point x="118" y="463" type="line"/>
      <point x="51" y="463" type="line"/>
      <point x="45" y="406" type="line"/>
      <point x="111" y="406" type="line"/>
      <point x="59" y="-24" type="line" smooth="yes"/>
      <point x="51" y="-89"/>
      <point x="25" y="-131"/>
      <point x="-29" y="-130" type="curve" smooth="yes"/>
      <point x="-52" y="-129"/>
      <point x="-80" y="-118"/>
      <point x="-98" y="-101" type="curve"/>
      <point x="-123" y="-160" type="line"/>
      <point x="-97" y="-181"/>
      <point x="-57" y="-196"/>
      <point x="-22" y="-197" type="curve" smooth="yes"/>
      <point x="70" y="-198"/>
      <point x="122" y="-134"/>
      <point x="135" y="-35" type="curve" smooth="yes"/>
      <point x="189" y="406" type="line"/>
      <point x="340" y="406" type="line"/>
      <point x="347" y="463" type="line"/>
      <point x="196" y="463" type="line"/>
      <point x="210" y="579" type="line" smooth="yes"/>
      <point x="218" y="644"/>
      <point x="260" y="686"/>
      <point x="315" y="685" type="curve" smooth="yes"/>
      <point x="340" y="684"/>
      <point x="370" y="673"/>
    </contour>
  </outline>
</glyph>
<glyph name="jdotless" format="1">
  <advance width="253"/>
  <unicode hex="0237"/>
  <outline>
    <contour>
      <point x="128" y="526" type="move" name="abvm"/>
    </contour>
    <contour>
      <point x="92" y="526" type="line"/>
      <point x="92" y="-16" type="line"/>
      <point x="92" y="-91"/>
      <point x="64" y="-130"/>
      <point x="11" y="-129" type="curve"/>
      <point x="-17" y="-128"/>
      <point x="-45" y="-119"/>
      <point x="-69" y="-101" type="curve"/>
      <point x="-92" y="-160" type="line"/>
      <point x="-58" y="-183"/>
      <point x="-17" y="-195"/>
      <point x="26" y="-196" type="curve"/>
      <point x="118" y="-197"/>
      <point x="170" y="-137"/>
      <point x="170" y="-26" type="curve"/>
      <point x="170" y="526" type="line"/>
    </contour>
  </outline>
</glyph>
<glyph name="caron" format="1">
  <advance width="350"/>
  <unicode hex="02C7"/>
  <outline>
    <contour>
      <point x="177" y="528" type="move" name="_abvm"/>
    </contour>
    <contour>
      <point x="216" y="612" type="line"/>
      <point x="320" y="747" type="line"/>
      <point x="248" y="747" type="line"/>
      <point x="175" y="653" type="line"/>
      <point x="103" y="747" type="line"/>
      <point x="30" y="747" type="line"/>
      <point x="135" y="612" type="line"/>
    </contour>
  </outline>
</glyph>
<glyph name="breve" format="1">
  <advance width="350"/>
  <unicode hex="02D8"/>
  <outline>
    <contour>
      <point x="175" y="527" type="move" name="_abvm"/>
    </contour>
    <contour>
      <point x="247" y="741" type="line"/>
      <point x="245" y="699"/>
      <point x="215" y="668"/>
      <point x="175" y="668" type="curve" smooth="yes"/>
      <point x="135" y="668"/>
      <point x="105" y="699"/>
      <point x="103" y="741" type="curve"/>
      <point x="48" y="741" type="line"/>
      <point x="51" y="665"/>
      <point x="104" y="612"/>
      <point x="175" y="612" type="curve" smooth="yes"/>
      <point x="246" y="612"/>
      <point x="299" y="665"/>
      <point x="302" y="741" type="curve"/>
    </contour>
  </outline>
</glyph>
<glyph name="dotaccent" format="1">
  <advance width="350"/>
  <unicode hex="02D9"/>
  <outline>
    <contour>
      <point x="175" y="526" type="move" name="_abvm"/>
    </contour>
    <contour>
      <point x="124" y="677" type="curve" smooth="yes"/>
      <point x="124" y="647"/>
      <point x="146" y="624"/>
      <point x="175" y="624" type="curve" smooth="yes"/>
      <point x="204" y="624"/>
      <point x="226" y="647"/>
      <point x="226" y="677" type="curve" smooth="yes"/>
      <point x="226" y="708"/>
      <point x="204" y="730"/>
      <point x="175" y="730" type="curve" smooth="yes"/>
      <point x="146" y="730"/>
      <point x="124" y="708"/>
    </contour>
  </outline>
</glyph>
<glyph name="ring" format="1">
  <advance width="350"/>
  <unicode hex="02DA"/>
  <outline>
    <contour>
      <point x="175" y="526" type="move" name="_abvm"/>
    </contour>
    <contour>
      <point x="60" y="678" type="curve" smooth="yes"/>
      <point x="60" y="617"/>
      <point x="112" y="565"/>
      <point x="175" y="565" type="curve" smooth="yes"/>
      <point x="239" y="565"/>
      <point x="291" y="617"/>
      <point x="291" y="678" type="curve" smooth="yes"/>
      <point x="291" y="739"/>
      <point x="239" y="792"/>
      <point x="175" y="792" type="curve" smooth="yes"/>
      <point x="112" y="792"/>
      <point x="60" y="739"/>
    </contour>
    <contour>
      <point x="253" y="678" type="curve" smooth="yes"/>
      <point x="253" y="638"/>
      <point x="217" y="605"/>
      <point x="175" y="605" type="curve" smooth="yes"/>
      <point x="133" y="605"/>
      <point x="98" y="638"/>
      <point x="98" y="678" type="curve" smooth="yes"/>
      <point x="98" y="718"/>
      <point x="133" y="752"/>
      <point x="175" y="752" type="curve" smooth="yes"/>
      <point x="217" y="752"/>
      <point x="253" y="718"/>
    </contour>
  </outline>
</glyph>
<glyph name="ogonek" format="1">
  <advance width="350"/>
  <unicode hex="02DB"/>
  <outline>
    <contour>
      <point x="256" y="10" type="move" name="_ogonek"/>
    </contour>
    <contour>
      <point x="156" y="7" type="line"/>
      <point x="116" y="-48"/>
      <point x="96" y="-89"/>
      <point x="96" y="-126" type="curve" smooth="yes"/>
      <point x="96" y="-176"/>
      <point x="131" y="-200"/>
      <point x="169" y="-200" type="curve" smooth="yes"/>
      <point x="202" y="-200"/>
      <point x="234" y="-180"/>
      <point x="256" y="-150" type="curve"/>
      <point x="230" y="-120" type="line"/>
      <point x="214" y="-140"/>
      <point x="196" y="-153"/>
      <point x="177" y="-153" type="curve" smooth="yes"/>
      <point x="157" y="-153"/>
      <point x="141" y="-139"/>
      <point x="141" y="-115" type="curve" smooth="yes"/>
      <point x="141" y="-87"/>
      <point x="157" y="-51"/>
      <point x="200" y="7" type="curve"/>
    </contour>
  </outline>
</glyph>
<glyph name="tilde" format="1">
  <advance width="350"/>
  <unicode hex="02DC"/>
  <outline>
    <contour>
      <point x="175" y="526" type="move" name="_abvm"/>
    </contour>
    <contour>
      <point x="26" y="632" type="curve"/>
      <point x="79" y="632" type="line"/>
      <point x="79" y="666"/>
      <point x="94" y="685"/>
      <point x="121" y="685" type="curve" smooth="yes"/>
      <point x="159" y="685"/>
      <point x="184" y="624"/>
      <point x="243" y="624" type="curve" smooth="yes"/>
      <point x="297" y="624"/>
      <point x="326" y="663"/>
      <point x="326" y="736" type="curve"/>
      <point x="273" y="736" type="line"/>
      <point x="273" y="702"/>
      <point x="258" y="683"/>
      <point x="231" y="683" type="curve" smooth="yes"/>
      <point x="193" y="683"/>
      <point x="162" y="744"/>
      <point x="109" y="744" type="curve" smooth="yes"/>
      <point x="55" y="744"/>
      <point x="26" y="705"/>
    </contour>
  </outline>
</glyph>
<glyph name="commaaccentcomb" format="1">
  <advance width="196"/>
  <unicode hex="0326"/>
  <outline>
    <contour>
      <point x="95" y="0" type="move" name="_blwm"/>
    </contour>
    <contour>
      <point x="86" y="-218.0" type="line"/>
      <point x="132" y="-147" type="line" smooth="yes"/>
      <point x="141" y="-133"/>
      <point x="147" y="-120"/>
      <point x="147" y="-105" type="curve" smooth="yes"/>
      <point x="147" y="-74"/>
      <point x="125" y="-55"/>
      <point x="100" y="-55" type="curve" smooth="yes"/>
      <point x="73" y="-55"/>
      <point x="52" y="-76"/>
      <point x="52" y="-104" type="curve" smooth="yes"/>
      <point x="52.0" y="-121.255683711"/>
      <point x="59.4880126412" y="-137.189953426"/>
      <point x="74.75637" y="-146.21477" type="curve"/>
      <point x="42" y="-218.0" type="line"/>
    </contour>
  </outline>
</glyph>
<glyph name="Delta" format="1">
  <advance width="718"/>
  <unicode hex="0394"/>
  <outline>
    <contour>
      <point x="357.0" y="613" type="line"/>
      <point x="598.37031" y="65" type="line"/>
      <point x="116.52365" y="65" type="line"/>
    </contour>
    <contour>
      <point x="4" y="0" type="line"/>
      <point x="713.0" y="0" type="line"/>
      <point x="400.0" y="700.0" type="line"/>
      <point x="317" y="700.0" type="line"/>
    </contour>
  </outline>
</glyph>
<glyph name="Omega" format="1">
  <advance width="899"/>
  <unicode hex="03A9"/>
  <outline>
    <contour>
      <point x="20" y="700" type="move" name="topleft"/>
    </contour>
    <contour>
      <point x="91" y="365" type="curve" smooth="yes"/>
      <point x="91" y="253"/>
      <point x="154" y="133"/>
      <point x="243" y="69" type="curve"/>
      <point x="11" y="69" type="line"/>
      <point x="11" y="0" type="line"/>
      <point x="333" y="0" type="line"/>
      <point x="333" y="65" type="line"/>
      <point x="234" y="120"/>
      <point x="163" y="243"/>
      <point x="163" y="358" type="curve" smooth="yes"/>
      <point x="163" y="516"/>
      <point x="284" y="631"/>
      <point x="450" y="631" type="curve" smooth="yes"/>
      <point x="616" y="631"/>
      <point x="738" y="516"/>
      <point x="738" y="358" type="curve" smooth="yes"/>
      <point x="738" y="243"/>
      <point x="666" y="120"/>
      <point x="568" y="66" type="curve"/>
      <point x="568" y="0" type="line"/>
      <point x="889" y="0" type="line"/>
      <point x="889" y="69" type="line"/>
      <point x="658" y="69" type="line"/>
      <point x="747" y="133"/>
      <point x="810" y="254"/>
      <point x="810" y="365" type="curve" smooth="yes"/>
      <point x="810" y="559"/>
      <point x="657" y="703"/>
      <point x="450" y="703" type="curve" smooth="yes"/>
      <point x="243" y="703"/>
      <point x="91" y="559"/>
    </contour>
  </outline>
</glyph>
<glyph name="pi" format="1">
  <advance width="722"/>
  <unicode hex="03C0"/>
  <outline>
    <contour>
      <point x="249.0" y="0" type="line"/>
      <point x="302.7971" y="464.0" type="line"/>
      <point x="486.0" y="464.0" type="line"/>
      <point x="486.0" y="0" type="line"/>
      <point x="552" y="0" type="line"/>
      <point x="552" y="464.0" type="line"/>
      <point x="713.0" y="464.0" type="line"/>
      <point x="714.0" y="526" type="line"/>
      <point x="163" y="526" type="line"/>
      <point x="66" y="526"/>
      <point x="-7" y="461"/>
      <point x="-6" y="376" type="curve"/>
      <point x="-5" y="337"/>
      <point x="9" y="292"/>
      <point x="31" y="259" type="curve"/>
      <point x="86" y="283" type="line"/>
      <point x="68" y="308"/>
      <point x="58" y="338"/>
      <point x="57" y="364" type="curve"/>
      <point x="56" y="421"/>
      <point x="105" y="464"/>
      <point x="171" y="464" type="curve"/>
      <point x="235.83644" y="464.0" type="line"/>
      <point x="183.0" y="0" type="line"/>
    </contour>
  </outline>
</glyph>
<glyph name="uni0964" format="1">
  <advance width="248"/>
  <unicode hex="0964"/>
  <outline>
    <contour>
      <point x="216" y="-18" type="line"/>
      <point x="216" y="680" type="line"/>
      <point x="142" y="680" type="line"/>
      <point x="142" y="-18" type="line"/>
    </contour>
  </outline>
</glyph>
<glyph name="uni0A01" format="1">
  <advance width="0"/>
  <unicode hex="0A01"/>
  <outline>
    <contour>
      <point x="0" y="691" type="move" name="_abvm_candra"/>
    </contour>
    <contour>
      <point x="0" y="799" type="move" name="abvm_bindu"/>
    </contour>
    <contour>
      <point x="40" y="885" type="curve" smooth="yes"/>
      <point x="40" y="909"/>
      <point x="23" y="927"/>
      <point x="0" y="927" type="curve" smooth="yes"/>
      <point x="-23" y="927"/>
      <point x="-40" y="909"/>
      <point x="-40" y="885" type="curve" smooth="yes"/>
      <point x="-40" y="862"/>
      <point x="-23" y="844"/>
      <point x="0" y="844" type="curve" smooth="yes"/>
      <point x="23" y="844"/>
      <point x="40" y="862"/>
    </contour>
    <contour>
      <point x="162" y="877" type="curve"/>
      <point x="116" y="888" type="line"/>
      <point x="101" y="831"/>
      <point x="60" y="794"/>
      <point x="0" y="794" type="curve" smooth="yes"/>
      <point x="-62" y="794"/>
      <point x="-102" y="832"/>
      <point x="-116" y="888" type="curve"/>
      <point x="-163" y="877" type="line"/>
      <point x="-151" y="796"/>
      <point x="-82" y="742"/>
      <point x="1" y="742" type="curve" smooth="yes"/>
      <point x="83" y="742"/>
      <point x="150" y="796"/>
    </contour>
  </outline>
</glyph>
<glyph name="uni0A03" format="1">
  <advance width="437"/>
  <unicode hex="0A03"/>
  <outline>
    <contour>
      <point x="337" y="507" type="curve" smooth="yes"/>
      <point x="337" y="572"/>
      <point x="283" y="627"/>
      <point x="219" y="627" type="curve" smooth="yes"/>
      <point x="154" y="627"/>
      <point x="100" y="572"/>
      <point x="100" y="507" type="curve" smooth="yes"/>
      <point x="100" y="442"/>
      <point x="154" y="387"/>
      <point x="219" y="387" type="curve" smooth="yes"/>
      <point x="283" y="387"/>
      <point x="337" y="442"/>
    </contour>
    <contour>
      <point x="151" y="507" type="curve" smooth="yes"/>
      <point x="151" y="544"/>
      <point x="182" y="573"/>
      <point x="219" y="573" type="curve" smooth="yes"/>
      <point x="255" y="573"/>
      <point x="286" y="544"/>
      <point x="286" y="507" type="curve" smooth="yes"/>
      <point x="286" y="470"/>
      <point x="255" y="440"/>
      <point x="219" y="440" type="curve" smooth="yes"/>
      <point x="182" y="440"/>
      <point x="151" y="470"/>
    </contour>
    <contour>
      <point x="337" y="174" type="curve" smooth="yes"/>
      <point x="337" y="239"/>
      <point x="283" y="293"/>
      <point x="219" y="293" type="curve" smooth="yes"/>
      <point x="154" y="293"/>
      <point x="100" y="239"/>
      <point x="100" y="174" type="curve" smooth="yes"/>
      <point x="100" y="109"/>
      <point x="154" y="53"/>
      <point x="219" y="53" type="curve" smooth="yes"/>
      <point x="283" y="53"/>
      <point x="337" y="109"/>
    </contour>
    <contour>
      <point x="151" y="174" type="curve" smooth="yes"/>
      <point x="151" y="210"/>
      <point x="182" y="240"/>
      <point x="219" y="240" type="curve" smooth="yes"/>
      <point x="255" y="240"/>
      <point x="286" y="210"/>
      <point x="286" y="174" type="curve" smooth="yes"/>
      <point x="286" y="136"/>
      <point x="255" y="107"/>
      <point x="219" y="107" type="curve" smooth="yes"/>
      <point x="182" y="107"/>
      <point x="151" y="136"/>
    </contour>
  </outline>
</glyph>
<glyph name="uni0A05" format="1">
  <advance width="830"/>
  <unicode hex="0A05"/>
  <outline>
    <contour>
      <point x="687" y="685" type="move" name="abvm_bindu"/>
    </contour>
    <contour>
      <point x="687" y="695" type="move" name="abvm_candra"/>
    </contour>
    <contour>
      <point x="687" y="675" type="move" name="abvm"/>
    </contour>
    <contour>
      <point x="735.0" y="0" type="line"/>
      <point x="735.0" y="617" type="line"/>
      <point x="831.0" y="617" type="line"/>
      <point x="831.0" y="685" type="line"/>
      <point x="658" y="685" type="line"/>
      <point x="658" y="403.0" type="line"/>
      <point x="489.99102" y="403.0" type="line"/>
      <point x="481.065628359" y="532.899433187"/>
      <point x="413.610717916" y="603.0"/>
      <point x="315.0" y="603.0" type="curve" smooth="yes"/>
      <point x="257.893352568" y="603.0"/>
      <point x="213.432055021" y="579.040389691"/>
      <point x="183.24498" y="536.52412" type="curve"/>
      <point x="158.875139509" y="640.314298739"/>
      <point x="88.2467109183" y="685.0"/>
      <point x="6.0" y="685.0" type="curve" smooth="yes"/>
      <point x="-8" y="685" type="line"/>
      <point x="-8" y="617" type="line"/>
      <point x="12.0" y="617" type="line" smooth="yes"/>
      <point x="93.8200133969" y="617.0"/>
      <point x="127.908652947" y="530.628942562"/>
      <point x="131.41214" y="455.36978" type="curve"/>
      <point x="102.04928266" y="384.037583032"/>
      <point x="78.47545897" y="301.923021866"/>
      <point x="69.0" y="202.0" type="curve"/>
      <point x="133" y="185.0" type="line"/>
      <point x="177.807663125" y="285.369165399"/>
      <point x="198.522606153" y="351.205431993"/>
      <point x="201.62206" y="422.19256" type="curve"/>
      <point x="225.650407267" y="500.644633405"/>
      <point x="271.780184339" y="530.0"/>
      <point x="321.0" y="530.0" type="curve" smooth="yes"/>
      <point x="389.29977975" y="530.0"/>
      <point x="416.293643584" y="471.765430019"/>
      <point x="422.04137" y="391.41339" type="curve"/>
      <point x="371.810176992" y="286.751365826"/>
      <point x="357.58023078" y="179.563538623"/>
      <point x="352.0" y="94.0" type="curve"/>
      <point x="417.0" y="84" type="line"/>
      <point x="457.576475609" y="175.512902436"/>
      <point x="483.246202708" y="255.100406065"/>
      <point x="489.50488" y="335" type="curve"/>
      <point x="658" y="335" type="line"/>
      <point x="658" y="0" type="line"/>
    </contour>
  </outline>
</glyph>
<glyph name="uni0A06" format="1">
  <advance width="1088"/>
  <unicode hex="0A06"/>
  <outline>
    <contour>
      <point x="943" y="685" type="move" name="abvm_bindu"/>
    </contour>
    <contour>
      <point x="943" y="695" type="move" name="abvm_candra"/>
    </contour>
    <contour>
      <point x="943" y="675" type="move" name="abvm"/>
    </contour>
    <component base="uni0A05"/>
    <component base="uni0A3E" xOffset="831"/>
  </outline>
</glyph>
<glyph name="uni0A0A" format="1">
  <advance width="640"/>
  <unicode hex="0A0A"/>
  <outline>
    <contour>
      <point x="647" y="680" type="move" name="abvm_bindu"/>
    </contour>
    <contour>
      <point x="740" y="666" type="move" name="abvm_candra"/>
    </contour>
    <component base="uni0A73"/>
    <component base="uni0A42" xOffset="368"/>
  </outline>
</glyph>
<glyph name="uni0A0F" format="1">
  <advance width="622"/>
  <unicode hex="0A0F"/>
  <outline>
    <contour>
      <point x="478" y="670" type="move" name="_abvm"/>
    </contour>
    <contour>
      <point x="609" y="680" type="move" name="abvm_bindu"/>
    </contour>
    <contour>
      <point x="370" y="2" type="move" name="blwm"/>
    </contour>
    <contour>
      <point x="679" y="690" type="move" name="abvm_candra"/>
    </contour>
    <contour>
      <point x="365" y="30" type="move" name="blwm_caret_1"/>
    </contour>
    <contour>
      <point x="98" y="-22" type="move" name="blwm_nukta"/>
    </contour>
    <contour>
      <point x="543" y="670" type="move" name="abvm"/>
    </contour>
    <contour>
      <point x="419.0" y="393.0" type="line"/>
      <point x="265.057947232" y="393.0"/>
      <point x="151.342693078" y="487.167278572"/>
      <point x="143.41673" y="617" type="curve"/>
      <point x="450.0" y="617" type="line"/>
      <point x="450.0" y="393.0" type="line"/>
    </contour>
    <contour>
      <point x="546" y="30" type="curve"/>
      <point x="528" y="95.0" type="line"/>
      <point x="482" y="75"/>
      <point x="424" y="63"/>
      <point x="366" y="63" type="curve" smooth="yes"/>
      <point x="220.602298019" y="63.0"/>
      <point x="138.84195496" y="142.748082701"/>
      <point x="117.10406" y="189.47489" type="curve"/>
      <point x="144.847855087" y="233.827123222"/>
      <point x="223.924302321" y="321.478989688"/>
      <point x="419.0" y="327.0" type="curve" smooth="yes"/>
      <point x="527" y="327" type="line"/>
      <point x="527" y="617" type="line"/>
      <point x="622" y="617" type="line"/>
      <point x="622" y="685" type="line"/>
      <point x="507.92918" y="685" type="line"/>
      <point x="497.090153387" y="833.559155972"/>
      <point x="404.200830819" y="926.0"/>
      <point x="240.0" y="926.0" type="curve" smooth="yes"/>
      <point x="196" y="926"/>
      <point x="150" y="919"/>
      <point x="113" y="906" type="curve"/>
      <point x="129" y="843.0" type="line"/>
      <point x="165" y="853"/>
      <point x="207" y="859"/>
      <point x="248" y="859" type="curve" smooth="yes"/>
      <point x="380.638262771" y="859.0"/>
      <point x="435.457713944" y="789.548802553"/>
      <point x="446.13704" y="685" type="curve"/>
      <point x="-8" y="685" type="line"/>
      <point x="-8" y="617" type="line"/>
      <point x="66.77448" y="617" type="line"/>
      <point x="75.3969905131" y="505.431046506"/>
      <point x="155.307150417" y="411.109390247"/>
      <point x="270.84513" y="370.25004" type="curve"/>
      <point x="128.716516891" y="342.124890246"/>
      <point x="62.8213426129" y="254.07433982"/>
      <point x="42.0" y="207.0" type="curve"/>
      <point x="65" y="110"/>
      <point x="183" y="-6"/>
      <point x="371" y="-6" type="curve" smooth="yes"/>
      <point x="438" y="-6"/>
      <point x="502" y="8"/>
    </contour>
  </outline>
</glyph>
<glyph name="uni0A13" format="1">
  <advance width="640"/>
  <unicode hex="0A13"/>
  <outline>
    <contour>
      <point x="628" y="680" type="move" name="abvm_bindu"/>
    </contour>
    <contour>
      <point x="374" y="1" type="move" name="blwm"/>
    </contour>
    <contour>
      <point x="727" y="650" type="move" name="abvm_candra"/>
    </contour>
    <contour>
      <point x="368" y="30" type="move" name="blwm_caret_1"/>
    </contour>
    <contour>
      <point x="92" y="-8" type="move" name="blwm_nukta"/>
    </contour>
    <contour>
      <point x="535" y="670" type="move" name="abvm"/>
    </contour>
    <contour>
      <point x="128.0" y="543.0" type="curve" smooth="yes"/>
      <point x="128.0" y="568.976626616"/>
      <point x="129.011512227" y="593.693299405"/>
      <point x="131.13146" y="617" type="curve"/>
      <point x="506.77028" y="617" type="line"/>
      <point x="497.03819531" y="500.313671785"/>
      <point x="428.702079032" y="406.0"/>
      <point x="272.0" y="406.0" type="curve" smooth="yes"/>
      <point x="135.44556" y="406.0" type="line"/>
      <point x="130.183750383" y="450.968385881"/>
      <point x="127.802319869" y="497.335889846"/>
    </contour>
    <contour>
      <point x="572" y="180" type="curve" smooth="yes"/>
      <point x="572.0" y="264.040911117"/>
      <point x="526.063685818" y="342.09012908"/>
      <point x="424.95664" y="375.02005" type="curve"/>
      <point x="517.599671979" y="417.962217172"/>
      <point x="575.330991528" y="505.066383552"/>
      <point x="581.45787" y="617" type="curve"/>
      <point x="647" y="617" type="line"/>
      <point x="647" y="685" type="line"/>
      <point x="141.418" y="685" type="line"/>
      <point x="166.16278538" y="796.178697959"/>
      <point x="227.071362045" y="862.0"/>
      <point x="340.0" y="862.0" type="curve" smooth="yes"/>
      <point x="373" y="862"/>
      <point x="433" y="856"/>
      <point x="483" y="845" type="curve"/>
      <point x="499.0" y="909.0" type="line"/>
      <point x="445" y="922"/>
      <point x="378" y="929"/>
      <point x="336" y="929" type="curve" smooth="yes"/>
      <point x="178.995454253" y="929.0"/>
      <point x="94.1974077531" y="839.986815583"/>
      <point x="65.39928" y="685" type="curve"/>
      <point x="-8" y="685" type="line"/>
      <point x="-8" y="617" type="line"/>
      <point x="56.62508" y="617" type="line"/>
      <point x="54.8633569284" y="594.752475872"/>
      <point x="54.0" y="571.37552869"/>
      <point x="54.0" y="547.0" type="curve" smooth="yes"/>
      <point x="54" y="255"/>
      <point x="151" y="-6"/>
      <point x="373" y="-6" type="curve" smooth="yes"/>
      <point x="495" y="-6"/>
      <point x="572" y="77"/>
    </contour>
    <contour>
      <point x="362" y="63" type="curve" smooth="yes"/>
      <point x="241.049014084" y="63.0"/>
      <point x="173.248886451" y="189.043463927"/>
      <point x="144.55383" y="345" type="curve"/>
      <point x="291" y="345" type="line" smooth="yes"/>
      <point x="447" y="345"/>
      <point x="496" y="266"/>
      <point x="496" y="193" type="curve" smooth="yes"/>
      <point x="496" y="111"/>
      <point x="438" y="63"/>
    </contour>
  </outline>
</glyph>
<glyph name="uni0A15" format="1">
  <advance width="663"/>
  <unicode hex="0A15"/>
  <outline>
    <contour>
      <point x="528" y="681" type="move" name="abvm_bindu"/>
    </contour>
    <contour>
      <point x="553" y="0" type="move" name="blwm"/>
    </contour>
    <contour>
      <point x="528" y="691" type="move" name="abvm_candra"/>
    </contour>
    <contour>
      <point x="293" y="18" type="move" name="blwm_caret_1"/>
    </contour>
    <contour>
      <point x="102" y="-16" type="move" name="blwm_nukta"/>
    </contour>
    <contour>
      <point x="527" y="671" type="move" name="abvm"/>
    </contour>
    <contour>
      <point x="591" y="0" type="line"/>
      <point x="591" y="26.0" type="line" smooth="yes"/>
      <point x="591.0" y="128.427394243"/>
      <point x="564.508868551" y="226.439599912"/>
      <point x="520.65431" y="305.92169" type="curve"/>
      <point x="552.351316098" y="384.345774265"/>
      <point x="567.0" y="477.172887133"/>
      <point x="567.0" y="570.0" type="curve" smooth="yes"/>
      <point x="567" y="617" type="line"/>
      <point x="663" y="617" type="line"/>
      <point x="663" y="685" type="line"/>
      <point x="0" y="685" type="line"/>
      <point x="0" y="617" type="line"/>
      <point x="494.0" y="617" type="line"/>
      <point x="494.0" y="574" type="line" smooth="yes"/>
      <point x="494" y="499"/>
      <point x="485" y="433"/>
      <point x="467" y="376" type="curve"/>
      <point x="410" y="451"/>
      <point x="328" y="491"/>
      <point x="241" y="491" type="curve" smooth="yes"/>
      <point x="115" y="491"/>
      <point x="35" y="406"/>
      <point x="35" y="296" type="curve" smooth="yes"/>
      <point x="35" y="176"/>
      <point x="133" y="90"/>
      <point x="257" y="90" type="curve" smooth="yes"/>
      <point x="351.642545297" y="90.0"/>
      <point x="428.920840392" y="140.264934794"/>
      <point x="480.09806" y="234.69682" type="curve"/>
      <point x="501.982220769" y="175.733726892"/>
      <point x="514.0" y="105.872789856"/>
      <point x="514.0" y="28.0" type="curve" smooth="yes"/>
      <point x="514" y="0" type="line"/>
    </contour>
    <contour>
      <point x="256.0" y="159.0" type="curve" smooth="yes"/>
      <point x="172" y="159"/>
      <point x="112" y="213"/>
      <point x="112" y="290" type="curve" smooth="yes"/>
      <point x="112" y="369"/>
      <point x="168" y="422"/>
      <point x="254" y="422" type="curve" smooth="yes"/>
      <point x="328.953264711" y="422.0"/>
      <point x="398.505479696" y="381.492127048"/>
      <point x="446.42943" y="305.57859" type="curve"/>
      <point x="405.394413453" y="209.26722869"/>
      <point x="336.531795771" y="159.0"/>
    </contour>
  </outline>
</glyph>
<glyph name="uni0A16" format="1">
  <advance width="653"/>
  <unicode hex="0A16"/>
  <outline>
    <contour>
      <point x="510" y="680" type="move" name="abvm_bindu"/>
    </contour>
    <contour>
      <point x="519" y="0" type="move" name="blwm"/>
    </contour>
    <contour>
      <point x="510" y="690" type="move" name="abvm_candra"/>
    </contour>
    <contour>
      <point x="318" y="30" type="move" name="blwm_caret_1"/>
    </contour>
    <contour>
      <point x="114" y="49" type="move" name="blwm_nukta"/>
    </contour>
    <contour>
      <point x="510" y="670" type="move" name="abvm"/>
    </contour>
    <contour>
      <point x="558" y="0" type="line"/>
      <point x="558" y="617" type="line"/>
      <point x="654" y="617" type="line"/>
      <point x="654" y="685" type="line"/>
      <point x="481.0" y="685" type="line"/>
      <point x="481.0" y="466.0" type="line"/>
      <point x="222.57343" y="466.0" type="line"/>
      <point x="222.855887548" y="470.431653118"/>
      <point x="223.0" y="475.188314182"/>
      <point x="223.0" y="480.0" type="curve" smooth="yes"/>
      <point x="223" y="580"/>
      <point x="156" y="685"/>
      <point x="25" y="685" type="curve" smooth="yes"/>
      <point x="0" y="685" type="line"/>
      <point x="0" y="617" type="line"/>
      <point x="29.0" y="617" type="line" smooth="yes"/>
      <point x="111" y="617"/>
      <point x="147" y="557"/>
      <point x="147" y="489" type="curve" smooth="yes"/>
      <point x="147" y="422"/>
      <point x="113" y="360"/>
      <point x="50" y="320" type="curve"/>
      <point x="72" y="197"/>
      <point x="167" y="130"/>
      <point x="295" y="130" type="curve" smooth="yes"/>
      <point x="366.651612075" y="130.0"/>
      <point x="431.754814057" y="144.552022429"/>
      <point x="481.0" y="170.56452" type="curve"/>
      <point x="481.0" y="0" type="line"/>
    </contour>
    <contour>
      <point x="294.0" y="198.0" type="curve" smooth="yes"/>
      <point x="193.036998631" y="198.0"/>
      <point x="145.688869822" y="241.934409459"/>
      <point x="126.89488" y="292.57599" type="curve"/>
      <point x="161.761003585" y="318.147551553"/>
      <point x="191.218389374" y="354.126339066"/>
      <point x="208.00111" y="398.0" type="curve"/>
      <point x="481.0" y="398.0" type="line"/>
      <point x="481.0" y="265.73749" type="line"/>
      <point x="432.682187839" y="216.86966632"/>
      <point x="356.050541023" y="198.0"/>
    </contour>
  </outline>
</glyph>
<glyph name="uni0A17" format="1">
  <advance width="788"/>
  <unicode hex="0A17"/>
  <outline>
    <contour>
      <point x="644" y="681" type="move" name="abvm_bindu"/>
    </contour>
    <contour>
      <point x="654" y="0" type="move" name="blwm"/>
    </contour>
    <contour>
      <point x="644" y="690" type="move" name="abvm_candra"/>
    </contour>
    <contour>
      <point x="434" y="30" type="move" name="blwm_caret_1"/>
    </contour>
    <contour>
      <point x="68" y="-8" type="move" name="blwm_nukta"/>
    </contour>
    <contour>
      <point x="644" y="671" type="move" name="abvm"/>
    </contour>
    <contour>
      <point x="474" y="128" type="curve" smooth="yes"/>
      <point x="474.93678" y="617" type="line"/>
      <point x="615" y="617" type="line"/>
      <point x="615" y="0" type="line"/>
      <point x="692" y="0" type="line"/>
      <point x="692" y="617" type="line"/>
      <point x="788.0" y="617" type="line"/>
      <point x="788.0" y="685" type="line"/>
      <point x="0" y="685" type="line"/>
      <point x="0" y="617" type="line"/>
      <point x="398.0" y="617" type="line"/>
      <point x="398.0" y="444.0" type="line"/>
      <point x="203.0" y="444.0" type="line" smooth="yes"/>
      <point x="104" y="444"/>
      <point x="42" y="382"/>
      <point x="42" y="278" type="curve" smooth="yes"/>
      <point x="42" y="112"/>
      <point x="214" y="-6"/>
      <point x="343" y="-6" type="curve" smooth="yes"/>
      <point x="417" y="-6"/>
      <point x="474" y="31"/>
    </contour>
    <contour>
      <point x="332" y="62" type="curve" smooth="yes"/>
      <point x="230" y="62"/>
      <point x="119" y="158"/>
      <point x="119" y="268" type="curve" smooth="yes"/>
      <point x="119" y="329"/>
      <point x="151" y="376"/>
      <point x="219" y="376" type="curve" smooth="yes"/>
      <point x="397.94779" y="376.0" type="line"/>
      <point x="397.0" y="140" type="line" smooth="yes"/>
      <point x="397" y="94"/>
      <point x="388" y="62"/>
    </contour>
  </outline>
</glyph>
<glyph name="uni0A18" format="1">
  <advance width="832"/>
  <unicode hex="0A18"/>
  <outline>
    <contour>
      <point x="688" y="680" type="move" name="abvm_bindu"/>
    </contour>
    <contour>
      <point x="697" y="0" type="move" name="blwm"/>
    </contour>
    <contour>
      <point x="688" y="690" type="move" name="abvm_candra"/>
    </contour>
    <contour>
      <point x="418" y="30" type="move" name="blwm_caret_1"/>
    </contour>
    <contour>
      <point x="118" y="0" type="move" name="blwm_nukta"/>
    </contour>
    <contour>
      <point x="688" y="670" type="move" name="abvm"/>
    </contour>
    <contour>
      <point x="736.0" y="0" type="line"/>
      <point x="736.0" y="617" type="line"/>
      <point x="832.0" y="617" type="line"/>
      <point x="832.0" y="685" type="line"/>
      <point x="659" y="685" type="line"/>
      <point x="659" y="246.93068" type="line"/>
      <point x="629.378207203" y="208.566156985"/>
      <point x="586.25506308" y="198.0"/>
      <point x="557.0" y="198.0" type="curve" smooth="yes"/>
      <point x="494.376260257" y="198.0"/>
      <point x="458.23236442" y="234.664399253"/>
      <point x="442.97362" y="282.83145" type="curve"/>
      <point x="461.448196251" y="353.754167281"/>
      <point x="470.0" y="419.096577276"/>
      <point x="470.0" y="472.0" type="curve" smooth="yes"/>
      <point x="470" y="530"/>
      <point x="464" y="589"/>
      <point x="453" y="647" type="curve"/>
      <point x="382.0" y="647" type="line"/>
      <point x="382.0" y="295" type="line"/>
      <point x="365" y="214"/>
      <point x="298" y="198"/>
      <point x="255" y="198" type="curve" smooth="yes"/>
      <point x="182.442247708" y="198.0"/>
      <point x="138.675426606" y="237.484705632"/>
      <point x="124.44561" y="290.42861" type="curve"/>
      <point x="183.036296579" y="330.212252411"/>
      <point x="222.0" y="399.045105673"/>
      <point x="222.0" y="480.0" type="curve" smooth="yes"/>
      <point x="222" y="580"/>
      <point x="156" y="685"/>
      <point x="24" y="685" type="curve" smooth="yes"/>
      <point x="0" y="685" type="line"/>
      <point x="0" y="617" type="line"/>
      <point x="28.0" y="617" type="line" smooth="yes"/>
      <point x="110" y="617"/>
      <point x="147" y="557"/>
      <point x="147" y="489" type="curve" smooth="yes"/>
      <point x="147" y="422"/>
      <point x="113" y="360"/>
      <point x="50" y="320" type="curve"/>
      <point x="67" y="199"/>
      <point x="152" y="130"/>
      <point x="255" y="130" type="curve" smooth="yes"/>
      <point x="316.160804003" y="130.0"/>
      <point x="384.000004261" y="149.293144734"/>
      <point x="412.49438" y="212.23646" type="curve"/>
      <point x="443.450449685" y="160.49761769"/>
      <point x="492.237753543" y="130.0"/>
      <point x="557.0" y="130.0" type="curve" smooth="yes"/>
      <point x="593.793199172" y="130.0"/>
      <point x="629.545460623" y="137.286564042"/>
      <point x="659" y="154.87219" type="curve"/>
      <point x="659" y="0" type="line"/>
    </contour>
  </outline>
</glyph>
<glyph name="uni0A19" format="1">
  <advance width="643"/>
  <unicode hex="0A19"/>
  <outline>
    <contour>
      <point x="466" y="680" type="move" name="abvm_bindu"/>
    </contour>
    <contour>
      <point x="296" y="0" type="move" name="blwm"/>
    </contour>
    <contour>
      <point x="466" y="690" type="move" name="abvm_candra"/>
    </contour>
    <contour>
      <point x="309" y="30" type="move" name="blwm_caret_1"/>
    </contour>
    <contour>
      <point x="78" y="-37" type="move" name="blwm_nukta"/>
    </contour>
    <contour>
      <point x="466" y="670" type="move" name="abvm"/>
    </contour>
    <contour>
      <point x="292" y="-6" type="curve" smooth="yes"/>
      <point x="476" y="-6"/>
      <point x="580" y="102"/>
      <point x="580" y="233" type="curve" smooth="yes"/>
      <point x="580" y="347"/>
      <point x="502" y="458"/>
      <point x="325" y="458" type="curve" smooth="yes"/>
      <point x="182.0" y="458.0" type="line"/>
      <point x="182.0" y="617" type="line"/>
      <point x="643" y="617" type="line"/>
      <point x="643" y="685" type="line"/>
      <point x="0" y="685" type="line"/>
      <point x="0" y="617" type="line"/>
      <point x="105.0" y="617" type="line"/>
      <point x="105.0" y="390.0" type="line"/>
      <point x="323" y="390.0" type="line" smooth="yes"/>
      <point x="459" y="390"/>
      <point x="506" y="313"/>
      <point x="506" y="238" type="curve" smooth="yes"/>
      <point x="506.0" y="209.197638008"/>
      <point x="499.240213212" y="180.770819726"/>
      <point x="485.60557" y="155.22712" type="curve"/>
      <point x="427.417057613" y="221.391753243"/>
      <point x="340.493592232" y="260.0"/>
      <point x="241.0" y="260.0" type="curve" smooth="yes"/>
      <point x="133" y="260"/>
      <point x="68" y="215"/>
      <point x="68" y="141" type="curve" smooth="yes"/>
      <point x="68" y="56"/>
      <point x="153" y="-6"/>
    </contour>
    <contour>
      <point x="286.0" y="54.0" type="curve" smooth="yes"/>
      <point x="194" y="54"/>
      <point x="138" y="89"/>
      <point x="138" y="137" type="curve" smooth="yes"/>
      <point x="138" y="179"/>
      <point x="182" y="205"/>
      <point x="251" y="205" type="curve" smooth="yes"/>
      <point x="330.492916184" y="205.0"/>
      <point x="403.564890857" y="170.143460373"/>
      <point x="452.64555" y="111.83535" type="curve"/>
      <point x="416.154845981" y="76.9757858269"/>
      <point x="360.77831034" y="54.0"/>
    </contour>
  </outline>
</glyph>
